{
classes = (
{
automatic = 1;
code = "k-deva kh-deva g-deva gh-deva ng-deva c-deva ch-deva j-deva jh-deva ny-deva nn-deva t-deva th-deva dh-deva n-deva p-deva ph-deva b-deva bh-deva m-deva y-deva rr-deva l-deva ll-deva v-deva sh-deva ss-deva s-deva h-deva sh-deva.loclMAR jh-deva.loclNEP";
name = DevaHalfforms;
},
{
automatic = 1;
code = "iMatra-deva iMatra-deva.0 iMatra-deva.01 iMatra-deva.02 iMatra-deva.03 iMatra-deva.05 iMatra-deva.08 iMatra-deva.10 iMatra-deva.15 iMatra-deva.20 iMatra-deva.25 iMatra-deva.30";
name = DevaIMatras;
},
{
automatic = 1;
code = "iMatra_reph-deva iMatra_reph-deva.0 iMatra_reph-deva.01 iMatra_reph-deva.02 iMatra_reph-deva.03 iMatra_reph-deva.05 iMatra_reph-deva.08 iMatra_reph-deva.10 iMatra_reph-deva.15 iMatra_reph-deva.20 iMatra_reph-deva.25 iMatra_reph-deva.30";
name = DevaIMatraRephs;
},
{
automatic = 1;
code = "iMatra_reph_anusvara-deva iMatra_reph_anusvara-deva.0 iMatra_reph_anusvara-deva.01 iMatra_reph_anusvara-deva.02 iMatra_reph_anusvara-deva.03 iMatra_reph_anusvara-deva.05 iMatra_reph_anusvara-deva.08 iMatra_reph_anusvara-deva.10 iMatra_reph_anusvara-deva.15 iMatra_reph_anusvara-deva.20 iMatra_reph_anusvara-deva.25 iMatra_reph_anusvara-deva.30";
name = DevaIMatraRephAnusvaras;
},
{
automatic = 1;
code = "iMatra_anusvara-deva iMatra_anusvara-deva.0 iMatra_anusvara-deva.01 iMatra_anusvara-deva.02 iMatra_anusvara-deva.03 iMatra_anusvara-deva.05 iMatra_anusvara-deva.08 iMatra_anusvara-deva.10 iMatra_anusvara-deva.15 iMatra_anusvara-deva.20 iMatra_anusvara-deva.25 iMatra_anusvara-deva.30";
name = DevaIMatraAnusvaras;
},
{
automatic = 1;

glyphs = (
{
glyphname = A;
lastChange = "2015-03-23 17:17:51 +0000";
layers = (
{
anchors = (
{
name = bottom;
position = "{672, 0}";
},
{
name = ogonek;
position = "{1348, 10}";
},
{
name = top;
position = "{725, 1384}";
}
);
background = {
anchors = (
{
name = ogonek;
position = "{1348, 10}";
},
{
name = bottom;
position = "{672, 0}";
},
{
name = top;
position = "{725, 1384}";
}
);
paths = (
{
closed = 1;
nodes = (
"861 568 LINE",
"462 568 LINE",
"401 383 LINE",
"571 382 OFFCURVE",
"740 386 OFFCURVE",
"910 396 CURVE"
);
},
{
closed = 1;
nodes = (
"973 159 LINE",
"816 83 LINE",
"801 0 LINE",
"1502 0 LINE",
"1532 95 LINE",
"1370 159 LINE",
"881 1419 LINE",
"579 1384 LINE",
"136 164 LINE",
"-28 93 LINE",
"-45 0 LINE",
"494 0 LINE",
"510 80 LINE",
"337 159 LINE",
"337 159 OFFCURVE",
"646 1049 OFFCURVE",
"663 1155 CURVE"
);
}
);
};
layerId = UUID1;
name = Bold;
paths = (
{
closed = 1;
nodes = (
"861 568 LINE",
"462 568 LINE",
"401 383 LINE",
"571 382 OFFCURVE",
"740 386 OFFCURVE",
"910 396 CURVE"
);
},
{
closed = 1;
nodes = (
"973 159 LINE",
"816 83 LINE",
"801 0 LINE",
"1502 0 LINE",
"1532 95 LINE",
"1370 159 LINE",
"881 1419 LINE",
"579 1384 LINE",
"136 164 LINE",
"-28 93 LINE",
"-45 0 LINE",
"494 0 LINE",
"510 80 LINE",
"337 159 LINE",
"337 159 OFFCURVE",
"646 1049 OFFCURVE",
"663 1155 CURVE"
);
}
);
width = 1489;
},
{
anchors = (
{
name = bottom;
position = "{662, 0}";
},
{
name = ogonek;
position = "{1202, 10}";
},
{
name = top;
position = "{649, 1384}";
}
);
background = {
anchors = (
{
name = ogonek;
position = "{1202, 10}";
},
{
name = bottom;
position = "{662, 0}";
},
{
name = top;
position = "{649, 1384}";
}
);
paths = (
{
closed = 1;
nodes = (
"850 568 LINE",
"414 568 LINE",
"370 437 LINE",
"546 436 OFFCURVE",
"719 441 OFFCURVE",
"889 452 CURVE"
);
},
{
closed = 1;
nodes = (
"998 133 LINE",
"834 86 LINE",
"818 0 LINE",
"1337 0 LINE",
"1358 99 LINE",
"1207 133 LINE",
"715 1419 LINE",
"596 1384 LINE",
"145 142 LINE",
"-10 95 LINE",
"-28 0 LINE",
"469 0 LINE",
"487 83 LINE",
"281 138 LINE",
"281 138 OFFCURVE",
"597 1049 OFFCURVE",
"614 1155 CURVE"
);
}
);
};
layerId = UUID0;
name = Regular;
paths = (
{
closed = 1;
nodes = (
"850 568 LINE",
"414 568 LINE",
"370 437 LINE",
"546 436 OFFCURVE",
"719 441 OFFCURVE",
"889 452 CURVE"
);
},
{
closed = 1;
nodes = (
"998 133 LINE",
"834 86 LINE",
"818 0 LINE",
"1337 0 LINE",
"1358 99 LINE",
"1207 133 LINE",
"715 1419 LINE",
"596 1384 LINE",
"145 142 LINE",
"-10 95 LINE",
"-28 0 LINE",
"469 0 LINE",
"487 83 LINE",
"281 138 LINE",
"281 138 OFFCURVE",
"597 1049 OFFCURVE",
"614 1155 CURVE"
);
}
);
width = 1336;
}
);
leftKerningGroup = A;
rightKerningGroup = A;
unicode = 0041;
},
{
glyphname = Aogonek;
lastChange = "2015-03-23 17:17:51 +0000";
layers = (
{
background = {
paths = (
{
closed = 1;
nodes = (
"972 162 LINE SMOOTH",
"978 143 OFFCURVE",
"982 125 OFFCURVE",
"982 118 CURVE SMOOTH",
"982 87 OFFCURVE",
"966 60 OFFCURVE",
"942 35 CURVE SMOOTH",
"858 -50 OFFCURVE",
"671 -113 OFFCURVE",
"671 -277 CURVE SMOOTH",
"671 -440 OFFCURVE",
"804 -504 OFFCURVE",
"934 -504 CURVE SMOOTH",
"1052 -504 OFFCURVE",
"1160 -451 OFFCURVE",
"1244 -352 CURVE",
"1213 -306 LINE",
"1152 -337 OFFCURVE",
"1079 -355 OFFCURVE",
"1039 -355 CURVE SMOOTH",
"1027 -355 OFFCURVE",
"1016 -352 OFFCURVE",
"1005 -347 CURVE SMOOTH",
"964 -327 OFFCURVE",
"940 -273 OFFCURVE",
"940 -226 CURVE SMOOTH",
"940 -183 OFFCURVE",
"997 -101 OFFCURVE",
"1075 -48 CURVE SMOOTH",
"1117 -20 OFFCURVE",
"1161 0 OFFCURVE",
"1215 0 CURVE SMOOTH",
"1503 0 LINE",
"1534 96 LINE",
"1370 159 LINE",
"881 1419 LINE",
"579 1384 LINE",
"136 164 LINE",
"-27 93 LINE",
"-46 0 LINE",
"493 0 LINE",
"510 81 LINE",
"337 159 LINE",
"459 491 OFFCURVE",
"573 823 OFFCURVE",
"663 1155 CURVE"
);
},
{
closed = 1;
nodes = (
"861 568 LINE",
"462 568 LINE",
"397 385 LINE",
"582 381 OFFCURVE",
"760 382 OFFCURVE",
"914 397 CURVE"
);
}
);
};
layerId = UUID1;
name = Bold;
paths = (
{
closed = 1;
nodes = (
"972 162 LINE SMOOTH",
"978 143 OFFCURVE",
"982 125 OFFCURVE",
"982 118 CURVE SMOOTH",
"982 87 OFFCURVE",
"966 60 OFFCURVE",
"942 35 CURVE SMOOTH",
"858 -50 OFFCURVE",
"671 -113 OFFCURVE",
"671 -277 CURVE SMOOTH",
"671 -440 OFFCURVE",
"804 -504 OFFCURVE",
"934 -504 CURVE SMOOTH",
"1052 -504 OFFCURVE",
"1160 -451 OFFCURVE",
"1244 -352 CURVE",
"1213 -306 LINE",
"1152 -337 OFFCURVE",
"1079 -355 OFFCURVE",
"1039 -355 CURVE SMOOTH",
"1027 -355 OFFCURVE",
"1016 -352 OFFCURVE",
"1005 -347 CURVE SMOOTH",
"964 -327 OFFCURVE",
"940 -273 OFFCURVE",
"940 -226 CURVE SMOOTH",
"940 -183 OFFCURVE",
"997 -101 OFFCURVE",
"1075 -48 CURVE SMOOTH",
"1117 -20 OFFCURVE",
"1161 0 OFFCURVE",
"1215 0 CURVE SMOOTH",
"1503 0 LINE",
"1534 96 LINE",
"1370 159 LINE",
"881 1419 LINE",
"579 1384 LINE",
"136 164 LINE",
"-27 93 LINE",
"-46 0 LINE",
"493 0 LINE",
"510 81 LINE",
"337 159 LINE",
"459 491 OFFCURVE",
"573 823 OFFCURVE",
"663 1155 CURVE"
);
},
{
closed = 1;
nodes = (
"861 568 LINE",
"462 568 LINE",
"397 385 LINE",
"582 381 OFFCURVE",
"760 382 OFFCURVE",
"914 397 CURVE"
);
}
);
width = 1489;
},
{
background = {
paths = (
{
closed = 1;
nodes = (
"992 150 LINE SMOOTH",
"998 134 OFFCURVE",
"1001 118 OFFCURVE",
"1001 105 CURVE SMOOTH",
"1001 68 OFFCURVE",
"984 33 OFFCURVE",
"956 11 CURVE SMOOTH",
"829 -94 OFFCURVE",
"725 -149 OFFCURVE",
"725 -286 CURVE SMOOTH",
"725 -405 OFFCURVE",
"822 -475 OFFCURVE",
"927 -475 CURVE SMOOTH",
"1016 -475 OFFCURVE",
"1092 -419 OFFCURVE",
"1169 -351 CURVE",
"1144 -314 LINE",
"1095 -341 OFFCURVE",
"1033 -355 OFFCURVE",
"990 -355 CURVE SMOOTH",
"973 -355 OFFCURVE",
"956 -350 OFFCURVE",
"940 -342 CURVE SMOOTH",
"900 -321 OFFCURVE",
"872 -277 OFFCURVE",
"872 -236 CURVE SMOOTH",
"872 -168 OFFCURVE",
"958 -86 OFFCURVE",
"1004 -45 CURVE SMOOTH",
"1052 -2 OFFCURVE",
"1100 0 OFFCURVE",
"1158 0 CURVE SMOOTH",
"1321 0 LINE",
"1344 101 LINE",
"1208 133 LINE",
"715 1420 LINE",
"596 1384 LINE",
"146 142 LINE",
"-7 95 LINE",
"-30 0 LINE",
"469 0 LINE",
"487 83 LINE",
"282 138 LINE",
"396 477 OFFCURVE",
"503 793 OFFCURVE",
"614 1155 CURVE"
);
},
{
closed = 1;
nodes = (
"851 568 LINE",
"414 568 LINE",
"372 440 LINE",
"537 440 OFFCURVE",
"751 441 OFFCURVE",
"890 455 CURVE"
);
}
);
};
layerId = UUID0;
name = Regular;
paths = (
{
closed = 1;
nodes = (
"992 150 LINE SMOOTH",
"998 134 OFFCURVE",
"1001 118 OFFCURVE",
"1001 105 CURVE SMOOTH",
"1001 68 OFFCURVE",
"984 33 OFFCURVE",
"956 11 CURVE SMOOTH",
"829 -94 OFFCURVE",
"725 -149 OFFCURVE",
"725 -286 CURVE SMOOTH",
"725 -405 OFFCURVE",
"822 -475 OFFCURVE",
"927 -475 CURVE SMOOTH",
"1016 -475 OFFCURVE",
"1092 -419 OFFCURVE",
"1169 -351 CURVE",
"1144 -314 LINE",
"1095 -341 OFFCURVE",
"1033 -355 OFFCURVE",
"990 -355 CURVE SMOOTH",
"973 -355 OFFCURVE",
"956 -350 OFFCURVE",
"940 -342 CURVE SMOOTH",
"900 -321 OFFCURVE",
"872 -277 OFFCURVE",
"872 -236 CURVE SMOOTH",
"872 -168 OFFCURVE",
"958 -86 OFFCURVE",
"1004 -45 CURVE SMOOTH",
"1052 -2 OFFCURVE",
"1100 0 OFFCURVE",
"1158 0 CURVE SMOOTH",
"1321 0 LINE",
"1344 101 LINE",
"1208 133 LINE",
"715 1420 LINE",
"596 1384 LINE",
"146 142 LINE",
"-7 95 LINE",
"-30 0 LINE",
"469 0 LINE",
"487 83 LINE",
"282 138 LINE",
"396 477 OFFCURVE",
"503 793 OFFCURVE",
"614 1155 CURVE"
);
},
{
closed = 1;
nodes = (
"851 568 LINE",
"414 568 LINE",
"372 440 LINE",
"537 440 OFFCURVE",
"751 441 OFFCURVE",
"890 455 CURVE"
);
}
);
width = 1337;
}
);
leftKerningGroup = A;
leftMetricsKey = "=A";
rightKerningGroup = A;
rightMetricsKey = "=A";
unicode = 0104;
},
{
glyphname = AE;
lastChange = "2015-03-23 17:17:51 +0000";
layers = (
{
anchors = (
{
name = top;
position = "{1123, 1384}";
}
);
background = {
anchors = (
{
name = top;
position = "{1123, 1384}";
}
);
paths = (
{
closed = 1;
nodes = (
"879 165 LINE",
"703 89 LINE",
"688 0 LINE",
"1888 0 LINE",
"1969 354 LINE",
"1834 371 LINE",
"1713 171 LINE",
"1598 160 OFFCURVE",
"1283 112 OFFCURVE",
"1235 99 CURVE",
"1235 659 LINE",
"1285 644 OFFCURVE",
"1450 622 OFFCURVE",
"1473 622 CURVE",
"1520 462 LINE",
"1625 448 LINE",
"1642 928 LINE",
"1539 951 LINE",
"1473 781 LINE",
"1442 780 OFFCURVE",
"1292 758 OFFCURVE",
"1235 741 CURVE",
"1235 1296 LINE",
"1387 1269 OFFCURVE",
"1528 1246 OFFCURVE",
"1658 1227 CURVE",
"1753 1021 LINE",
"1894 1046 LINE",
"1855 1397 LINE",
"1709 1384 LINE",
"557 1384 LINE",
"539 1304 LINE",
"667 1246 LINE",
"117 157 LINE",
"-34 91 LINE",
"-51 0 LINE",
"476 0 LINE",
"495 82 LINE",
"318 159 LINE",
"435 383 LINE",
"593 383 OFFCURVE",
"766 383 OFFCURVE",
"879 396 CURVE"
);
},
{
closed = 1;
nodes = (
"528 568 LINE",
"823 1155 LINE",
"879 1155 LINE",
"879 568 LINE"
);
}
);
};
layerId = UUID1;
name = Bold;
paths = (
{
closed = 1;
nodes = (
"879 165 LINE",
"703 89 LINE",
"688 0 LINE",
"1888 0 LINE",
"1969 354 LINE",
"1834 371 LINE",
"1713 171 LINE",
"1598 160 OFFCURVE",
"1283 112 OFFCURVE",
"1235 99 CURVE",
"1235 659 LINE",
"1285 644 OFFCURVE",
"1450 622 OFFCURVE",
"1473 622 CURVE",
"1520 462 LINE",
"1625 448 LINE",
"1642 928 LINE",
"1539 951 LINE",
"1473 781 LINE",
"1442 780 OFFCURVE",
"1292 758 OFFCURVE",
"1235 741 CURVE",
"1235 1296 LINE",
"1387 1269 OFFCURVE",
"1528 1246 OFFCURVE",
"1658 1227 CURVE",
"1753 1021 LINE",
"1894 1046 LINE",
"1855 1397 LINE",
"1709 1384 LINE",
"557 1384 LINE",
"539 1304 LINE",
"667 1246 LINE",
"117 157 LINE",
"-34 91 LINE",
"-51 0 LINE",
"476 0 LINE",
"495 82 LINE",
"318 159 LINE",
"435 383 LINE",
"593 383 OFFCURVE",
"766 383 OFFCURVE",
"879 396 CURVE"
);
},
{
closed = 1;
nodes = (
"528 568 LINE",
"823 1155 LINE",
"879 1155 LINE",
"879 568 LINE"
);
}
);
width = 2002;
},
{
anchors = (
{
name = top;
position = "{1073, 1384}";
}
);
background = {
anchors = (
{
name = top;
position = "{1073, 1384}";
}
);
paths = (
{
closed = 1;
nodes = (
"897 141 LINE",
"720 86 LINE",
"703 0 LINE",
"1695 0 LINE",
"1771 324 LINE",
"1698 339 LINE",
"1575 155 LINE",
"1214 121 OFFCURVE",
"1091 100 OFFCURVE",
"1089 99 CURVE",
"1089 659 LINE",
"1197 640 OFFCURVE",
"1352 639 OFFCURVE",
"1353 639 CURVE",
"1393 478 LINE",
"1467 463 LINE",
"1486 914 LINE",
"1412 934 LINE",
"1355 765 LINE",
"1354 765 OFFCURVE",
"1187 758 OFFCURVE",
"1089 741 CURVE",
"1089 1296 LINE",
"1228 1274 OFFCURVE",
"1368 1258 OFFCURVE",
"1511 1246 CURVE",
"1610 1024 LINE",
"1703 1046 LINE",
"1665 1397 LINE",
"1538 1384 LINE",
"575 1384 LINE",
"558 1301 LINE",
"747 1249 LINE",
"139 142 LINE",
"-13 95 LINE",
"-33 0 LINE",
"460 0 LINE",
"480 82 LINE",
"294 138 LINE",
"454 440 LINE",
"612 440 OFFCURVE",
"784 443 OFFCURVE",
"897 456 CURVE"
);
},
{
closed = 1;
nodes = (
"522 568 LINE",
"867 1242 LINE",
"897 1242 LINE",
"897 568 LINE"
);
}
);
};
layerId = UUID0;
name = Regular;
paths = (
{
closed = 1;
nodes = (
"897 141 LINE",
"720 86 LINE",
"703 0 LINE",
"1695 0 LINE",
"1771 324 LINE",
"1698 339 LINE",
"1575 155 LINE",
"1214 121 OFFCURVE",
"1091 100 OFFCURVE",
"1089 99 CURVE",
"1089 659 LINE",
"1197 640 OFFCURVE",
"1352 639 OFFCURVE",
"1353 639 CURVE",
"1393 478 LINE",
"1467 463 LINE",
"1486 914 LINE",
"1412 934 LINE",
"1355 765 LINE",
"1354 765 OFFCURVE",
"1187 758 OFFCURVE",
"1089 741 CURVE",
"1089 1296 LINE",
"1228 1274 OFFCURVE",
"1368 1258 OFFCURVE",
"1511 1246 CURVE",
"1610 1024 LINE",
"1703 1046 LINE",
"1665 1397 LINE",
"1538 1384 LINE",
"575 1384 LINE",
"558 1301 LINE",
"747 1249 LINE",
"139 142 LINE",
"-13 95 LINE",
"-33 0 LINE",
"460 0 LINE",
"480 82 LINE",
"294 138 LINE",
"454 440 LINE",
"612 440 OFFCURVE",
"784 443 OFFCURVE",
"897 456 CURVE"
);
},
{
closed = 1;
nodes = (
"522 568 LINE",
"867 1242 LINE",
"897 1242 LINE",
"897 568 LINE"
);
}
);
width = 1824;
}
);
leftKerningGroup = A;
rightKerningGroup = E;
unicode = 00C6;
},
{
glyphname = B;
lastChange = "2015-03-23 17:17:51 +0000";
layers = (
{
anchors = (
{
name = bottom;
position = "{727, 0}";
},
{
name = top;
position = "{727, 1384}";
}
);
background = {
anchors = (
{
name = top;
position = "{727, 1384}";
},
{
name = bottom;
position = "{727, 0}";
}
);
paths = (
{
closed = 1;
nodes = (
"687 0 LINE",
"1208 0 OFFCURVE",
"1381 131 OFFCURVE",
"1381 387 CURVE SMOOTH",
"1381 586 OFFCURVE",
"1213 719 OFFCURVE",
"989 736 CURVE",
"1166 766 OFFCURVE",
"1319 867 OFFCURVE",
"1319 1060 CURVE SMOOTH",
"1319 1384 OFFCURVE",
"950 1384 OFFCURVE",
"496 1384 CURVE SMOOTH",
"75 1384 LINE",
"58 1305 LINE",
"245 1221 LINE",
"245 164 LINE",
"70 85 LINE",
"53 0 LINE"
);
},
{
closed = 1;
nodes = (
"946 909 OFFCURVE",
"871 807 OFFCURVE",
"734 754 CURVE",
"726 695 LINE",
"853 663 OFFCURVE",
"999 569 OFFCURVE",
"999 387 CURVE SMOOTH",
"999 179 OFFCURVE",
"833 117 OFFCURVE",
"615 81 CURVE",
"615 1305 LINE",
"770 1288 OFFCURVE",
"946 1235 OFFCURVE",
"946 1051 CURVE SMOOTH"
);
}
);
};
layerId = UUID1;
name = Bold;
paths = (
{
closed = 1;
nodes = (
"687 0 LINE",
"1208 0 OFFCURVE",
"1381 131 OFFCURVE",
"1381 387 CURVE SMOOTH",
"1381 586 OFFCURVE",
"1213 719 OFFCURVE",
"989 736 CURVE",
"1166 766 OFFCURVE",
"1319 867 OFFCURVE",
"1319 1060 CURVE SMOOTH",
"1319 1384 OFFCURVE",
"950 1384 OFFCURVE",
"496 1384 CURVE SMOOTH",
"75 1384 LINE",
"58 1305 LINE",
"245 1221 LINE",
"245 164 LINE",
"70 85 LINE",
"53 0 LINE"
);
},
{
closed = 1;
nodes = (
"946 909 OFFCURVE",
"871 807 OFFCURVE",
"734 754 CURVE",
"726 695 LINE",
"853 663 OFFCURVE",
"999 569 OFFCURVE",
"999 387 CURVE SMOOTH",
"999 179 OFFCURVE",
"833 117 OFFCURVE",
"615 81 CURVE",
"615 1305 LINE",
"770 1288 OFFCURVE",
"946 1235 OFFCURVE",
"946 1051 CURVE SMOOTH"
);
}
);
width = 1454;
},
{
anchors = (
{
name = bottom;
position = "{610, 0}";
},
{
name = top;
position = "{610, 1384}";
}
);
background = {
anchors = (
{
name = top;
position = "{610, 1384}";
},
{
name = bottom;
position = "{610, 0}";
}
);
paths = (
{
closed = 1;
nodes = (
"456 0 LINE",
"832 0 OFFCURVE",
"1128 42 OFFCURVE",
"1128 401 CURVE SMOOTH",
"1128 613 OFFCURVE",
"940 720 OFFCURVE",
"740 747 CURVE",
"895 776 OFFCURVE",
"1063 874 OFFCURVE",
"1063 1060 CURVE SMOOTH",
"1063 1349 OFFCURVE",
"787 1384 OFFCURVE",
"448 1384 CURVE SMOOTH",
"91 1384 LINE",
"73 1302 LINE",
"261 1246 LINE",
"261 139 LINE",
"86 85 LINE",
"70 0 LINE"
);
},
{
closed = 1;
nodes = (
"869 917 OFFCURVE",
"758 813 OFFCURVE",
"561 769 CURVE",
"551 710 LINE",
"759 659 OFFCURVE",
"922 581 OFFCURVE",
"922 397 CURVE SMOOTH",
"922 154 OFFCURVE",
"656 106 OFFCURVE",
"453 81 CURVE",
"453 1305 LINE",
"648 1288 OFFCURVE",
"869 1235 OFFCURVE",
"869 1051 CURVE SMOOTH"
);
}
);
};
layerId = UUID0;
name = Regular;
paths = (
{
closed = 1;
nodes = (
"456 0 LINE",
"832 0 OFFCURVE",
"1128 42 OFFCURVE",
"1128 401 CURVE SMOOTH",
"1128 613 OFFCURVE",
"940 720 OFFCURVE",
"740 747 CURVE",
"895 776 OFFCURVE",
"1063 874 OFFCURVE",
"1063 1060 CURVE SMOOTH",
"1063 1349 OFFCURVE",
"787 1384 OFFCURVE",
"448 1384 CURVE SMOOTH",
"91 1384 LINE",
"73 1302 LINE",
"261 1246 LINE",
"261 139 LINE",
"86 85 LINE",
"70 0 LINE"
);
},
{
closed = 1;
nodes = (
"869 917 OFFCURVE",
"758 813 OFFCURVE",
"561 769 CURVE",
"551 710 LINE",
"759 659 OFFCURVE",
"922 581 OFFCURVE",
"922 397 CURVE SMOOTH",
"922 154 OFFCURVE",
"656 106 OFFCURVE",
"453 81 CURVE",
"453 1305 LINE",
"648 1288 OFFCURVE",
"869 1235 OFFCURVE",
"869 1051 CURVE SMOOTH"
);
}
);
width = 1219;
}
);
leftKerningGroup = H;
rightKerningGroup = B;
unicode = 0042;
},
{
glyphname = C;
lastChange = "2015-03-23 17:17:51 +0000";
layers = (
{
anchors = (
{
name = bottom;
position = "{772, 0}";
},
{
name = top;
position = "{756, 1384}";
}
);
background = {
anchors = (
{
name = top;
position = "{756, 1384}";
},
{
name = bottom;
position = "{772, 0}";
}
);
paths = (
{
closed = 1;
nodes = (
"972 -35 OFFCURVE",
"1166 32 OFFCURVE",
"1268 163 CURVE",
"1237 222 LINE",
"1165 210 OFFCURVE",
"898 187 OFFCURVE",
"841 187 CURVE SMOOTH",
"766 187 OFFCURVE",
"659 229 OFFCURVE",
"584 330 CURVE SMOOTH",
"510 429 OFFCURVE",
"460 555 OFFCURVE",
"460 766 CURVE SMOOTH",
"460 937 OFFCURVE",
"487 1144 OFFCURVE",
"558 1223 CURVE SMOOTH",
"588 1256 OFFCURVE",
"665 1262 OFFCURVE",
"732 1262 CURVE SMOOTH",
"827 1262 OFFCURVE",
"928 1251 OFFCURVE",
"1003 1201 CURVE",
"1086 997 LINE",
"1224 1019 LINE",
"1199 1406 LINE",
"1042 1401 LINE",
"979 1411 OFFCURVE",
"883 1419 OFFCURVE",
"821 1419 CURVE SMOOTH",
"625 1419 OFFCURVE",
"454 1358 OFFCURVE",
"326 1251 CURVE SMOOTH",
"166 1117 OFFCURVE",
"71 911 OFFCURVE",
"71 659 CURVE SMOOTH",
"71 198 OFFCURVE",
"356 -35 OFFCURVE",
"757 -35 CURVE SMOOTH"
);
}
);
};
layerId = UUID1;
name = Bold;
paths = (
{
closed = 1;
nodes = (
"972 -35 OFFCURVE",
"1166 32 OFFCURVE",
"1268 163 CURVE",
"1237 222 LINE",
"1165 210 OFFCURVE",
"898 187 OFFCURVE",
"841 187 CURVE SMOOTH",
"766 187 OFFCURVE",
"659 229 OFFCURVE",
"584 330 CURVE SMOOTH",
"510 429 OFFCURVE",
"460 555 OFFCURVE",
"460 766 CURVE SMOOTH",
"460 937 OFFCURVE",
"487 1144 OFFCURVE",
"558 1223 CURVE SMOOTH",
"588 1256 OFFCURVE",
"665 1262 OFFCURVE",
"732 1262 CURVE SMOOTH",
"827 1262 OFFCURVE",
"928 1251 OFFCURVE",
"1003 1201 CURVE",
"1086 997 LINE",
"1224 1019 LINE",
"1199 1406 LINE",
"1042 1401 LINE",
"979 1411 OFFCURVE",
"883 1419 OFFCURVE",
"821 1419 CURVE SMOOTH",
"625 1419 OFFCURVE",
"454 1358 OFFCURVE",
"326 1251 CURVE SMOOTH",
"166 1117 OFFCURVE",
"71 911 OFFCURVE",
"71 659 CURVE SMOOTH",
"71 198 OFFCURVE",
"356 -35 OFFCURVE",
"757 -35 CURVE SMOOTH"
);
}
);
width = 1306;
},
{
anchors = (
{
name = bottom;
position = "{714, 0}";
},
{
name = top;
position = "{703, 1384}";
}
);
background = {
anchors = (
{
name = top;
position = "{703, 1384}";
},
{
name = bottom;
position = "{714, 0}";
}
);
paths = (
{
closed = 1;
nodes = (
"923 -35 OFFCURVE",
"1056 34 OFFCURVE",
"1201 173 CURVE",
"1156 242 LINE",
"1109 219 OFFCURVE",
"868 126 OFFCURVE",
"762 126 CURVE SMOOTH",
"640 126 OFFCURVE",
"522 176 OFFCURVE",
"431 294 CURVE SMOOTH",
"351 398 OFFCURVE",
"310 559 OFFCURVE",
"310 705 CURVE SMOOTH",
"310 969 OFFCURVE",
"378 1133 OFFCURVE",
"459 1205 CURVE SMOOTH",
"507 1247 OFFCURVE",
"601 1283 OFFCURVE",
"703 1283 CURVE SMOOTH",
"812 1283 OFFCURVE",
"880 1264 OFFCURVE",
"961 1229 CURVE",
"1055 1021 LINE",
"1151 1044 LINE",
"1113 1410 LINE",
"985 1392 LINE",
"914 1406 OFFCURVE",
"840 1419 OFFCURVE",
"766 1419 CURVE SMOOTH",
"615 1419 OFFCURVE",
"494 1384 OFFCURVE",
"384 1300 CURVE SMOOTH",
"202 1160 OFFCURVE",
"111 904 OFFCURVE",
"111 625 CURVE SMOOTH",
"111 216 OFFCURVE",
"352 -35 OFFCURVE",
"711 -35 CURVE SMOOTH"
);
}
);
};
layerId = UUID0;
name = Regular;
paths = (
{
closed = 1;
nodes = (
"923 -35 OFFCURVE",
"1056 34 OFFCURVE",
"1201 173 CURVE",
"1156 242 LINE",
"1109 219 OFFCURVE",
"868 126 OFFCURVE",
"762 126 CURVE SMOOTH",
"640 126 OFFCURVE",
"522 176 OFFCURVE",
"431 294 CURVE SMOOTH",
"351 398 OFFCURVE",
"310 559 OFFCURVE",
"310 705 CURVE SMOOTH",
"310 969 OFFCURVE",
"378 1133 OFFCURVE",
"459 1205 CURVE SMOOTH",
"507 1247 OFFCURVE",
"601 1283 OFFCURVE",
"703 1283 CURVE SMOOTH",
"812 1283 OFFCURVE",
"880 1264 OFFCURVE",
"961 1229 CURVE",
"1055 1021 LINE",
"1151 1044 LINE",
"1113 1410 LINE",
"985 1392 LINE",
"914 1406 OFFCURVE",
"840 1419 OFFCURVE",
"766 1419 CURVE SMOOTH",
"615 1419 OFFCURVE",
"494 1384 OFFCURVE",
"384 1300 CURVE SMOOTH",
"202 1160 OFFCURVE",
"111 904 OFFCURVE",
"111 625 CURVE SMOOTH",
"111 216 OFFCURVE",
"352 -35 OFFCURVE",
"711 -35 CURVE SMOOTH"
);
}
);
width = 1248;
}
);
leftKerningGroup = O;
rightKerningGroup = C;
unicode = 0043;
},
{
glyphname = D;
lastChange = "2015-03-23 17:17:51 +0000";
layers = (
{
anchors = (
{
name = bottom;
position = "{772, 0}";
},
{
name = center;
position = "{786, 692}";
},
{
name = top;
position = "{716, 1384}";
}
);
background = {
anchors = (
{
name = center;
position = "{786, 692}";
},
{
name = bottom;
position = "{772, 0}";
},
{
name = top;
position = "{716, 1384}";
}
);
paths = (
{
closed = 1;
nodes = (
"53 0 LINE",
"592 0 LINE SMOOTH",
"907 0 OFFCURVE",
"1180 44 OFFCURVE",
"1341 219 CURVE SMOOTH",
"1439 324 OFFCURVE",
"1496 478 OFFCURVE",
"1496 699 CURVE SMOOTH",
"1496 932 OFFCURVE",
"1424 1154 OFFCURVE",
"1204 1282 CURVE SMOOTH",
"1034 1381 OFFCURVE",
"779 1384 OFFCURVE",
"565 1384 CURVE SMOOTH",
"76 1384 LINE",
"59 1303 LINE",
"246 1221 LINE",
"246 164 LINE",
"70 84 LINE"
);
},
{
closed = 1;
nodes = (
"615 1280 LINE",
"735 1262 OFFCURVE",
"854 1216 OFFCURVE",
"926 1156 CURVE SMOOTH",
"1046 1056 OFFCURVE",
"1111 907 OFFCURVE",
"1111 697 CURVE SMOOTH",
"1111 291 OFFCURVE",
"915 154 OFFCURVE",
"615 107 CURVE"
);
}
);
};
layerId = UUID1;
name = Bold;
paths = (
{
closed = 1;
nodes = (
"53 0 LINE",
"592 0 LINE SMOOTH",
"907 0 OFFCURVE",
"1180 44 OFFCURVE",
"1341 219 CURVE SMOOTH",
"1439 324 OFFCURVE",
"1496 478 OFFCURVE",
"1496 699 CURVE SMOOTH",
"1496 932 OFFCURVE",
"1424 1154 OFFCURVE",
"1204 1282 CURVE SMOOTH",
"1034 1381 OFFCURVE",
"779 1384 OFFCURVE",
"565 1384 CURVE SMOOTH",
"76 1384 LINE",
"59 1303 LINE",
"246 1221 LINE",
"246 164 LINE",
"70 84 LINE"
);
},
{
closed = 1;
nodes = (
"615 1280 LINE",
"735 1262 OFFCURVE",
"854 1216 OFFCURVE",
"926 1156 CURVE SMOOTH",
"1046 1056 OFFCURVE",
"1111 907 OFFCURVE",
"1111 697 CURVE SMOOTH",
"1111 291 OFFCURVE",
"915 154 OFFCURVE",
"615 107 CURVE"
);
}
);
width = 1571;
},
{
anchors = (
{
name = bottom;
position = "{674, 0}";
},
{
name = center;
position = "{714, 692}";
},
{
name = top;
position = "{646, 1384}";
}
);
background = {
anchors = (
{
name = center;
position = "{714, 692}";
},
{
name = bottom;
position = "{674, 0}";
},
{
name = top;
position = "{646, 1384}";
}
);
paths = (
{
closed = 1;
nodes = (
"70 0 LINE",
"451 0 LINE",
"702 0 OFFCURVE",
"982 4 OFFCURVE",
"1158 186 CURVE SMOOTH",
"1289 324 OFFCURVE",
"1335 522 OFFCURVE",
"1335 704 CURVE SMOOTH",
"1335 937 OFFCURVE",
"1259 1138 OFFCURVE",
"1069 1266 CURVE SMOOTH",
"921 1365 OFFCURVE",
"714 1384 OFFCURVE",
"531 1384 CURVE SMOOTH",
"92 1384 LINE",
"75 1302 LINE",
"262 1246 LINE",
"262 139 LINE",
"87 85 LINE"
);
},
{
closed = 1;
nodes = (
"454 1301 LINE",
"615 1282 OFFCURVE",
"784 1242 OFFCURVE",
"883 1180 CURVE SMOOTH",
"1049 1076 OFFCURVE",
"1129 915 OFFCURVE",
"1129 697 CURVE SMOOTH",
"1129 278 OFFCURVE",
"920 146 OFFCURVE",
"454 87 CURVE"
);
}
);
};
layerId = UUID0;
name = Regular;
paths = (
{
closed = 1;
nodes = (
"70 0 LINE",
"451 0 LINE",
"702 0 OFFCURVE",
"982 4 OFFCURVE",
"1158 186 CURVE SMOOTH",
"1289 324 OFFCURVE",
"1335 522 OFFCURVE",
"1335 704 CURVE SMOOTH",
"1335 937 OFFCURVE",
"1259 1138 OFFCURVE",
"1069 1266 CURVE SMOOTH",
"921 1365 OFFCURVE",
"714 1384 OFFCURVE",
"531 1384 CURVE SMOOTH",
"92 1384 LINE",
"75 1302 LINE",
"262 1246 LINE",
"262 139 LINE",
"87 85 LINE"
);
},
{
closed = 1;
nodes = (
"454 1301 LINE",
"615 1282 OFFCURVE",
"784 1242 OFFCURVE",
"883 1180 CURVE SMOOTH",
"1049 1076 OFFCURVE",
"1129 915 OFFCURVE",
"1129 697 CURVE SMOOTH",
"1129 278 OFFCURVE",
"920 146 OFFCURVE",
"454 87 CURVE"
);
}
);
width = 1428;
}
);
leftKerningGroup = H;
rightKerningGroup = O;
unicode = 0044;
},
{
glyphname = Eth;
lastChange = "2015-03-23 17:17:51 +0000";
layers = (
{
background = {
components = (
{
name = D;
}
);
paths = (
{
closed = 1;
nodes = (
"907 791 LINE",
"59 791 LINE",
"21 590 LINE",
"866 617 LINE"
);
}
);
};
components = (
{
name = D;
}
);
layerId = UUID1;
name = Bold;
paths = (
{
closed = 1;
nodes = (
"907 791 LINE",
"59 791 LINE",
"21 590 LINE",
"866 617 LINE"
);
}
);
width = 1548;
},
{
background = {
components = (
{
name = D;
transform = "{1, 0, 0, 1, 1, 0}";
}
);
paths = (
{
closed = 1;
nodes = (
"749 757 LINE",
"125 757 LINE",
"94 614 LINE",
"725 636 LINE"
);
}
);
};
components = (
{
name = D;
transform = "{1, 0, 0, 1, 1, 0}";
}
);
layerId = UUID0;
name = Regular;
paths = (
{
closed = 1;
nodes = (
"749 757 LINE",
"125 757 LINE",
"94 614 LINE",
"725 636 LINE"
);
}
);
width = 1429;
}
);
leftKerningGroup = H;
rightKerningGroup = O;
unicode = 00D0;
},
{
glyphname = E;
lastChange = "2015-03-23 17:17:51 +0000";
layers = (
{
anchors = (
{
name = bottom;
position = "{716, 0}";
},
{
name = ogonek;
position = "{1098, 0}";
},
{
name = top;
position = "{686, 1384}";
}
);
background = {
anchors = (
{
name = ogonek;
position = "{1098, 0}";
},
{
name = bottom;
position = "{716, 0}";
},
{
name = top;
position = "{686, 1384}";
}
);
paths = (
{
closed = 1;
nodes = (
"616 659 LINE",
"694 640 OFFCURVE",
"774 629 OFFCURVE",
"854 622 CURVE",
"901 464 LINE",
"1006 447 LINE",
"1023 930 LINE",
"921 950 LINE",
"854 781 LINE",
"773 772 OFFCURVE",
"693 758 OFFCURVE",
"616 741 CURVE",
"616 1296 LINE",
"1039 1227 LINE",
"1133 1020 LINE",
"1274 1046 LINE",
"1235 1397 LINE",
"1090 1384 LINE",
"78 1384 LINE",
"60 1304 LINE",
"247 1221 LINE",
"247 166 LINE",
"64 90 LINE",
"47 0 LINE",
"1269 0 LINE",
"1347 354 LINE",
"1215 371 LINE",
"1094 171 LINE",
"616 99 LINE"
);
}
);
};
layerId = UUID1;
name = Bold;
paths = (
{
closed = 1;
nodes = (
"616 659 LINE",
"694 640 OFFCURVE",
"774 629 OFFCURVE",
"854 622 CURVE",
"901 464 LINE",
"1006 447 LINE",
"1023 930 LINE",
"921 950 LINE",
"854 781 LINE",
"773 772 OFFCURVE",
"693 758 OFFCURVE",
"616 741 CURVE",
"616 1296 LINE",
"1039 1227 LINE",
"1133 1020 LINE",
"1274 1046 LINE",
"1235 1397 LINE",
"1090 1384 LINE",
"78 1384 LINE",
"60 1304 LINE",
"247 1221 LINE",
"247 166 LINE",
"64 90 LINE",
"47 0 LINE",
"1269 0 LINE",
"1347 354 LINE",
"1215 371 LINE",
"1094 171 LINE",
"616 99 LINE"
);
}
);
width = 1384;
},
{
anchors = (
{
name = bottom;
position = "{703, 0}";
},
{
name = ogonek;
position = "{980, 0}";
},
{
name = top;
position = "{623, 1384}";
}
);
background = {
anchors = (
{
name = ogonek;
position = "{980, 0}";
},
{
name = bottom;
position = "{703, 0}";
},
{
name = top;
position = "{623, 1384}";
}
);
paths = (
{
closed = 1;
nodes = (
"454 659 LINE",
"549 642 OFFCURVE",
"647 639 OFFCURVE",
"747 639 CURVE",
"792 480 LINE",
"871 463 LINE",
"889 914 LINE",
"811 935 LINE",
"749 765 LINE",
"650 761 OFFCURVE",
"551 753 OFFCURVE",
"454 741 CURVE",
"454 1296 LINE",
"933 1246 LINE",
"1032 1024 LINE",
"1121 1046 LINE",
"1087 1397 LINE",
"960 1384 LINE",
"95 1384 LINE",
"74 1304 LINE",
"262 1248 LINE",
"262 141 LINE",
"83 85 LINE",
"67 0 LINE",
"1121 0 LINE",
"1200 320 LINE",
"1121 340 LINE",
"997 155 LINE",
"454 99 LINE"
);
}
);
};
layerId = UUID0;
name = Regular;
paths = (
{
closed = 1;
nodes = (
"454 659 LINE",
"549 642 OFFCURVE",
"647 639 OFFCURVE",
"747 639 CURVE",
"792 480 LINE",
"871 463 LINE",
"889 914 LINE",
"811 935 LINE",
"749 765 LINE",
"650 761 OFFCURVE",
"551 753 OFFCURVE",
"454 741 CURVE",
"454 1296 LINE",
"933 1246 LINE",
"1032 1024 LINE",
"1121 1046 LINE",
"1087 1397 LINE",
"960 1384 LINE",
"95 1384 LINE",
"74 1304 LINE",
"262 1248 LINE",
"262 141 LINE",
"83 85 LINE",
"67 0 LINE",
"1121 0 LINE",
"1200 320 LINE",
"1121 340 LINE",
"997 155 LINE",
"454 99 LINE"
);
}
);
width = 1246;
}
);
leftKerningGroup = H;
rightKerningGroup = E;
unicode = 0045;
},
{
glyphname = F;
lastChange = "2015-03-23 17:17:51 +0000";
layers = (
{
anchors = (
{
name = top;
position = "{729, 1384}";
}
);
background = {
anchors = (
{
name = top;
position = "{729, 1384}";
}
);
paths = (
{
closed = 1;
nodes = (
"236 166 LINE",
"57 87 LINE",
"40 0 LINE",
"861 0 LINE",
"900 102 LINE",
"605 157 LINE",
"605 647 LINE",
"691 636 OFFCURVE",
"782 627 OFFCURVE",
"881 622 CURVE",
"927 458 LINE",
"1033 443 LINE",
"1051 928 LINE",
"948 950 LINE",
"881 782 LINE",
"788 770 OFFCURVE",
"696 757 OFFCURVE",
"605 741 CURVE",
"605 1296 LINE",
"1066 1227 LINE",
"1162 1022 LINE",
"1300 1042 LINE",
"1264 1397 LINE",
"1137 1384 LINE",
"67 1384 LINE",
"49 1303 LINE",
"236 1221 LINE"
);
}
);
};
layerId = UUID1;
name = Bold;
paths = (
{
closed = 1;
nodes = (
"236 166 LINE",
"57 87 LINE",
"40 0 LINE",
"861 0 LINE",
"900 102 LINE",
"605 157 LINE",
"605 647 LINE",
"691 636 OFFCURVE",
"782 627 OFFCURVE",
"881 622 CURVE",
"927 458 LINE",
"1033 443 LINE",
"1051 928 LINE",
"948 950 LINE",
"881 782 LINE",
"788 770 OFFCURVE",
"696 757 OFFCURVE",
"605 741 CURVE",
"605 1296 LINE",
"1066 1227 LINE",
"1162 1022 LINE",
"1300 1042 LINE",
"1264 1397 LINE",
"1137 1384 LINE",
"67 1384 LINE",
"49 1303 LINE",
"236 1221 LINE"
);
}
);
width = 1311;
},
{
anchors = (
{
name = top;
position = "{649, 1384}";
}
);
background = {
anchors = (
{
name = top;
position = "{649, 1384}";
}
);
paths = (
{
closed = 1;
nodes = (
"264 141 LINE",
"86 86 LINE",
"69 0 LINE",
"687 0 LINE",
"720 102 LINE",
"456 157 LINE",
"456 657 LINE",
"555 641 OFFCURVE",
"659 636 OFFCURVE",
"765 637 CURVE",
"811 479 LINE",
"888 463 LINE",
"907 913 LINE",
"831 936 LINE",
"767 765 LINE",
"662 762 OFFCURVE",
"559 757 OFFCURVE",
"456 741 CURVE",
"456 1291 LINE",
"951 1246 LINE",
"1048 1024 LINE",
"1138 1044 LINE",
"1105 1397 LINE",
"978 1384 LINE",
"93 1384 LINE",
"76 1301 LINE",
"264 1248 LINE"
);
}
);
};
layerId = UUID0;
name = Regular;
paths = (
{
closed = 1;
nodes = (
"264 141 LINE",
"86 86 LINE",
"69 0 LINE",
"687 0 LINE",
"720 102 LINE",
"456 157 LINE",
"456 657 LINE",
"555 641 OFFCURVE",
"659 636 OFFCURVE",
"765 637 CURVE",
"811 479 LINE",
"888 463 LINE",
"907 913 LINE",
"831 936 LINE",
"767 765 LINE",
"662 762 OFFCURVE",
"559 757 OFFCURVE",
"456 741 CURVE",
"456 1291 LINE",
"951 1246 LINE",
"1048 1024 LINE",
"1138 1044 LINE",
"1105 1397 LINE",
"978 1384 LINE",
"93 1384 LINE",
"76 1301 LINE",
"264 1248 LINE"
);
}
);
width = 1167;
}
);
leftKerningGroup = H;
rightKerningGroup = F;
unicode = 0046;
},
{
glyphname = G;
lastChange = "2015-03-23 17:17:51 +0000";
layers = (
{
anchors = (
{
name = bottom;
position = "{856, 0}";
},
{
name = top;
position = "{796, 1382}";
}
);
background = {
anchors = (
{
name = top;
position = "{796, 1382}";
},
{
name = bottom;
position = "{856, 0}";
}
);
paths = (
{
closed = 1;
nodes = (
"1015 151 LINE",
"976 132 OFFCURVE",
"904 121 OFFCURVE",
"851 121 CURVE SMOOTH",
"770 121 OFFCURVE",
"665 143 OFFCURVE",
"584 241 CURVE SMOOTH",
"508 332 OFFCURVE",
"452 490 OFFCURVE",
"452 722 CURVE SMOOTH",
"452 954 OFFCURVE",
"487 1162 OFFCURVE",
"568 1231 CURVE SMOOTH",
"602 1260 OFFCURVE",
"700 1271 OFFCURVE",
"777 1271 CURVE SMOOTH",
"895 1271 OFFCURVE",
"1030 1236 OFFCURVE",
"1119 1164 CURVE",
"1188 998 LINE",
"1328 1018 LINE",
"1285 1399 LINE",
"1123 1386 LINE",
"1018 1408 OFFCURVE",
"903 1418 OFFCURVE",
"806 1418 CURVE SMOOTH",
"624 1418 OFFCURVE",
"467 1364 OFFCURVE",
"345 1269 CURVE SMOOTH",
"172 1134 OFFCURVE",
"71 916 OFFCURVE",
"71 653 CURVE SMOOTH",
"71 431 OFFCURVE",
"137 264 OFFCURVE",
"254 150 CURVE SMOOTH",
"382 26 OFFCURVE",
"572 -35 OFFCURVE",
"807 -35 CURVE SMOOTH",
"1047 -35 OFFCURVE",
"1279 86 OFFCURVE",
"1377 214 CURVE",
"1378 490 LINE",
"1500 577 LINE",
"1514 666 LINE",
"752 666 LINE",
"737 584 LINE",
"1015 498 LINE"
);
}
);
};
layerId = UUID1;
name = Bold;
paths = (
{
closed = 1;
nodes = (
"1015 151 LINE",
"976 132 OFFCURVE",
"904 121 OFFCURVE",
"851 121 CURVE SMOOTH",
"770 121 OFFCURVE",
"665 143 OFFCURVE",
"584 241 CURVE SMOOTH",
"508 332 OFFCURVE",
"452 490 OFFCURVE",
"452 722 CURVE SMOOTH",
"452 954 OFFCURVE",
"487 1162 OFFCURVE",
"568 1231 CURVE SMOOTH",
"602 1260 OFFCURVE",
"700 1271 OFFCURVE",
"777 1271 CURVE SMOOTH",
"895 1271 OFFCURVE",
"1030 1236 OFFCURVE",
"1119 1164 CURVE",
"1188 998 LINE",
"1328 1018 LINE",
"1285 1399 LINE",
"1123 1386 LINE",
"1018 1408 OFFCURVE",
"903 1418 OFFCURVE",
"806 1418 CURVE SMOOTH",
"624 1418 OFFCURVE",
"467 1364 OFFCURVE",
"345 1269 CURVE SMOOTH",
"172 1134 OFFCURVE",
"71 916 OFFCURVE",
"71 653 CURVE SMOOTH",
"71 431 OFFCURVE",
"137 264 OFFCURVE",
"254 150 CURVE SMOOTH",
"382 26 OFFCURVE",
"572 -35 OFFCURVE",
"807 -35 CURVE SMOOTH",
"1047 -35 OFFCURVE",
"1279 86 OFFCURVE",
"1377 214 CURVE",
"1378 490 LINE",
"1500 577 LINE",
"1514 666 LINE",
"752 666 LINE",
"737 584 LINE",
"1015 498 LINE"
);
}
);
width = 1528;
},
{
anchors = (
{
name = bottom;
position = "{750, 0}";
},
{
name = top;
position = "{750, 1384}";
}
);
background = {
anchors = (
{
name = top;
position = "{750, 1384}";
},
{
name = bottom;
position = "{750, 0}";
}
);
paths = (
{
closed = 1;
nodes = (
"1043 184 LINE",
"987 140 OFFCURVE",
"865 121 OFFCURVE",
"792 121 CURVE SMOOTH",
"677 121 OFFCURVE",
"570 143 OFFCURVE",
"458 243 CURVE SMOOTH",
"336 348 OFFCURVE",
"295 541 OFFCURVE",
"295 684 CURVE SMOOTH",
"295 986 OFFCURVE",
"363 1127 OFFCURVE",
"450 1210 CURVE SMOOTH",
"500 1257 OFFCURVE",
"614 1285 OFFCURVE",
"735 1285 CURVE SMOOTH",
"822 1285 OFFCURVE",
"947 1262 OFFCURVE",
"1005 1227 CURVE",
"1099 1023 LINE",
"1196 1044 LINE",
"1156 1407 LINE",
"1024 1393 LINE",
"955 1409 OFFCURVE",
"860 1419 OFFCURVE",
"777 1419 CURVE SMOOTH",
"622 1419 OFFCURVE",
"463 1376 OFFCURVE",
"360 1289 CURVE SMOOTH",
"142 1108 OFFCURVE",
"89 846 OFFCURVE",
"89 642 CURVE SMOOTH",
"89 443 OFFCURVE",
"155 241 OFFCURVE",
"279 128 CURVE SMOOTH",
"433 -11 OFFCURVE",
"548 -35 OFFCURVE",
"745 -35 CURVE SMOOTH",
"952 -35 OFFCURVE",
"1137 58 OFFCURVE",
"1230 209 CURVE",
"1230 515 LINE",
"1351 576 LINE",
"1366 666 LINE",
"790 666 LINE",
"773 582 LINE",
"1043 523 LINE"
);
}
);
};
layerId = UUID0;
name = Regular;
paths = (
{
closed = 1;
nodes = (
"1043 184 LINE",
"987 140 OFFCURVE",
"865 121 OFFCURVE",
"792 121 CURVE SMOOTH",
"677 121 OFFCURVE",
"570 143 OFFCURVE",
"458 243 CURVE SMOOTH",
"336 348 OFFCURVE",
"295 541 OFFCURVE",
"295 684 CURVE SMOOTH",
"295 986 OFFCURVE",
"363 1127 OFFCURVE",
"450 1210 CURVE SMOOTH",
"500 1257 OFFCURVE",
"614 1285 OFFCURVE",
"735 1285 CURVE SMOOTH",
"822 1285 OFFCURVE",
"947 1262 OFFCURVE",
"1005 1227 CURVE",
"1099 1023 LINE",
"1196 1044 LINE",
"1156 1407 LINE",
"1024 1393 LINE",
"955 1409 OFFCURVE",
"860 1419 OFFCURVE",
"777 1419 CURVE SMOOTH",
"622 1419 OFFCURVE",
"463 1376 OFFCURVE",
"360 1289 CURVE SMOOTH",
"142 1108 OFFCURVE",
"89 846 OFFCURVE",
"89 642 CURVE SMOOTH",
"89 443 OFFCURVE",
"155 241 OFFCURVE",
"279 128 CURVE SMOOTH",
"433 -11 OFFCURVE",
"548 -35 OFFCURVE",
"745 -35 CURVE SMOOTH",
"952 -35 OFFCURVE",
"1137 58 OFFCURVE",
"1230 209 CURVE",
"1230 515 LINE",
"1351 576 LINE",
"1366 666 LINE",
"790 666 LINE",
"773 582 LINE",
"1043 523 LINE"
);
}
);
width = 1400;
}
);
leftKerningGroup = O;
rightKerningGroup = G;
unicode = 0047;
},
{
glyphname = H;
lastChange = "2015-03-23 17:17:51 +0000";
layers = (
{
anchors = (
{
name = bottom;
position = "{870, 0}";
},
{
name = center;
position = "{873, 692}";
},
{
name = top;
position = "{873, 1384}";
}
);
background = {
anchors = (
{
name = center;
position = "{873, 692}";
},
{
name = bottom;
position = "{870, 0}";
},
{
name = top;
position = "{873, 1384}";
}
);
paths = (
{
closed = 1;
nodes = (
"606 589 LINE",
"784 594 OFFCURVE",
"961 600 OFFCURVE",
"1139 610 CURVE",
"1139 166 LINE",
"945 86 LINE",
"928 0 LINE",
"1670 0 LINE",
"1687 80 LINE",
"1499 163 LINE",
"1499 1220 LINE",
"1679 1301 LINE",
"1696 1384 LINE",
"982 1384 LINE",
"965 1304 LINE",
"1139 1221 LINE",
"1139 782 LINE",
"606 782 LINE",
"606 1215 LINE",
"770 1295 LINE",
"789 1384 LINE",
"76 1384 LINE",
"59 1304 LINE",
"246 1221 LINE",
"246 166 LINE",
"68 86 LINE",
"50 0 LINE",
"792 0 LINE",
"812 86 LINE",
"606 168 LINE"
);
}
);
};
layerId = UUID1;
name = Bold;
paths = (
{
closed = 1;
nodes = (
"606 589 LINE",
"784 594 OFFCURVE",
"961 600 OFFCURVE",
"1139 610 CURVE",
"1139 166 LINE",
"945 86 LINE",
"928 0 LINE",
"1670 0 LINE",
"1687 80 LINE",
"1499 163 LINE",
"1499 1220 LINE",
"1679 1301 LINE",
"1696 1384 LINE",
"982 1384 LINE",
"965 1304 LINE",
"1139 1221 LINE",
"1139 782 LINE",
"606 782 LINE",
"606 1215 LINE",
"770 1295 LINE",
"789 1384 LINE",
"76 1384 LINE",
"59 1304 LINE",
"246 1221 LINE",
"246 166 LINE",
"68 86 LINE",
"50 0 LINE",
"792 0 LINE",
"812 86 LINE",
"606 168 LINE"
);
}
);
width = 1745;
},
{
anchors = (
{
name = bottom;
position = "{764, 0}";
},
{
name = center;
position = "{771, 692}";
},
{
name = top;
position = "{771, 1384}";
}
);
background = {
anchors = (
{
name = center;
position = "{771, 692}";
},
{
name = bottom;
position = "{764, 0}";
},
{
name = top;
position = "{771, 1384}";
}
);
paths = (
{
closed = 1;
nodes = (
"455 623 LINE",
"668 628 OFFCURVE",
"878 637 OFFCURVE",
"1087 648 CURVE",
"1087 144 LINE",
"893 90 LINE",
"876 0 LINE",
"1449 0 LINE",
"1469 82 LINE",
"1279 138 LINE",
"1279 1245 LINE",
"1460 1301 LINE",
"1474 1384 LINE",
"902 1384 LINE",
"882 1296 LINE",
"1087 1241 LINE",
"1087 756 LINE",
"455 756 LINE",
"455 1240 LINE",
"648 1293 LINE",
"666 1384 LINE",
"93 1384 LINE",
"76 1302 LINE",
"263 1246 LINE",
"263 139 LINE",
"83 84 LINE",
"70 0 LINE",
"642 0 LINE",
"662 88 LINE",
"455 143 LINE"
);
}
);
};
layerId = UUID0;
name = Regular;
paths = (
{
closed = 1;
nodes = (
"455 623 LINE",
"668 628 OFFCURVE",
"878 637 OFFCURVE",
"1087 648 CURVE",
"1087 144 LINE",
"893 90 LINE",
"876 0 LINE",
"1449 0 LINE",
"1469 82 LINE",
"1279 138 LINE",
"1279 1245 LINE",
"1460 1301 LINE",
"1474 1384 LINE",
"902 1384 LINE",
"882 1296 LINE",
"1087 1241 LINE",
"1087 756 LINE",
"455 756 LINE",
"455 1240 LINE",
"648 1293 LINE",
"666 1384 LINE",
"93 1384 LINE",
"76 1302 LINE",
"263 1246 LINE",
"263 139 LINE",
"83 84 LINE",
"70 0 LINE",
"642 0 LINE",
"662 88 LINE",
"455 143 LINE"
);
}
);
width = 1542;
}
);
leftKerningGroup = H;
rightKerningGroup = H;
unicode = 0048;
},
{
glyphname = I;
lastChange = "2015-03-23 17:17:51 +0000";
layers = (
{
anchors = (
{
name = bottom;
position = "{431, 0}";
},
{
name = ogonek;
position = "{841, 10}";
},
{
name = top;
position = "{431, 1384}";
}
);
background = {
anchors = (
{
name = ogonek;
position = "{841, 10}";
},
{
name = bottom;
position = "{431, 0}";
},
{
name = top;
position = "{431, 1384}";
}
);
paths = (
{
closed = 1;
nodes = (
"51 0 LINE",
"789 0 LINE",
"806 81 LINE",
"615 165 LINE",
"615 1219 LINE",
"797 1301 LINE",
"812 1384 LINE",
"76 1384 LINE",
"59 1303 LINE",
"246 1221 LINE",
"246 165 LINE",
"69 85 LINE"
);
}
);
};
layerId = UUID1;
name = Bold;
paths = (
{
closed = 1;
nodes = (
"51 0 LINE",
"789 0 LINE",
"806 81 LINE",
"615 165 LINE",
"615 1219 LINE",
"797 1301 LINE",
"812 1384 LINE",
"76 1384 LINE",
"59 1303 LINE",
"246 1221 LINE",
"246 165 LINE",
"69 85 LINE"
);
}
);
width = 864;
},
{
anchors = (
{
name = bottom;
position = "{359, 0}";
},
{
name = ogonek;
position = "{518, 10}";
},
{
name = top;
position = "{360, 1384}";
}
);
background = {
anchors = (
{
name = ogonek;
position = "{518, 10}";
},
{
name = bottom;
position = "{359, 0}";
},
{
name = top;
position = "{360, 1384}";
}
);
paths = (
{
closed = 1;
nodes = (
"68 0 LINE",
"628 0 LINE",
"648 84 LINE",
"455 140 LINE",
"455 1244 LINE",
"636 1299 LINE",
"652 1384 LINE",
"92 1384 LINE",
"75 1301 LINE",
"263 1246 LINE",
"263 140 LINE",
"85 87 LINE"
);
}
);
};
layerId = UUID0;
name = Regular;
paths = (
{
closed = 1;
nodes = (
"68 0 LINE",
"628 0 LINE",
"648 84 LINE",
"455 140 LINE",
"455 1244 LINE",
"636 1299 LINE",
"652 1384 LINE",
"92 1384 LINE",
"75 1301 LINE",
"263 1246 LINE",
"263 140 LINE",
"85 87 LINE"
);
}
);
width = 720;
}
);
leftKerningGroup = H;
rightKerningGroup = H;
unicode = 0049;
},
{
glyphname = Iogonek;
lastChange = "2015-03-23 17:17:51 +0000";
layers = (
{
background = {
paths = (
{
closed = 1;
nodes = (
"53 0 LINE",
"496 0 LINE",
"370 -43 OFFCURVE",
"210 -132 OFFCURVE",
"210 -277 CURVE SMOOTH",
"210 -440 OFFCURVE",
"343 -504 OFFCURVE",
"473 -504 CURVE SMOOTH",
"634 -504 OFFCURVE",
"733 -404 OFFCURVE",
"783 -353 CURVE",
"754 -305 LINE",
"698 -337 OFFCURVE",
"618 -355 OFFCURVE",
"578 -355 CURVE SMOOTH",
"566 -355 OFFCURVE",
"554 -352 OFFCURVE",
"544 -347 CURVE SMOOTH",
"503 -327 OFFCURVE",
"479 -273 OFFCURVE",
"479 -226 CURVE SMOOTH",
"479 -159 OFFCURVE",
"612 0 OFFCURVE",
"789 0 CURVE",
"806 84 LINE",
"615 165 LINE",
"615 1219 LINE",
"795 1300 LINE",
"813 1384 LINE",
"77 1384 LINE",
"59 1304 LINE",
"246 1221 LINE",
"246 165 LINE",
"67 87 LINE"
);
}
);
};
layerId = UUID1;
name = Bold;
paths = (
{
closed = 1;
nodes = (
"53 0 LINE",
"496 0 LINE",
"370 -43 OFFCURVE",
"210 -132 OFFCURVE",
"210 -277 CURVE SMOOTH",
"210 -440 OFFCURVE",
"343 -504 OFFCURVE",
"473 -504 CURVE SMOOTH",
"634 -504 OFFCURVE",
"733 -404 OFFCURVE",
"783 -353 CURVE",
"754 -305 LINE",
"698 -337 OFFCURVE",
"618 -355 OFFCURVE",
"578 -355 CURVE SMOOTH",
"566 -355 OFFCURVE",
"554 -352 OFFCURVE",
"544 -347 CURVE SMOOTH",
"503 -327 OFFCURVE",
"479 -273 OFFCURVE",
"479 -226 CURVE SMOOTH",
"479 -159 OFFCURVE",
"612 0 OFFCURVE",
"789 0 CURVE",
"806 84 LINE",
"615 165 LINE",
"615 1219 LINE",
"795 1300 LINE",
"813 1384 LINE",
"77 1384 LINE",
"59 1304 LINE",
"246 1221 LINE",
"246 165 LINE",
"67 87 LINE"
);
}
);
width = 864;
},
{
background = {
paths = (
{
closed = 1;
nodes = (
"69 0 LINE",
"456 0 LINE",
"338 -70 OFFCURVE",
"212 -141 OFFCURVE",
"212 -287 CURVE",
"212 -409 OFFCURVE",
"309 -476 OFFCURVE",
"415 -476 CURVE",
"509 -476 OFFCURVE",
"584 -413 OFFCURVE",
"656 -355 CURVE",
"632 -317 LINE",
"574 -339 OFFCURVE",
"514 -356 OFFCURVE",
"477 -356 CURVE",
"465 -356 OFFCURVE",
"451 -353 OFFCURVE",
"443 -350 CURVE",
"394 -331 OFFCURVE",
"359 -281 OFFCURVE",
"359 -242 CURVE",
"359 -194 OFFCURVE",
"452 -68 OFFCURVE",
"629 0 CURVE",
"647 81 LINE",
"455 138 LINE",
"455 1245 LINE",
"636 1299 LINE",
"652 1384 LINE",
"92 1384 LINE",
"76 1303 LINE",
"263 1246 LINE",
"263 139 LINE",
"85 86 LINE"
);
}
);
};
layerId = UUID0;
name = Regular;
paths = (
{
closed = 1;
nodes = (
"69 0 LINE",
"456 0 LINE",
"338 -70 OFFCURVE",
"212 -141 OFFCURVE",
"212 -287 CURVE",
"212 -409 OFFCURVE",
"309 -476 OFFCURVE",
"415 -476 CURVE",
"509 -476 OFFCURVE",
"584 -413 OFFCURVE",
"656 -355 CURVE",
"632 -317 LINE",
"574 -339 OFFCURVE",
"514 -356 OFFCURVE",
"477 -356 CURVE",
"465 -356 OFFCURVE",
"451 -353 OFFCURVE",
"443 -350 CURVE",
"394 -331 OFFCURVE",
"359 -281 OFFCURVE",
"359 -242 CURVE",
"359 -194 OFFCURVE",
"452 -68 OFFCURVE",
"629 0 CURVE",
"647 81 LINE",
"455 138 LINE",
"455 1245 LINE",
"636 1299 LINE",
"652 1384 LINE",
"92 1384 LINE",
"76 1303 LINE",
"263 1246 LINE",
"263 139 LINE",
"85 86 LINE"
);
}
);
width = 720;
}
);
leftKerningGroup = H;
leftMetricsKey = "=I";
rightKerningGroup = H;
rightMetricsKey = "=I";
unicode = 012E;
},
{
glyphname = J;
lastChange = "2015-03-23 17:17:51 +0000";
layers = (
{
anchors = (
{
name = top;
position = "{411, 1384}";
}
);
background = {
anchors = (
{
name = top;
position = "{411, 1384}";
}
);
paths = (
{
closed = 1;
nodes = (
"240 175 LINE",
"240 121 OFFCURVE",
"119 -183 OFFCURVE",
"74 -283 CURVE",
"133 -330 LINE",
"508 -157 OFFCURVE",
"609 82 OFFCURVE",
"609 475 CURVE SMOOTH",
"609 1220 LINE",
"777 1300 LINE",
"793 1384 LINE",
"45 1384 LINE",
"29 1303 LINE",
"240 1221 LINE"
);
}
);
};
layerId = UUID1;
name = Bold;
paths = (
{
closed = 1;
nodes = (
"240 175 LINE",
"240 121 OFFCURVE",
"119 -183 OFFCURVE",
"74 -283 CURVE",
"133 -330 LINE",
"508 -157 OFFCURVE",
"609 82 OFFCURVE",
"609 475 CURVE SMOOTH",
"609 1220 LINE",
"777 1300 LINE",
"793 1384 LINE",
"45 1384 LINE",
"29 1303 LINE",
"240 1221 LINE"
);
}
);
width = 824;
},
{
anchors = (
{
name = top;
position = "{344, 1384}";
}
);
background = {
anchors = (
{
name = top;
position = "{344, 1384}";
}
);
paths = (
{
closed = 1;
nodes = (
"258 175 LINE",
"258 121 OFFCURVE",
"137 -180 OFFCURVE",
"88 -284 CURVE",
"155 -332 LINE",
"411 -30 OFFCURVE",
"450 43 OFFCURVE",
"450 424 CURVE SMOOTH",
"450 1245 LINE",
"618 1299 LINE",
"633 1384 LINE",
"64 1384 LINE",
"46 1301 LINE",
"258 1246 LINE"
);
}
);
};
layerId = UUID0;
name = Regular;
paths = (
{
closed = 1;
nodes = (
"258 175 LINE",
"258 121 OFFCURVE",
"137 -180 OFFCURVE",
"88 -284 CURVE",
"155 -332 LINE",
"411 -30 OFFCURVE",
"450 43 OFFCURVE",
"450 424 CURVE SMOOTH",
"450 1245 LINE",
"618 1299 LINE",
"633 1384 LINE",
"64 1384 LINE",
"46 1301 LINE",
"258 1246 LINE"
);
}
);
width = 687;
}
);
leftKerningGroup = J;
rightKerningGroup = J;
unicode = 004A;
},
{
glyphname = K;
lastChange = "2015-03-23 17:17:51 +0000";
layers = (
{
anchors = (
{
name = bottom;
position = "{805, 0}";
},
{
name = top;
position = "{833, 1384}";
}
);
background = {
anchors = (
{
name = top;
position = "{833, 1384}";
},
{
name = bottom;
position = "{805, 0}";
}
);
paths = (
{
closed = 1;
nodes = (
"52 0 LINE",
"790 0 LINE",
"808 81 LINE",
"616 165 LINE",
"616 1216 LINE",
"759 1297 LINE",
"776 1384 LINE",
"77 1384 LINE",
"59 1304 LINE",
"247 1221 LINE",
"247 165 LINE",
"68 86 LINE"
);
},
{
closed = 1;
nodes = (
"1396 1226 LINE",
"1581 1297 LINE",
"1600 1384 LINE",
"941 1384 LINE",
"922 1308 LINE",
"1046 1226 LINE",
"686 701 LINE",
"1034 87 LINE",
"1015 0 LINE",
"1601 0 LINE",
"1619 82 LINE",
"1430 162 LINE",
"1055 751 LINE"
);
}
);
};
layerId = UUID1;
name = Bold;
paths = (
{
closed = 1;
nodes = (
"52 0 LINE",
"790 0 LINE",
"808 81 LINE",
"616 165 LINE",
"616 1216 LINE",
"759 1297 LINE",
"776 1384 LINE",
"77 1384 LINE",
"59 1304 LINE",
"247 1221 LINE",
"247 165 LINE",
"68 86 LINE"
);
},
{
closed = 1;
nodes = (
"1396 1226 LINE",
"1581 1297 LINE",
"1600 1384 LINE",
"941 1384 LINE",
"922 1308 LINE",
"1046 1226 LINE",
"686 701 LINE",
"1034 87 LINE",
"1015 0 LINE",
"1601 0 LINE",
"1619 82 LINE",
"1430 162 LINE",
"1055 751 LINE"
);
}
);
width = 1614;
},
{
anchors = (
{
name = bottom;
position = "{705, 0}";
},
{
name = top;
position = "{705, 1384}";
}
);
background = {
anchors = (
{
name = top;
position = "{705, 1384}";
},
{
name = bottom;
position = "{705, 0}";
}
);
paths = (
{
closed = 1;
nodes = (
"70 0 LINE",
"641 0 LINE",
"662 95 LINE",
"454 151 LINE",
"454 1245 LINE",
"639 1298 LINE",
"654 1384 LINE",
"94 1384 LINE",
"76 1303 LINE",
"262 1246 LINE",
"262 139 LINE",
"86 85 LINE"
);
},
{
closed = 1;
nodes = (
"1202 1243 LINE",
"1364 1297 LINE",
"1382 1384 LINE",
"842 1384 LINE",
"824 1303 LINE",
"1019 1246 LINE",
"521 703 LINE",
"1002 71 LINE",
"989 0 LINE",
"1385 0 LINE",
"1403 81 LINE",
"1213 146 LINE",
"725 751 LINE"
);
}
);
};
layerId = UUID0;
name = Regular;
paths = (
{
closed = 1;
nodes = (
"70 0 LINE",
"641 0 LINE",
"662 95 LINE",
"454 151 LINE",
"454 1245 LINE",
"639 1298 LINE",
"654 1384 LINE",
"94 1384 LINE",
"76 1303 LINE",
"262 1246 LINE",
"262 139 LINE",
"86 85 LINE"
);
},
{
closed = 1;
nodes = (
"1202 1243 LINE",
"1364 1297 LINE",
"1382 1384 LINE",
"842 1384 LINE",
"824 1303 LINE",
"1019 1246 LINE",
"521 703 LINE",
"1002 71 LINE",
"989 0 LINE",
"1385 0 LINE",
"1403 81 LINE",
"1213 146 LINE",
"725 751 LINE"
);
}
);
width = 1409;
}
);
leftKerningGroup = H;
rightKerningGroup = K;
unicode = 004B;
},
{
glyphname = L;
lastChange = "2015-03-23 17:17:51 +0000";
layers = (
{
anchors = (
{
name = bottom;
position = "{647, 0}";
},
{
name = top;
position = "{452, 1384}";
},
{
name = topright;
position = "{842, 1384}";
}
);
background = {
anchors = (
{
name = top;
position = "{452, 1384}";
},
{
name = bottom;
position = "{647, 0}";
},
{
name = topright;
position = "{842, 1384}";
}
);
paths = (
{
closed = 1;
nodes = (
"616 100 LINE",
"616 1218 LINE",
"805 1299 LINE",
"821 1384 LINE",
"77 1384 LINE",
"59 1303 LINE",
"247 1221 LINE",
"247 166 LINE",
"68 85 LINE",
"52 0 LINE",
"1208 0 LINE",
"1290 354 LINE",
"1156 370 LINE",
"1035 172 LINE"
);
}
);
};
layerId = UUID1;
name = Bold;
paths = (
{
closed = 1;
nodes = (
"616 100 LINE",
"616 1218 LINE",
"805 1299 LINE",
"821 1384 LINE",
"77 1384 LINE",
"59 1303 LINE",
"247 1221 LINE",
"247 166 LINE",
"68 85 LINE",
"52 0 LINE",
"1208 0 LINE",
"1290 354 LINE",
"1156 370 LINE",
"1035 172 LINE"
);
}
);
width = 1280;
},
{
anchors = (
{
name = bottom;
position = "{596, 0}";
},
{
name = top;
position = "{376, 1384}";
},
{
name = topright;
position = "{760, 1384}";
}
);
background = {
anchors = (
{
name = top;
position = "{376, 1384}";
},
{
name = bottom;
position = "{596, 0}";
},
{
name = topright;
position = "{760, 1384}";
}
);
paths = (
{
closed = 1;
nodes = (
"455 100 LINE",
"455 1243 LINE",
"642 1298 LINE",
"658 1384 LINE",
"93 1384 LINE",
"76 1300 LINE",
"263 1248 LINE",
"263 141 LINE",
"84 86 LINE",
"69 0 LINE",
"1113 0 LINE",
"1186 322 LINE",
"1110 342 LINE",
"980 155 LINE"
);
}
);
};
layerId = UUID0;
name = Regular;
paths = (
{
closed = 1;
nodes = (
"455 100 LINE",
"455 1243 LINE",
"642 1298 LINE",
"658 1384 LINE",
"93 1384 LINE",
"76 1300 LINE",
"263 1248 LINE",
"263 141 LINE",
"84 86 LINE",
"69 0 LINE",
"1113 0 LINE",
"1186 322 LINE",
"1110 342 LINE",
"980 155 LINE"
);
}
);
width = 1191;
}
);
leftKerningGroup = H;
rightKerningGroup = L;
unicode = 004C;
},
{
glyphname = Lslash;
lastChange = "2015-03-23 17:17:51 +0000";
layers = (
{
background = {
components = (
{
name = L;
}
);
paths = (
{
closed = 1;
nodes = (
"1045 1092 LINE",
"-23 613 LINE",
"22 399 LINE",
"1089 898 LINE"
);
}
);
};
components = (
{
name = L;
}
);
layerId = UUID1;
name = Bold;
paths = (
{
closed = 1;
nodes = (
"1045 1092 LINE",
"-23 613 LINE",
"22 399 LINE",
"1089 898 LINE"
);
}
);
width = 1280;
},
{
background = {
components = (
{
name = L;
}
);
paths = (
{
closed = 1;
nodes = (
"947 1018 LINE",
"48 616 LINE",
"76 486 LINE",
"978 895 LINE"
);
}
);
};
components = (
{
name = L;
}
);
layerId = UUID0;
name = Regular;
paths = (
{
closed = 1;
nodes = (
"947 1018 LINE",
"48 616 LINE",
"76 486 LINE",
"978 895 LINE"
);
}
);
width = 1191;
}
);
leftKerningGroup = H;
rightKerningGroup = L;
unicode = 0141;
},
{
glyphname = M;
lastChange = "2015-03-23 17:17:51 +0000";
layers = (
{
anchors = (
{
name = bottom;
position = "{986, 0}";
},
{
name = top;
position = "{1032, 1384}";
}
);
background = {
anchors = (
{
name = top;
position = "{1032, 1384}";
},
{
name = bottom;
position = "{986, 0}";
}
);
paths = (
{
closed = 1;
nodes = (
"245 164 LINE",
"70 84 LINE",
"54 0 LINE",
"610 0 LINE",
"626 81 LINE",
"448 163 LINE",
"445 490 OFFCURVE",
"445 816 OFFCURVE",
"402 1143 CURVE",
"825 -15 LINE",
"1137 25 LINE",
"1283 400 OFFCURVE",
"1419 774 OFFCURVE",
"1519 1149 CURVE",
"1519 164 LINE",
"1342 84 LINE",
"1326 0 LINE",
"2052 0 LINE",
"2070 82 LINE",
"1879 163 LINE",
"1879 1210 LINE",
"2059 1291 LINE",
"2075 1384 LINE",
"1458 1384 LINE",
"1070 326 LINE",
"647 1384 LINE",
"80 1384 LINE",
"62 1303 LINE",
"245 1221 LINE"
);
}
);
};
layerId = UUID1;
name = Bold;
paths = (
{
closed = 1;
nodes = (
"245 164 LINE",
"70 84 LINE",
"54 0 LINE",
"610 0 LINE",
"626 81 LINE",
"448 163 LINE",
"445 490 OFFCURVE",
"445 816 OFFCURVE",
"402 1143 CURVE",
"825 -15 LINE",
"1137 25 LINE",
"1283 400 OFFCURVE",
"1419 774 OFFCURVE",
"1519 1149 CURVE",
"1519 164 LINE",
"1342 84 LINE",
"1326 0 LINE",
"2052 0 LINE",
"2070 82 LINE",
"1879 163 LINE",
"1879 1210 LINE",
"2059 1291 LINE",
"2075 1384 LINE",
"1458 1384 LINE",
"1070 326 LINE",
"647 1384 LINE",
"80 1384 LINE",
"62 1303 LINE",
"245 1221 LINE"
);
}
);
width = 2127;
},
{
anchors = (
{
name = bottom;
position = "{930, 0}";
},
{
name = top;
position = "{929, 1384}";
}
);
background = {
anchors = (
{
name = top;
position = "{929, 1384}";
},
{
name = bottom;
position = "{930, 0}";
}
);
paths = (
{
closed = 1;
nodes = (
"262 139 LINE",
"89 87 LINE",
"71 0 LINE",
"574 0 LINE",
"591 84 LINE",
"398 138 LINE",
"398 473 OFFCURVE",
"398 942 OFFCURVE",
"372 1143 CURVE",
"847 -15 LINE",
"989 25 LINE",
"1148 405 OFFCURVE",
"1298 781 OFFCURVE",
"1426 1149 CURVE",
"1426 139 LINE",
"1249 85 LINE",
"1233 0 LINE",
"1790 0 LINE",
"1808 83 LINE",
"1618 138 LINE",
"1618 1235 LINE",
"1797 1289 LINE",
"1814 1384 LINE",
"1424 1384 LINE",
"959 248 LINE",
"458 1384 LINE",
"97 1384 LINE",
"78 1291 LINE",
"262 1236 LINE"
);
}
);
};
layerId = UUID0;
name = Regular;
paths = (
{
closed = 1;
nodes = (
"262 139 LINE",
"89 87 LINE",
"71 0 LINE",
"574 0 LINE",
"591 84 LINE",
"398 138 LINE",
"398 473 OFFCURVE",
"398 942 OFFCURVE",
"372 1143 CURVE",
"847 -15 LINE",
"989 25 LINE",
"1148 405 OFFCURVE",
"1298 781 OFFCURVE",
"1426 1149 CURVE",
"1426 139 LINE",
"1249 85 LINE",
"1233 0 LINE",
"1790 0 LINE",
"1808 83 LINE",
"1618 138 LINE",
"1618 1235 LINE",
"1797 1289 LINE",
"1814 1384 LINE",
"1424 1384 LINE",
"959 248 LINE",
"458 1384 LINE",
"97 1384 LINE",
"78 1291 LINE",
"262 1236 LINE"
);
}
);
width = 1883;
}
);
leftKerningGroup = M;
rightKerningGroup = M;
unicode = 004D;
},
{
glyphname = N;
lastChange = "2015-03-23 17:17:51 +0000";
layers = (
{
anchors = (
{
name = bottom;
position = "{806, 0}";
},
{
name = top;
position = "{782, 1384}";
}
);
background = {
anchors = (
{
name = top;
position = "{782, 1384}";
},
{
name = bottom;
position = "{806, 0}";
}
);
paths = (
{
closed = 1;
nodes = (
"58 0 LINE",
"639 0 LINE",
"657 81 LINE",
"448 163 LINE",
"448 452 OFFCURVE",
"448 740 OFFCURVE",
"409 1029 CURVE",
"1058 -25 LINE",
"1381 15 LINE",
"1381 1220 LINE",
"1549 1300 LINE",
"1565 1384 LINE",
"989 1384 LINE",
"973 1301 LINE",
"1175 1221 LINE",
"1175 937 OFFCURVE",
"1175 653 OFFCURVE",
"1213 369 CURVE",
"584 1384 LINE",
"75 1384 LINE",
"58 1302 LINE",
"245 1221 LINE",
"245 164 LINE",
"73 83 LINE"
);
}
);
};
layerId = UUID1;
name = Bold;
paths = (
{
closed = 1;
nodes = (
"58 0 LINE",
"639 0 LINE",
"657 81 LINE",
"448 163 LINE",
"448 452 OFFCURVE",
"448 740 OFFCURVE",
"409 1029 CURVE",
"1058 -25 LINE",
"1381 15 LINE",
"1381 1220 LINE",
"1549 1300 LINE",
"1565 1384 LINE",
"989 1384 LINE",
"973 1301 LINE",
"1175 1221 LINE",
"1175 937 OFFCURVE",
"1175 653 OFFCURVE",
"1213 369 CURVE",
"584 1384 LINE",
"75 1384 LINE",
"58 1302 LINE",
"245 1221 LINE",
"245 164 LINE",
"73 83 LINE"
);
}
);
width = 1601;
},
{
anchors = (
{
name = bottom;
position = "{763, 0}";
},
{
name = top;
position = "{763, 1384}";
}
);
background = {
anchors = (
{
name = top;
position = "{763, 1384}";
},
{
name = bottom;
position = "{763, 0}";
}
);
paths = (
{
closed = 1;
nodes = (
"75 0 LINE",
"589 0 LINE",
"607 84 LINE",
"402 138 LINE",
"402 458 OFFCURVE",
"402 779 OFFCURVE",
"378 1099 CURVE",
"1143 -25 LINE",
"1287 15 LINE",
"1287 1245 LINE",
"1456 1300 LINE",
"1471 1384 LINE",
"960 1384 LINE",
"943 1301 LINE",
"1147 1247 LINE",
"1147 931 OFFCURVE",
"1147 615 OFFCURVE",
"1166 299 CURVE",
"416 1384 LINE",
"93 1384 LINE",
"74 1301 LINE",
"262 1246 LINE",
"262 139 LINE",
"92 86 LINE"
);
}
);
};
layerId = UUID0;
name = Regular;
paths = (
{
closed = 1;
nodes = (
"75 0 LINE",
"589 0 LINE",
"607 84 LINE",
"402 138 LINE",
"402 458 OFFCURVE",
"402 779 OFFCURVE",
"378 1099 CURVE",
"1143 -25 LINE",
"1287 15 LINE",
"1287 1245 LINE",
"1456 1300 LINE",
"1471 1384 LINE",
"960 1384 LINE",
"943 1301 LINE",
"1147 1247 LINE",
"1147 931 OFFCURVE",
"1147 615 OFFCURVE",
"1166 299 CURVE",
"416 1384 LINE",
"93 1384 LINE",
"74 1301 LINE",
"262 1246 LINE",
"262 139 LINE",
"92 86 LINE"
);
}
);
width = 1525;
}
);
leftKerningGroup = H;
rightKerningGroup = H;
unicode = 004E;
},
{
glyphname = O;
lastChange = "2015-03-23 17:17:51 +0000";
layers = (
{
anchors = (
{
name = bottom;
position = "{770, 0}";
},
{
name = top;
position = "{783, 1384}";
}
);
background = {
anchors = (
{
name = top;
position = "{783, 1384}";
},
{
name = bottom;
position = "{770, 0}";
}
);
paths = (
{
closed = 1;
nodes = (
"69 211 OFFCURVE",
"366 -35 OFFCURVE",
"745 -35 CURVE SMOOTH",
"1198 -35 OFFCURVE",
"1473 335 OFFCURVE",
"1473 762 CURVE SMOOTH",
"1473 1173 OFFCURVE",
"1171 1419 OFFCURVE",
"816 1419 CURVE SMOOTH",
"325 1419 OFFCURVE",
"69 1041 OFFCURVE",
"69 623 CURVE SMOOTH"
);
},
{
closed = 1;
nodes = (
"461 412 OFFCURVE",
"452 579 OFFCURVE",
"452 767 CURVE SMOOTH",
"452 901 OFFCURVE",
"474 1145 OFFCURVE",
"550 1219 CURVE SMOOTH",
"587 1256 OFFCURVE",
"651 1258 OFFCURVE",
"700 1258 CURVE SMOOTH",
"852 1258 OFFCURVE",
"994 1151 OFFCURVE",
"1050 986 CURVE SMOOTH",
"1084 884 OFFCURVE",
"1090 781 OFFCURVE",
"1090 618 CURVE SMOOTH",
"1090 488 OFFCURVE",
"1065 260 OFFCURVE",
"1011 188 CURVE SMOOTH",
"975 140 OFFCURVE",
"897 126 OFFCURVE",
"840 126 CURVE SMOOTH",
"721 126 OFFCURVE",
"616 184 OFFCURVE",
"548 284 CURVE SMOOTH"
);
}
);
};
layerId = UUID1;
name = Bold;
paths = (
{
closed = 1;
nodes = (
"69 211 OFFCURVE",
"366 -35 OFFCURVE",
"745 -35 CURVE SMOOTH",
"1198 -35 OFFCURVE",
"1473 335 OFFCURVE",
"1473 762 CURVE SMOOTH",
"1473 1173 OFFCURVE",
"1171 1419 OFFCURVE",
"816 1419 CURVE SMOOTH",
"325 1419 OFFCURVE",
"69 1041 OFFCURVE",
"69 623 CURVE SMOOTH"
);
},
{
closed = 1;
nodes = (
"461 412 OFFCURVE",
"452 579 OFFCURVE",
"452 767 CURVE SMOOTH",
"452 901 OFFCURVE",
"474 1145 OFFCURVE",
"550 1219 CURVE SMOOTH",
"587 1256 OFFCURVE",
"651 1258 OFFCURVE",
"700 1258 CURVE SMOOTH",
"852 1258 OFFCURVE",
"994 1151 OFFCURVE",
"1050 986 CURVE SMOOTH",
"1084 884 OFFCURVE",
"1090 781 OFFCURVE",
"1090 618 CURVE SMOOTH",
"1090 488 OFFCURVE",
"1065 260 OFFCURVE",
"1011 188 CURVE SMOOTH",
"975 140 OFFCURVE",
"897 126 OFFCURVE",
"840 126 CURVE SMOOTH",
"721 126 OFFCURVE",
"616 184 OFFCURVE",
"548 284 CURVE SMOOTH"
);
}
);
width = 1542;
},
{
anchors = (
{
name = bottom;
position = "{700, 0}";
},
{
name = top;
position = "{705, 1384}";
}
);
background = {
anchors = (
{
name = top;
position = "{705, 1384}";
},
{
name = bottom;
position = "{700, 0}";
}
);
paths = (
{
closed = 1;
nodes = (
"90 211 OFFCURVE",
"345 -35 OFFCURVE",
"672 -35 CURVE SMOOTH",
"1079 -35 OFFCURVE",
"1316 335 OFFCURVE",
"1316 762 CURVE SMOOTH",
"1316 1173 OFFCURVE",
"1052 1419 OFFCURVE",
"743 1419 CURVE SMOOTH",
"313 1419 OFFCURVE",
"90 1041 OFFCURVE",
"90 623 CURVE SMOOTH"
);
},
{
closed = 1;
nodes = (
"313 415 OFFCURVE",
"295 597 OFFCURVE",
"295 765 CURVE SMOOTH",
"295 885 OFFCURVE",
"328 1094 OFFCURVE",
"411 1176 CURVE SMOOTH",
"475 1237 OFFCURVE",
"571 1261 OFFCURVE",
"651 1261 CURVE SMOOTH",
"823 1261 OFFCURVE",
"990 1150 OFFCURVE",
"1060 982 CURVE SMOOTH",
"1103 880 OFFCURVE",
"1111 765 OFFCURVE",
"1111 616 CURVE SMOOTH",
"1111 496 OFFCURVE",
"1078 298 OFFCURVE",
"1000 213 CURVE SMOOTH",
"937 146 OFFCURVE",
"843 123 OFFCURVE",
"760 123 CURVE SMOOTH",
"624 123 OFFCURVE",
"495 188 OFFCURVE",
"414 289 CURVE SMOOTH"
);
}
);
};
layerId = UUID0;
name = Regular;
paths = (
{
closed = 1;
nodes = (
"90 211 OFFCURVE",
"345 -35 OFFCURVE",
"672 -35 CURVE SMOOTH",
"1079 -35 OFFCURVE",
"1316 335 OFFCURVE",
"1316 762 CURVE SMOOTH",
"1316 1173 OFFCURVE",
"1052 1419 OFFCURVE",
"743 1419 CURVE SMOOTH",
"313 1419 OFFCURVE",
"90 1041 OFFCURVE",
"90 623 CURVE SMOOTH"
);
},
{
closed = 1;
nodes = (
"313 415 OFFCURVE",
"295 597 OFFCURVE",
"295 765 CURVE SMOOTH",
"295 885 OFFCURVE",
"328 1094 OFFCURVE",
"411 1176 CURVE SMOOTH",
"475 1237 OFFCURVE",
"571 1261 OFFCURVE",
"651 1261 CURVE SMOOTH",
"823 1261 OFFCURVE",
"990 1150 OFFCURVE",
"1060 982 CURVE SMOOTH",
"1103 880 OFFCURVE",
"1111 765 OFFCURVE",
"1111 616 CURVE SMOOTH",
"1111 496 OFFCURVE",
"1078 298 OFFCURVE",
"1000 213 CURVE SMOOTH",
"937 146 OFFCURVE",
"843 123 OFFCURVE",
"760 123 CURVE SMOOTH",
"624 123 OFFCURVE",
"495 188 OFFCURVE",
"414 289 CURVE SMOOTH"
);
}
);
width = 1405;
}
);
leftKerningGroup = O;
rightKerningGroup = O;
unicode = 004F;
},
{
glyphname = Oslash;
lastChange = "2015-03-23 17:17:51 +0000";
layers = (
{
anchors = (
{
name = top;
position = "{698, 1384}";
}
);
background = {
anchors = (
{
name = top;
position = "{698, 1384}";
}
);
paths = (
{
closed = 1;
nodes = (
"548 -190 LINE",
"1265 1475 LINE",
"1037 1523 LINE",
"318 -145 LINE"
);
},
{
closed = 1;
nodes = (
"69 211 OFFCURVE",
"366 -35 OFFCURVE",
"745 -35 CURVE SMOOTH",
"1198 -35 OFFCURVE",
"1473 335 OFFCURVE",
"1473 762 CURVE SMOOTH",
"1473 1173 OFFCURVE",
"1171 1419 OFFCURVE",
"816 1419 CURVE SMOOTH",
"325 1419 OFFCURVE",
"69 1041 OFFCURVE",
"69 623 CURVE SMOOTH"
);
},
{
closed = 1;
nodes = (
"452 391 OFFCURVE",
"452 568 OFFCURVE",
"452 766 CURVE SMOOTH",
"452 900 OFFCURVE",
"474 1144 OFFCURVE",
"550 1218 CURVE SMOOTH",
"587 1260 OFFCURVE",
"656 1264 OFFCURVE",
"705 1264 CURVE SMOOTH",
"848 1264 OFFCURVE",
"1009 1193 OFFCURVE",
"1056 1042 CURVE SMOOTH",
"1090 935 OFFCURVE",
"1090 794 OFFCURVE",
"1090 617 CURVE SMOOTH",
"1090 487 OFFCURVE",
"1061 262 OFFCURVE",
"1011 187 CURVE SMOOTH",
"974 131 OFFCURVE",
"897 120 OFFCURVE",
"840 120 CURVE SMOOTH",
"715 120 OFFCURVE",
"588 168 OFFCURVE",
"529 265 CURVE SMOOTH"
);
}
);
};
layerId = UUID1;
name = Bold;
paths = (
{
closed = 1;
nodes = (
"548 -190 LINE",
"1265 1475 LINE",
"1037 1523 LINE",
"318 -145 LINE"
);
},
{
closed = 1;
nodes = (
"69 211 OFFCURVE",
"366 -35 OFFCURVE",
"745 -35 CURVE SMOOTH",
"1198 -35 OFFCURVE",
"1473 335 OFFCURVE",
"1473 762 CURVE SMOOTH",
"1473 1173 OFFCURVE",
"1171 1419 OFFCURVE",
"816 1419 CURVE SMOOTH",
"325 1419 OFFCURVE",
"69 1041 OFFCURVE",
"69 623 CURVE SMOOTH"
);
},
{
closed = 1;
nodes = (
"452 391 OFFCURVE",
"452 568 OFFCURVE",
"452 766 CURVE SMOOTH",
"452 900 OFFCURVE",
"474 1144 OFFCURVE",
"550 1218 CURVE SMOOTH",
"587 1260 OFFCURVE",
"656 1264 OFFCURVE",
"705 1264 CURVE SMOOTH",
"848 1264 OFFCURVE",
"1009 1193 OFFCURVE",
"1056 1042 CURVE SMOOTH",
"1090 935 OFFCURVE",
"1090 794 OFFCURVE",
"1090 617 CURVE SMOOTH",
"1090 487 OFFCURVE",
"1061 262 OFFCURVE",
"1011 187 CURVE SMOOTH",
"974 131 OFFCURVE",
"897 120 OFFCURVE",
"840 120 CURVE SMOOTH",
"715 120 OFFCURVE",
"588 168 OFFCURVE",
"529 265 CURVE SMOOTH"
);
}
);
width = 1542;
},
{
anchors = (
{
name = top;
position = "{703, 1384}";
}
);
background = {
anchors = (
{
name = top;
position = "{703, 1384}";
}
);
paths = (
{
closed = 1;
nodes = (
"457 -152 LINE",
"1105 1456 LINE",
"965 1509 LINE",
"317 -100 LINE"
);
},
{
closed = 1;
nodes = (
"90 211 OFFCURVE",
"345 -35 OFFCURVE",
"672 -35 CURVE SMOOTH",
"1079 -35 OFFCURVE",
"1316 335 OFFCURVE",
"1316 762 CURVE SMOOTH",
"1316 1173 OFFCURVE",
"1052 1419 OFFCURVE",
"743 1419 CURVE SMOOTH",
"313 1419 OFFCURVE",
"90 1041 OFFCURVE",
"90 623 CURVE SMOOTH"
);
},
{
closed = 1;
nodes = (
"310 415 OFFCURVE",
"295 598 OFFCURVE",
"295 766 CURVE SMOOTH",
"295 886 OFFCURVE",
"328 1095 OFFCURVE",
"411 1177 CURVE SMOOTH",
"475 1238 OFFCURVE",
"581 1266 OFFCURVE",
"661 1266 CURVE SMOOTH",
"834 1266 OFFCURVE",
"996 1156 OFFCURVE",
"1064 990 CURVE SMOOTH",
"1106 888 OFFCURVE",
"1111 768 OFFCURVE",
"1111 617 CURVE SMOOTH",
"1111 497 OFFCURVE",
"1078 299 OFFCURVE",
"1000 214 CURVE SMOOTH",
"937 146 OFFCURVE",
"833 120 OFFCURVE",
"750 120 CURVE SMOOTH",
"610 120 OFFCURVE",
"487 188 OFFCURVE",
"404 289 CURVE SMOOTH"
);
}
);
};
layerId = UUID0;
name = Regular;
paths = (
{
closed = 1;
nodes = (
"457 -152 LINE",
"1105 1456 LINE",
"965 1509 LINE",
"317 -100 LINE"
);
},
{
closed = 1;
nodes = (
"90 211 OFFCURVE",
"345 -35 OFFCURVE",
"672 -35 CURVE SMOOTH",
"1079 -35 OFFCURVE",
"1316 335 OFFCURVE",
"1316 762 CURVE SMOOTH",
"1316 1173 OFFCURVE",
"1052 1419 OFFCURVE",
"743 1419 CURVE SMOOTH",
"313 1419 OFFCURVE",
"90 1041 OFFCURVE",
"90 623 CURVE SMOOTH"
);
},
{
closed = 1;
nodes = (
"310 415 OFFCURVE",
"295 598 OFFCURVE",
"295 766 CURVE SMOOTH",
"295 886 OFFCURVE",
"328 1095 OFFCURVE",
"411 1177 CURVE SMOOTH",
"475 1238 OFFCURVE",
"581 1266 OFFCURVE",
"661 1266 CURVE SMOOTH",
"834 1266 OFFCURVE",
"996 1156 OFFCURVE",
"1064 990 CURVE SMOOTH",
"1106 888 OFFCURVE",
"1111 768 OFFCURVE",
"1111 617 CURVE SMOOTH",
"1111 497 OFFCURVE",
"1078 299 OFFCURVE",
"1000 214 CURVE SMOOTH",
"937 146 OFFCURVE",
"833 120 OFFCURVE",
"750 120 CURVE SMOOTH",
"610 120 OFFCURVE",
"487 188 OFFCURVE",
"404 289 CURVE SMOOTH"
);
}
);
width = 1405;
}
);
leftKerningGroup = O;
rightKerningGroup = O;
unicode = 00D8;
},
{
glyphname = OE;
lastChange = "2015-03-23 17:17:51 +0000";
layers = (
{
anchors = (
{
name = top;
position = "{1032, 1384}";
}
);
background = {
anchors = (
{
name = top;
position = "{1032, 1384}";
}
);
paths = (
{
closed = 1;
nodes = (
"1963 0 LINE",
"2040 354 LINE",
"1910 371 LINE",
"1788 171 LINE",
"1340 99 LINE",
"1340 659 LINE",
"1386 644 OFFCURVE",
"1536 622 OFFCURVE",
"1558 622 CURVE",
"1604 463 LINE",
"1710 448 LINE",
"1727 929 LINE",
"1624 948 LINE",
"1558 781 LINE",
"1531 780 OFFCURVE",
"1393 758 OFFCURVE",
"1340 741 CURVE",
"1340 1296 LINE",
"1733 1227 LINE",
"1828 1021 LINE",
"1968 1044 LINE",
"1930 1397 LINE",
"1784 1384 LINE",
"1039 1384 LINE",
"969 1407 OFFCURVE",
"893 1419 OFFCURVE",
"816 1419 CURVE SMOOTH",
"325 1419 OFFCURVE",
"69 1041 OFFCURVE",
"69 623 CURVE SMOOTH",
"69 211 OFFCURVE",
"366 -35 OFFCURVE",
"745 -35 CURVE SMOOTH",
"827 -35 OFFCURVE",
"904 -22 OFFCURVE",
"974 0 CURVE"
);
},
{
closed = 1;
nodes = (
"721 125 OFFCURVE",
"616 183 OFFCURVE",
"548 283 CURVE SMOOTH",
"461 411 OFFCURVE",
"452 578 OFFCURVE",
"452 766 CURVE SMOOTH",
"452 900 OFFCURVE",
"474 1144 OFFCURVE",
"550 1218 CURVE SMOOTH",
"587 1255 OFFCURVE",
"651 1257 OFFCURVE",
"700 1257 CURVE SMOOTH",
"802 1257 OFFCURVE",
"901 1214 OFFCURVE",
"971 1141 CURVE",
"971 153 LINE",
"932 132 OFFCURVE",
"880 125 OFFCURVE",
"840 125 CURVE SMOOTH"
);
}
);
};
layerId = UUID1;
name = Bold;
paths = (
{
closed = 1;
nodes = (
"1963 0 LINE",
"2040 354 LINE",
"1910 371 LINE",
"1788 171 LINE",
"1340 99 LINE",
"1340 659 LINE",
"1386 644 OFFCURVE",
"1536 622 OFFCURVE",
"1558 622 CURVE",
"1604 463 LINE",
"1710 448 LINE",
"1727 929 LINE",
"1624 948 LINE",
"1558 781 LINE",
"1531 780 OFFCURVE",
"1393 758 OFFCURVE",
"1340 741 CURVE",
"1340 1296 LINE",
"1733 1227 LINE",
"1828 1021 LINE",
"1968 1044 LINE",
"1930 1397 LINE",
"1784 1384 LINE",
"1039 1384 LINE",
"969 1407 OFFCURVE",
"893 1419 OFFCURVE",
"816 1419 CURVE SMOOTH",
"325 1419 OFFCURVE",
"69 1041 OFFCURVE",
"69 623 CURVE SMOOTH",
"69 211 OFFCURVE",
"366 -35 OFFCURVE",
"745 -35 CURVE SMOOTH",
"827 -35 OFFCURVE",
"904 -22 OFFCURVE",
"974 0 CURVE"
);
},
{
closed = 1;
nodes = (
"721 125 OFFCURVE",
"616 183 OFFCURVE",
"548 283 CURVE SMOOTH",
"461 411 OFFCURVE",
"452 578 OFFCURVE",
"452 766 CURVE SMOOTH",
"452 900 OFFCURVE",
"474 1144 OFFCURVE",
"550 1218 CURVE SMOOTH",
"587 1255 OFFCURVE",
"651 1257 OFFCURVE",
"700 1257 CURVE SMOOTH",
"802 1257 OFFCURVE",
"901 1214 OFFCURVE",
"971 1141 CURVE",
"971 153 LINE",
"932 132 OFFCURVE",
"880 125 OFFCURVE",
"840 125 CURVE SMOOTH"
);
}
);
width = 2078;
},
{
anchors = (
{
name = top;
position = "{953, 1384}";
}
);
background = {
anchors = (
{
name = top;
position = "{953, 1384}";
}
);
paths = (
{
closed = 1;
nodes = (
"1779 0 LINE",
"1855 322 LINE",
"1780 339 LINE",
"1658 155 LINE",
"1159 99 LINE",
"1159 659 LINE",
"1247 645 OFFCURVE",
"1339 640 OFFCURVE",
"1432 639 CURVE",
"1473 478 LINE",
"1546 463 LINE",
"1564 912 LINE",
"1492 933 LINE",
"1434 765 LINE",
"1339 761 OFFCURVE",
"1248 754 OFFCURVE",
"1159 741 CURVE",
"1159 1296 LINE",
"1593 1246 LINE",
"1692 1023 LINE",
"1781 1046 LINE",
"1747 1397 LINE",
"1620 1384 LINE",
"938 1384 LINE",
"876 1407 OFFCURVE",
"811 1419 OFFCURVE",
"743 1419 CURVE SMOOTH",
"313 1419 OFFCURVE",
"90 1041 OFFCURVE",
"90 623 CURVE SMOOTH",
"90 211 OFFCURVE",
"345 -35 OFFCURVE",
"672 -35 CURVE SMOOTH",
"746 -35 OFFCURVE",
"814 -22 OFFCURVE",
"877 0 CURVE"
);
},
{
closed = 1;
nodes = (
"624 124 OFFCURVE",
"495 189 OFFCURVE",
"414 290 CURVE SMOOTH",
"313 416 OFFCURVE",
"295 598 OFFCURVE",
"295 766 CURVE SMOOTH",
"295 886 OFFCURVE",
"329 1094 OFFCURVE",
"412 1176 CURVE SMOOTH",
"476 1237 OFFCURVE",
"571 1262 OFFCURVE",
"651 1262 CURVE SMOOTH",
"768 1262 OFFCURVE",
"883 1226 OFFCURVE",
"967 1151 CURVE",
"967 185 LINE",
"907 140 OFFCURVE",
"829 124 OFFCURVE",
"760 124 CURVE SMOOTH"
);
}
);
};
layerId = UUID0;
name = Regular;
paths = (
{
closed = 1;
nodes = (
"1779 0 LINE",
"1855 322 LINE",
"1780 339 LINE",
"1658 155 LINE",
"1159 99 LINE",
"1159 659 LINE",
"1247 645 OFFCURVE",
"1339 640 OFFCURVE",
"1432 639 CURVE",
"1473 478 LINE",
"1546 463 LINE",
"1564 912 LINE",
"1492 933 LINE",
"1434 765 LINE",
"1339 761 OFFCURVE",
"1248 754 OFFCURVE",
"1159 741 CURVE",
"1159 1296 LINE",
"1593 1246 LINE",
"1692 1023 LINE",
"1781 1046 LINE",
"1747 1397 LINE",
"1620 1384 LINE",
"938 1384 LINE",
"876 1407 OFFCURVE",
"811 1419 OFFCURVE",
"743 1419 CURVE SMOOTH",
"313 1419 OFFCURVE",
"90 1041 OFFCURVE",
"90 623 CURVE SMOOTH",
"90 211 OFFCURVE",
"345 -35 OFFCURVE",
"672 -35 CURVE SMOOTH",
"746 -35 OFFCURVE",
"814 -22 OFFCURVE",
"877 0 CURVE"
);
},
{
closed = 1;
nodes = (
"624 124 OFFCURVE",
"495 189 OFFCURVE",
"414 290 CURVE SMOOTH",
"313 416 OFFCURVE",
"295 598 OFFCURVE",
"295 766 CURVE SMOOTH",
"295 886 OFFCURVE",
"329 1094 OFFCURVE",
"412 1176 CURVE SMOOTH",
"476 1237 OFFCURVE",
"571 1262 OFFCURVE",
"651 1262 CURVE SMOOTH",
"768 1262 OFFCURVE",
"883 1226 OFFCURVE",
"967 1151 CURVE",
"967 185 LINE",
"907 140 OFFCURVE",
"829 124 OFFCURVE",
"760 124 CURVE SMOOTH"
);
}
);
width = 1905;
}
);
leftKerningGroup = O;
leftMetricsKey = "=O";
rightKerningGroup = E;
rightMetricsKey = "=E";
unicode = 0152;
},
{
glyphname = P;
lastChange = "2015-03-23 17:17:51 +0000";
layers = (
{
anchors = (
{
name = top;
position = "{698, 1384}";
}
);
background = {
anchors = (
{
name = top;
position = "{698, 1384}";
}
);
paths = (
{
closed = 1;
nodes = (
"51 0 LINE",
"853 0 LINE",
"868 81 LINE",
"616 163 LINE",
"616 1303 LINE",
"807 1300 OFFCURVE",
"975 1210 OFFCURVE",
"975 982 CURVE SMOOTH",
"975 806 OFFCURVE",
"914 731 OFFCURVE",
"751 640 CURVE",
"739 573 LINE",
"869 573 OFFCURVE",
"1055 594 OFFCURVE",
"1176 672 CURVE SMOOTH",
"1278 739 OFFCURVE",
"1336 846 OFFCURVE",
"1336 975 CURVE SMOOTH",
"1336 1120 OFFCURVE",
"1268 1243 OFFCURVE",
"1164 1305 CURVE SMOOTH",
"1031 1384 OFFCURVE",
"863 1384 OFFCURVE",
"651 1384 CURVE SMOOTH",
"77 1384 LINE",
"60 1303 LINE",
"247 1221 LINE",
"247 164 LINE",
"68 85 LINE"
);
}
);
};
layerId = UUID1;
name = Bold;
paths = (
{
closed = 1;
nodes = (
"51 0 LINE",
"853 0 LINE",
"868 81 LINE",
"616 163 LINE",
"616 1303 LINE",
"807 1300 OFFCURVE",
"975 1210 OFFCURVE",
"975 982 CURVE SMOOTH",
"975 806 OFFCURVE",
"914 731 OFFCURVE",
"751 640 CURVE",
"739 573 LINE",
"869 573 OFFCURVE",
"1055 594 OFFCURVE",
"1176 672 CURVE SMOOTH",
"1278 739 OFFCURVE",
"1336 846 OFFCURVE",
"1336 975 CURVE SMOOTH",
"1336 1120 OFFCURVE",
"1268 1243 OFFCURVE",
"1164 1305 CURVE SMOOTH",
"1031 1384 OFFCURVE",
"863 1384 OFFCURVE",
"651 1384 CURVE SMOOTH",
"77 1384 LINE",
"60 1303 LINE",
"247 1221 LINE",
"247 164 LINE",
"68 85 LINE"
);
}
);
width = 1370;
},
{
anchors = (
{
name = top;
position = "{564, 1384}";
}
);
background = {
anchors = (
{
name = top;
position = "{564, 1384}";
}
);
paths = (
{
closed = 1;
nodes = (
"67 0 LINE",
"673 0 LINE",
"690 83 LINE",
"456 138 LINE",
"456 1303 LINE",
"687 1300 OFFCURVE",
"889 1226 OFFCURVE",
"889 982 CURVE SMOOTH",
"889 785 OFFCURVE",
"809 731 OFFCURVE",
"592 639 CURVE",
"580 573 LINE",
"694 573 OFFCURVE",
"847 600 OFFCURVE",
"950 678 CURVE SMOOTH",
"1039 745 OFFCURVE",
"1097 846 OFFCURVE",
"1097 975 CURVE SMOOTH",
"1097 1120 OFFCURVE",
"1043 1219 OFFCURVE",
"964 1280 CURVE SMOOTH",
"831 1382 OFFCURVE",
"634 1384 OFFCURVE",
"472 1384 CURVE SMOOTH",
"92 1384 LINE",
"75 1302 LINE",
"263 1246 LINE",
"263 139 LINE",
"85 85 LINE"
);
}
);
};
layerId = UUID0;
name = Regular;
paths = (
{
closed = 1;
nodes = (
"67 0 LINE",
"673 0 LINE",
"690 83 LINE",
"456 138 LINE",
"456 1303 LINE",
"687 1300 OFFCURVE",
"889 1226 OFFCURVE",
"889 982 CURVE SMOOTH",
"889 785 OFFCURVE",
"809 731 OFFCURVE",
"592 639 CURVE",
"580 573 LINE",
"694 573 OFFCURVE",
"847 600 OFFCURVE",
"950 678 CURVE SMOOTH",
"1039 745 OFFCURVE",
"1097 846 OFFCURVE",
"1097 975 CURVE SMOOTH",
"1097 1120 OFFCURVE",
"1043 1219 OFFCURVE",
"964 1280 CURVE SMOOTH",
"831 1382 OFFCURVE",
"634 1384 OFFCURVE",
"472 1384 CURVE SMOOTH",
"92 1384 LINE",
"75 1302 LINE",
"263 1246 LINE",
"263 139 LINE",
"85 85 LINE"
);
}
);
width = 1150;
}
);
leftKerningGroup = H;
rightKerningGroup = P;
unicode = 0050;
},
{
glyphname = Thorn;
lastChange = "2015-03-23 17:17:51 +0000";
layers = (
{
background = {
paths = (
{
closed = 1;
nodes = (
"606 1063 LINE",
"802 1059 OFFCURVE",
"976 976 OFFCURVE",
"976 750 CURVE SMOOTH",
"976 583 OFFCURVE",
"925 490 OFFCURVE",
"752 398 CURVE",
"740 332 LINE",
"886 332 OFFCURVE",
"1054 357 OFFCURVE",
"1175 432 CURVE SMOOTH",
"1280 497 OFFCURVE",
"1337 606 OFFCURVE",
"1337 735 CURVE SMOOTH",
"1337 867 OFFCURVE",
"1293 962 OFFCURVE",
"1218 1027 CURVE SMOOTH",
"1093 1134 OFFCURVE",
"936 1144 OFFCURVE",
"606 1144 CURVE"
);
},
{
closed = 1;
nodes = (
"52 0 LINE",
"830 0 LINE",
"847 81 LINE",
"616 165 LINE",
"616 1219 LINE",
"798 1301 LINE",
"813 1384 LINE",
"77 1384 LINE",
"60 1303 LINE",
"247 1221 LINE",
"247 165 LINE",
"70 85 LINE"
);
}
);
};
layerId = UUID1;
name = Bold;
paths = (
{
closed = 1;
nodes = (
"606 1063 LINE",
"802 1059 OFFCURVE",
"976 976 OFFCURVE",
"976 750 CURVE SMOOTH",
"976 583 OFFCURVE",
"925 490 OFFCURVE",
"752 398 CURVE",
"740 332 LINE",
"886 332 OFFCURVE",
"1054 357 OFFCURVE",
"1175 432 CURVE SMOOTH",
"1280 497 OFFCURVE",
"1337 606 OFFCURVE",
"1337 735 CURVE SMOOTH",
"1337 867 OFFCURVE",
"1293 962 OFFCURVE",
"1218 1027 CURVE SMOOTH",
"1093 1134 OFFCURVE",
"936 1144 OFFCURVE",
"606 1144 CURVE"
);
},
{
closed = 1;
nodes = (
"52 0 LINE",
"830 0 LINE",
"847 81 LINE",
"616 165 LINE",
"616 1219 LINE",
"798 1301 LINE",
"813 1384 LINE",
"77 1384 LINE",
"60 1303 LINE",
"247 1221 LINE",
"247 165 LINE",
"70 85 LINE"
);
}
);
width = 1376;
},
{
background = {
paths = (
{
closed = 1;
nodes = (
"445 1063 LINE",
"686 1060 OFFCURVE",
"889 987 OFFCURVE",
"889 742 CURVE SMOOTH",
"889 546 OFFCURVE",
"809 487 OFFCURVE",
"592 401 CURVE",
"578 332 LINE",
"695 332 OFFCURVE",
"843 359 OFFCURVE",
"950 438 CURVE SMOOTH",
"1039 504 OFFCURVE",
"1096 606 OFFCURVE",
"1096 735 CURVE SMOOTH",
"1096 872 OFFCURVE",
"1054 963 OFFCURVE",
"986 1023 CURVE SMOOTH",
"866 1129 OFFCURVE",
"663 1143 OFFCURVE",
"445 1144 CURVE"
);
},
{
closed = 1;
nodes = (
"68 0 LINE",
"668 0 LINE",
"688 84 LINE",
"455 140 LINE",
"455 1244 LINE",
"636 1299 LINE",
"652 1384 LINE",
"92 1384 LINE",
"75 1301 LINE",
"263 1246 LINE",
"263 140 LINE",
"85 87 LINE"
);
}
);
};
layerId = UUID0;
name = Regular;
paths = (
{
closed = 1;
nodes = (
"445 1063 LINE",
"686 1060 OFFCURVE",
"889 987 OFFCURVE",
"889 742 CURVE SMOOTH",
"889 546 OFFCURVE",
"809 487 OFFCURVE",
"592 401 CURVE",
"578 332 LINE",
"695 332 OFFCURVE",
"843 359 OFFCURVE",
"950 438 CURVE SMOOTH",
"1039 504 OFFCURVE",
"1096 606 OFFCURVE",
"1096 735 CURVE SMOOTH",
"1096 872 OFFCURVE",
"1054 963 OFFCURVE",
"986 1023 CURVE SMOOTH",
"866 1129 OFFCURVE",
"663 1143 OFFCURVE",
"445 1144 CURVE"
);
},
{
closed = 1;
nodes = (
"68 0 LINE",
"668 0 LINE",
"688 84 LINE",
"455 140 LINE",
"455 1244 LINE",
"636 1299 LINE",
"652 1384 LINE",
"92 1384 LINE",
"75 1301 LINE",
"263 1246 LINE",
"263 140 LINE",
"85 87 LINE"
);
}
);
width = 1152;
}
);
leftKerningGroup = H;
rightKerningGroup = Thorn;
unicode = 00DE;
},
{
glyphname = Q;
lastChange = "2015-03-23 17:17:51 +0000";
layers = (
{
background = {
components = (
{
name = O;
}
);
paths = (
{
closed = 1;
nodes = (
"791 8 LINE",
"952 -212 OFFCURVE",
"1217 -325 OFFCURVE",
"1430 -325 CURVE",
"1464 -259 LINE",
"1103 132 LINE"
);
}
);
};
components = (
{
name = O;
}
);
layerId = UUID1;
name = Bold;
paths = (
{
closed = 1;
nodes = (
"791 8 LINE",
"952 -212 OFFCURVE",
"1217 -325 OFFCURVE",
"1430 -325 CURVE",
"1464 -259 LINE",
"1103 132 LINE"
);
}
);
width = 1542;
},
{
background = {
components = (
{
name = O;
}
);
paths = (
{
closed = 1;
nodes = (
"791 -16 LINE",
"945 -151 OFFCURVE",
"1192 -322 OFFCURVE",
"1281 -322 CURVE",
"1319 -256 LINE",
"1006 78 LINE"
);
}
);
};
components = (
{
name = O;
}
);
layerId = UUID0;
name = Regular;
paths = (
{
closed = 1;
nodes = (
"791 -16 LINE",
"945 -151 OFFCURVE",
"1192 -322 OFFCURVE",
"1281 -322 CURVE",
"1319 -256 LINE",
"1006 78 LINE"
);
}
);
width = 1406;
}
);
leftKerningGroup = O;
rightKerningGroup = O;
unicode = 0051;
},
{
glyphname = R;
lastChange = "2015-03-23 17:17:51 +0000";
layers = (
{
anchors = (
{
name = bottom;
position = "{777, 0}";
},
{
name = top;
position = "{679, 1384}";
}
);
background = {
anchors = (
{
name = top;
position = "{679, 1384}";
},
{
name = bottom;
position = "{777, 0}";
}
);
paths = (
{
closed = 1;
nodes = (
"52 0 LINE",
"783 0 LINE",
"809 94 LINE",
"616 176 LINE",
"616 1304 LINE",
"783 1295 OFFCURVE",
"986 1213 OFFCURVE",
"986 1022 CURVE SMOOTH",
"986 895 OFFCURVE",
"911 761 OFFCURVE",
"731 686 CURVE",
"1011 87 LINE",
"991 0 LINE",
"1508 0 LINE",
"1526 79 LINE",
"1347 171 LINE",
"1084 679 LINE",
"1247 735 OFFCURVE",
"1357 843 OFFCURVE",
"1357 1007 CURVE SMOOTH",
"1357 1140 OFFCURVE",
"1299 1226 OFFCURVE",
"1214 1283 CURVE SMOOTH",
"1088 1367 OFFCURVE",
"901 1384 OFFCURVE",
"750 1384 CURVE SMOOTH",
"77 1384 LINE",
"60 1303 LINE",
"247 1221 LINE",
"247 164 LINE",
"69 83 LINE"
);
}
);
};
layerId = UUID1;
name = Bold;
paths = (
{
closed = 1;
nodes = (
"52 0 LINE",
"783 0 LINE",
"809 94 LINE",
"616 176 LINE",
"616 1304 LINE",
"783 1295 OFFCURVE",
"986 1213 OFFCURVE",
"986 1022 CURVE SMOOTH",
"986 895 OFFCURVE",
"911 761 OFFCURVE",
"731 686 CURVE",
"1011 87 LINE",
"991 0 LINE",
"1508 0 LINE",
"1526 79 LINE",
"1347 171 LINE",
"1084 679 LINE",
"1247 735 OFFCURVE",
"1357 843 OFFCURVE",
"1357 1007 CURVE SMOOTH",
"1357 1140 OFFCURVE",
"1299 1226 OFFCURVE",
"1214 1283 CURVE SMOOTH",
"1088 1367 OFFCURVE",
"901 1384 OFFCURVE",
"750 1384 CURVE SMOOTH",
"77 1384 LINE",
"60 1303 LINE",
"247 1221 LINE",
"247 164 LINE",
"69 83 LINE"
);
}
);
width = 1512;
},
{
anchors = (
{
name = bottom;
position = "{657, 0}";
},
{
name = top;
position = "{597, 1384}";
}
);
background = {
anchors = (
{
name = top;
position = "{597, 1384}";
},
{
name = bottom;
position = "{657, 0}";
}
);
paths = (
{
closed = 1;
nodes = (
"69 0 LINE",
"640 0 LINE",
"661 96 LINE",
"455 151 LINE",
"455 1304 LINE",
"654 1295 OFFCURVE",
"895 1224 OFFCURVE",
"895 1022 CURVE SMOOTH",
"895 895 OFFCURVE",
"867 789 OFFCURVE",
"589 685 CURVE",
"922 77 LINE",
"907 0 LINE",
"1283 0 LINE",
"1302 81 LINE",
"1107 148 LINE",
"797 670 LINE",
"1002 728 OFFCURVE",
"1100 846 OFFCURVE",
"1100 1021 CURVE SMOOTH",
"1100 1129 OFFCURVE",
"1044 1229 OFFCURVE",
"959 1286 CURVE SMOOTH",
"814 1382 OFFCURVE",
"630 1384 OFFCURVE",
"462 1384 CURVE SMOOTH",
"93 1384 LINE",
"76 1302 LINE",
"263 1246 LINE",
"263 139 LINE",
"83 84 LINE"
);
}
);
};
layerId = UUID0;
name = Regular;
paths = (
{
closed = 1;
nodes = (
"69 0 LINE",
"640 0 LINE",
"661 96 LINE",
"455 151 LINE",
"455 1304 LINE",
"654 1295 OFFCURVE",
"895 1224 OFFCURVE",
"895 1022 CURVE SMOOTH",
"895 895 OFFCURVE",
"867 789 OFFCURVE",
"589 685 CURVE",
"922 77 LINE",
"907 0 LINE",
"1283 0 LINE",
"1302 81 LINE",
"1107 148 LINE",
"797 670 LINE",
"1002 728 OFFCURVE",
"1100 846 OFFCURVE",
"1100 1021 CURVE SMOOTH",
"1100 1129 OFFCURVE",
"1044 1229 OFFCURVE",
"959 1286 CURVE SMOOTH",
"814 1382 OFFCURVE",
"630 1384 OFFCURVE",
"462 1384 CURVE SMOOTH",
"93 1384 LINE",
"76 1302 LINE",
"263 1246 LINE",
"263 139 LINE",
"83 84 LINE"
);
}
);
width = 1293;
}
);
leftKerningGroup = H;
rightKerningGroup = R;
unicode = 0052;
},
{
glyphname = S;
lastChange = "2015-03-23 17:17:51 +0000";
layers = (
{
anchors = (
{
name = bottom;
position = "{596, 0}";
},
{
name = top;
position = "{594, 1384}";
}
);
background = {
anchors = (
{
name = top;
position = "{594, 1384}";
},
{
name = bottom;
position = "{596, 0}";
}
);
paths = (
{
closed = 1;
nodes = (
"932 984 LINE",
"1077 1008 LINE",
"1043 1394 LINE",
"931 1390 LINE",
"900 1396 OFFCURVE",
"780 1419 OFFCURVE",
"678 1419 CURVE SMOOTH",
"338 1419 OFFCURVE",
"112 1276 OFFCURVE",
"112 1028 CURVE SMOOTH",
"112 810 OFFCURVE",
"237 709 OFFCURVE",
"440 586 CURVE SMOOTH",
"671 446 OFFCURVE",
"741 404 OFFCURVE",
"741 334 CURVE SMOOTH",
"741 302 OFFCURVE",
"731 274 OFFCURVE",
"690 238 CURVE SMOOTH",
"622 176 OFFCURVE",
"533 144 OFFCURVE",
"443 130 CURVE SMOOTH",
"398 123 OFFCURVE",
"352 121 OFFCURVE",
"309 121 CURVE",
"279 403 LINE",
"135 430 LINE",
"54 86 LINE",
"139 24 OFFCURVE",
"309 -35 OFFCURVE",
"495 -35 CURVE SMOOTH",
"883 -35 OFFCURVE",
"1118 142 OFFCURVE",
"1118 413 CURVE SMOOTH",
"1118 635 OFFCURVE",
"957 742 OFFCURVE",
"767 845 CURVE SMOOTH",
"538 969 OFFCURVE",
"452 1050 OFFCURVE",
"452 1110 CURVE SMOOTH",
"452 1135 OFFCURVE",
"461 1149 OFFCURVE",
"470 1161 CURVE SMOOTH",
"517 1222 OFFCURVE",
"605 1272 OFFCURVE",
"729 1286 CURVE SMOOTH",
"750 1288 OFFCURVE",
"773 1289 OFFCURVE",
"796 1289 CURVE"
);
}
);
};
layerId = UUID1;
name = Bold;
paths = (
{
closed = 1;
nodes = (
"932 984 LINE",
"1077 1008 LINE",
"1043 1394 LINE",
"931 1390 LINE",
"900 1396 OFFCURVE",
"780 1419 OFFCURVE",
"678 1419 CURVE SMOOTH",
"338 1419 OFFCURVE",
"112 1276 OFFCURVE",
"112 1028 CURVE SMOOTH",
"112 810 OFFCURVE",
"237 709 OFFCURVE",
"440 586 CURVE SMOOTH",
"671 446 OFFCURVE",
"741 404 OFFCURVE",
"741 334 CURVE SMOOTH",
"741 302 OFFCURVE",
"731 274 OFFCURVE",
"690 238 CURVE SMOOTH",
"622 176 OFFCURVE",
"533 144 OFFCURVE",
"443 130 CURVE SMOOTH",
"398 123 OFFCURVE",
"352 121 OFFCURVE",
"309 121 CURVE",
"279 403 LINE",
"135 430 LINE",
"54 86 LINE",
"139 24 OFFCURVE",
"309 -35 OFFCURVE",
"495 -35 CURVE SMOOTH",
"883 -35 OFFCURVE",
"1118 142 OFFCURVE",
"1118 413 CURVE SMOOTH",
"1118 635 OFFCURVE",
"957 742 OFFCURVE",
"767 845 CURVE SMOOTH",
"538 969 OFFCURVE",
"452 1050 OFFCURVE",
"452 1110 CURVE SMOOTH",
"452 1135 OFFCURVE",
"461 1149 OFFCURVE",
"470 1161 CURVE SMOOTH",
"517 1222 OFFCURVE",
"605 1272 OFFCURVE",
"729 1286 CURVE SMOOTH",
"750 1288 OFFCURVE",
"773 1289 OFFCURVE",
"796 1289 CURVE"
);
}
);
width = 1193;
},
{
anchors = (
{
name = bottom;
position = "{530, 0}";
},
{
name = top;
position = "{530, 1384}";
}
);
background = {
anchors = (
{
name = top;
position = "{530, 1384}";
},
{
name = bottom;
position = "{530, 0}";
}
);
paths = (
{
closed = 1;
nodes = (
"843 1020 LINE",
"936 1045 LINE",
"901 1394 LINE",
"796 1390 LINE",
"774 1396 OFFCURVE",
"679 1419 OFFCURVE",
"599 1419 CURVE SMOOTH",
"344 1419 OFFCURVE",
"123 1272 OFFCURVE",
"123 1041 CURVE SMOOTH",
"123 795 OFFCURVE",
"296 708 OFFCURVE",
"480 638 CURVE SMOOTH",
"634 578 OFFCURVE",
"762 530 OFFCURVE",
"762 354 CURVE SMOOTH",
"762 297 OFFCURVE",
"749 238 OFFCURVE",
"729 209 CURVE SMOOTH",
"679 137 OFFCURVE",
"493 108 OFFCURVE",
"352 108 CURVE SMOOTH",
"322 108 OFFCURVE",
"293 109 OFFCURVE",
"267 111 CURVE",
"246 377 LINE",
"141 405 LINE",
"66 82 LINE",
"149 24 OFFCURVE",
"296 -35 OFFCURVE",
"466 -35 CURVE SMOOTH",
"759 -35 OFFCURVE",
"968 142 OFFCURVE",
"968 413 CURVE SMOOTH",
"968 645 OFFCURVE",
"807 727 OFFCURVE",
"621 797 CURVE SMOOTH",
"421 872 OFFCURVE",
"309 913 OFFCURVE",
"309 1073 CURVE SMOOTH",
"309 1109 OFFCURVE",
"315 1160 OFFCURVE",
"331 1188 CURVE SMOOTH",
"359 1238 OFFCURVE",
"494 1294 OFFCURVE",
"672 1295 CURVE SMOOTH",
"685 1295 OFFCURVE",
"704 1295 OFFCURVE",
"719 1294 CURVE"
);
}
);
};
layerId = UUID0;
name = Regular;
paths = (
{
closed = 1;
nodes = (
"843 1020 LINE",
"936 1045 LINE",
"901 1394 LINE",
"796 1390 LINE",
"774 1396 OFFCURVE",
"679 1419 OFFCURVE",
"599 1419 CURVE SMOOTH",
"344 1419 OFFCURVE",
"123 1272 OFFCURVE",
"123 1041 CURVE SMOOTH",
"123 795 OFFCURVE",
"296 708 OFFCURVE",
"480 638 CURVE SMOOTH",
"634 578 OFFCURVE",
"762 530 OFFCURVE",
"762 354 CURVE SMOOTH",
"762 297 OFFCURVE",
"749 238 OFFCURVE",
"729 209 CURVE SMOOTH",
"679 137 OFFCURVE",
"493 108 OFFCURVE",
"352 108 CURVE SMOOTH",
"322 108 OFFCURVE",
"293 109 OFFCURVE",
"267 111 CURVE",
"246 377 LINE",
"141 405 LINE",
"66 82 LINE",
"149 24 OFFCURVE",
"296 -35 OFFCURVE",
"466 -35 CURVE SMOOTH",
"759 -35 OFFCURVE",
"968 142 OFFCURVE",
"968 413 CURVE SMOOTH",
"968 645 OFFCURVE",
"807 727 OFFCURVE",
"621 797 CURVE SMOOTH",
"421 872 OFFCURVE",
"309 913 OFFCURVE",
"309 1073 CURVE SMOOTH",
"309 1109 OFFCURVE",
"315 1160 OFFCURVE",
"331 1188 CURVE SMOOTH",
"359 1238 OFFCURVE",
"494 1294 OFFCURVE",
"672 1295 CURVE SMOOTH",
"685 1295 OFFCURVE",
"704 1295 OFFCURVE",
"719 1294 CURVE"
);
}
);
width = 1060;
}
);
leftKerningGroup = S;
rightKerningGroup = S;
unicode = 0053;
},
{
glyphname = T;
lastChange = "2015-03-23 17:17:51 +0000";
layers = (
{
anchors = (
{
name = bottom;
position = "{729, 0}";
},
{
name = center;
position = "{733, 692}";
},
{
name = top;
position = "{733, 1384}";
}
);
background = {
anchors = (
{
name = center;
position = "{733, 692}";
},
{
name = bottom;
position = "{729, 0}";
},
{
name = top;
position = "{733, 1384}";
}
);
paths = (
{
closed = 1;
nodes = (
"320 0 LINE",
"1129 0 LINE",
"1147 89 LINE",
"909 168 LINE",
"909 1289 LINE",
"1193 1237 LINE",
"1307 984 LINE",
"1457 1008 LINE",
"1410 1399 LINE",
"1281 1384 LINE",
"215 1384 LINE",
"81 1394 LINE",
"-1 1010 LINE",
"141 987 LINE",
"272 1238 LINE",
"549 1289 LINE",
"549 169 LINE",
"339 89 LINE"
);
}
);
};
layerId = UUID1;
name = Bold;
paths = (
{
closed = 1;
nodes = (
"320 0 LINE",
"1129 0 LINE",
"1147 89 LINE",
"909 168 LINE",
"909 1289 LINE",
"1193 1237 LINE",
"1307 984 LINE",
"1457 1008 LINE",
"1410 1399 LINE",
"1281 1384 LINE",
"215 1384 LINE",
"81 1394 LINE",
"-1 1010 LINE",
"141 987 LINE",
"272 1238 LINE",
"549 1289 LINE",
"549 169 LINE",
"339 89 LINE"
);
}
);
width = 1464;
},
{
anchors = (
{
name = bottom;
position = "{673, 0}";
},
{
name = center;
position = "{677, 692}";
},
{
name = top;
position = "{677, 1384}";
}
);
background = {
anchors = (
{
name = center;
position = "{677, 692}";
},
{
name = bottom;
position = "{673, 0}";
},
{
name = top;
position = "{677, 1384}";
}
);
paths = (
{
closed = 1;
nodes = (
"368 0 LINE",
"970 0 LINE",
"988 90 LINE",
"769 143 LINE",
"769 1289 LINE",
"1114 1251 LINE",
"1235 993 LINE",
"1324 1020 LINE",
"1284 1396 LINE",
"1158 1384 LINE",
"227 1384 LINE",
"96 1393 LINE",
"14 1023 LINE",
"106 1002 LINE",
"246 1252 LINE",
"577 1287 LINE",
"577 144 LINE",
"386 90 LINE"
);
}
);
};
layerId = UUID0;
name = Regular;
paths = (
{
closed = 1;
nodes = (
"368 0 LINE",
"970 0 LINE",
"988 90 LINE",
"769 143 LINE",
"769 1289 LINE",
"1114 1251 LINE",
"1235 993 LINE",
"1324 1020 LINE",
"1284 1396 LINE",
"1158 1384 LINE",
"227 1384 LINE",
"96 1393 LINE",
"14 1023 LINE",
"106 1002 LINE",
"246 1252 LINE",
"577 1287 LINE",
"577 144 LINE",
"386 90 LINE"
);
}
);
width = 1353;
}
);
leftKerningGroup = T;
rightKerningGroup = T;
unicode = 0054;
},
{
glyphname = U;
lastChange = "2015-03-23 17:17:51 +0000";
layers = (
{
anchors = (
{
name = bottom;
position = "{862, 0}";
},
{
name = ogonek;
position = "{1022, 0}";
},
{
name = top;
position = "{854, 1384}";
}
);
background = {
anchors = (
{
name = ogonek;
position = "{1022, 0}";
},
{
name = bottom;
position = "{862, 0}";
},
{
name = top;
position = "{854, 1384}";
}
);
paths = (
{
closed = 1;
nodes = (
"571 1210 LINE",
"763 1283 LINE",
"785 1384 LINE",
"58 1384 LINE",
"40 1305 LINE",
"211 1221 LINE",
"211 469 LINE SMOOTH",
"211 134 OFFCURVE",
"393 -35 OFFCURVE",
"773 -35 CURVE SMOOTH",
"1175 -35 OFFCURVE",
"1413 141 OFFCURVE",
"1413 529 CURVE SMOOTH",
"1413 1217 LINE",
"1566 1300 LINE",
"1581 1384 LINE",
"1013 1384 LINE",
"996 1303 LINE",
"1193 1221 LINE",
"1193 477 LINE SMOOTH",
"1193 369 OFFCURVE",
"1173 280 OFFCURVE",
"1117 223 CURVE SMOOTH",
"1071 176 OFFCURVE",
"996 159 OFFCURVE",
"920 159 CURVE SMOOTH",
"683 159 OFFCURVE",
"571 318 OFFCURVE",
"571 536 CURVE SMOOTH"
);
}
);
};
layerId = UUID1;
name = Bold;
paths = (
{
closed = 1;
nodes = (
"571 1210 LINE",
"763 1283 LINE",
"785 1384 LINE",
"58 1384 LINE",
"40 1305 LINE",
"211 1221 LINE",
"211 469 LINE SMOOTH",
"211 134 OFFCURVE",
"393 -35 OFFCURVE",
"773 -35 CURVE SMOOTH",
"1175 -35 OFFCURVE",
"1413 141 OFFCURVE",
"1413 529 CURVE SMOOTH",
"1413 1217 LINE",
"1566 1300 LINE",
"1581 1384 LINE",
"1013 1384 LINE",
"996 1303 LINE",
"1193 1221 LINE",
"1193 477 LINE SMOOTH",
"1193 369 OFFCURVE",
"1173 280 OFFCURVE",
"1117 223 CURVE SMOOTH",
"1071 176 OFFCURVE",
"996 159 OFFCURVE",
"920 159 CURVE SMOOTH",
"683 159 OFFCURVE",
"571 318 OFFCURVE",
"571 536 CURVE SMOOTH"
);
}
);
width = 1602;
},
{
anchors = (
{
name = bottom;
position = "{760, 0}";
},
{
name = ogonek;
position = "{949, 10}";
},
{
name = top;
position = "{773, 1384}";
}
);
background = {
anchors = (
{
name = ogonek;
position = "{949, 10}";
},
{
name = bottom;
position = "{760, 0}";
},
{
name = top;
position = "{773, 1384}";
}
);
paths = (
{
closed = 1;
nodes = (
"411 1235 LINE",
"602 1282 LINE",
"624 1384 LINE",
"64 1384 LINE",
"48 1301 LINE",
"219 1246 LINE",
"219 469 LINE",
"219 174 OFFCURVE",
"382 -35 OFFCURVE",
"729 -35 CURVE SMOOTH",
"1071 -35 OFFCURVE",
"1250 175 OFFCURVE",
"1250 472 CURVE SMOOTH",
"1250 1242 LINE",
"1403 1299 LINE",
"1419 1384 LINE",
"927 1384 LINE",
"911 1301 LINE",
"1108 1242 LINE",
"1108 477 LINE",
"1108 348 OFFCURVE",
"1075 244 OFFCURVE",
"1010 180 CURVE SMOOTH",
"962 131 OFFCURVE",
"894 103 OFFCURVE",
"810 103 CURVE SMOOTH",
"578 103 OFFCURVE",
"411 286 OFFCURVE",
"411 536 CURVE SMOOTH"
);
}
);
};
layerId = UUID0;
name = Regular;
paths = (
{
closed = 1;
nodes = (
"411 1235 LINE",
"602 1282 LINE",
"624 1384 LINE",
"64 1384 LINE",
"48 1301 LINE",
"219 1246 LINE",
"219 469 LINE",
"219 174 OFFCURVE",
"382 -35 OFFCURVE",
"729 -35 CURVE SMOOTH",
"1071 -35 OFFCURVE",
"1250 175 OFFCURVE",
"1250 472 CURVE SMOOTH",
"1250 1242 LINE",
"1403 1299 LINE",
"1419 1384 LINE",
"927 1384 LINE",
"911 1301 LINE",
"1108 1242 LINE",
"1108 477 LINE",
"1108 348 OFFCURVE",
"1075 244 OFFCURVE",
"1010 180 CURVE SMOOTH",
"962 131 OFFCURVE",
"894 103 OFFCURVE",
"810 103 CURVE SMOOTH",
"578 103 OFFCURVE",
"411 286 OFFCURVE",
"411 536 CURVE SMOOTH"
);
}
);
width = 1466;
}
);
leftKerningGroup = U;
rightKerningGroup = U;
unicode = 0055;
},
{
glyphname = Uogonek;
lastChange = "2015-03-23 17:17:52 +0000";
layers = (
{
background = {
paths = (
{
closed = 1;
nodes = (
"571 1210 LINE",
"764 1283 LINE",
"783 1384 LINE",
"48 1384 LINE",
"31 1304 LINE",
"202 1221 LINE",
"202 469 LINE SMOOTH",
"202 134 OFFCURVE",
"393 -35 OFFCURVE",
"773 -35 CURVE SMOOTH",
"796 -35 OFFCURVE",
"822 -34 OFFCURVE",
"844 -32 CURVE",
"807 -53 OFFCURVE",
"770 -79 OFFCURVE",
"738 -109 CURVE SMOOTH",
"690 -154 OFFCURVE",
"655 -209 OFFCURVE",
"655 -277 CURVE SMOOTH",
"655 -440 OFFCURVE",
"788 -504 OFFCURVE",
"918 -504 CURVE SMOOTH",
"1036 -504 OFFCURVE",
"1146 -450 OFFCURVE",
"1228 -353 CURVE",
"1199 -305 LINE",
"1147 -333 OFFCURVE",
"1063 -355 OFFCURVE",
"1023 -355 CURVE SMOOTH",
"1011 -355 OFFCURVE",
"1000 -352 OFFCURVE",
"989 -347 CURVE SMOOTH",
"948 -327 OFFCURVE",
"924 -273 OFFCURVE",
"924 -226 CURVE SMOOTH",
"924 -129 OFFCURVE",
"1059 -24 OFFCURVE",
"1185 60 CURVE SMOOTH",
"1349 170 OFFCURVE",
"1413 309 OFFCURVE",
"1413 529 CURVE SMOOTH",
"1413 1217 LINE",
"1566 1301 LINE",
"1581 1384 LINE",
"1015 1384 LINE",
"998 1304 LINE",
"1193 1221 LINE",
"1193 477 LINE SMOOTH",
"1193 277 OFFCURVE",
"1128 159 OFFCURVE",
"920 159 CURVE SMOOTH",
"683 159 OFFCURVE",
"571 318 OFFCURVE",
"571 536 CURVE SMOOTH"
);
}
);
};
layerId = UUID1;
name = Bold;
paths = (
{
closed = 1;
nodes = (
"571 1210 LINE",
"764 1283 LINE",
"783 1384 LINE",
"48 1384 LINE",
"31 1304 LINE",
"202 1221 LINE",
"202 469 LINE SMOOTH",
"202 134 OFFCURVE",
"393 -35 OFFCURVE",
"773 -35 CURVE SMOOTH",
"796 -35 OFFCURVE",
"822 -34 OFFCURVE",
"844 -32 CURVE",
"807 -53 OFFCURVE",
"770 -79 OFFCURVE",
"738 -109 CURVE SMOOTH",
"690 -154 OFFCURVE",
"655 -209 OFFCURVE",
"655 -277 CURVE SMOOTH",
"655 -440 OFFCURVE",
"788 -504 OFFCURVE",
"918 -504 CURVE SMOOTH",
"1036 -504 OFFCURVE",
"1146 -450 OFFCURVE",
"1228 -353 CURVE",
"1199 -305 LINE",
"1147 -333 OFFCURVE",
"1063 -355 OFFCURVE",
"1023 -355 CURVE SMOOTH",
"1011 -355 OFFCURVE",
"1000 -352 OFFCURVE",
"989 -347 CURVE SMOOTH",
"948 -327 OFFCURVE",
"924 -273 OFFCURVE",
"924 -226 CURVE SMOOTH",
"924 -129 OFFCURVE",
"1059 -24 OFFCURVE",
"1185 60 CURVE SMOOTH",
"1349 170 OFFCURVE",
"1413 309 OFFCURVE",
"1413 529 CURVE SMOOTH",
"1413 1217 LINE",
"1566 1301 LINE",
"1581 1384 LINE",
"1015 1384 LINE",
"998 1304 LINE",
"1193 1221 LINE",
"1193 477 LINE SMOOTH",
"1193 277 OFFCURVE",
"1128 159 OFFCURVE",
"920 159 CURVE SMOOTH",
"683 159 OFFCURVE",
"571 318 OFFCURVE",
"571 536 CURVE SMOOTH"
);
}
);
width = 1602;
},
{
background = {
paths = (
{
closed = 1;
nodes = (
"412 1235 LINE",
"603 1282 LINE",
"624 1384 LINE",
"65 1384 LINE",
"45 1302 LINE",
"219 1246 LINE",
"219 469 LINE",
"219 174 OFFCURVE",
"383 -35 OFFCURVE",
"730 -35 CURVE SMOOTH",
"765 -35 OFFCURVE",
"817 -32 OFFCURVE",
"853 -25 CURVE",
"816 -45 OFFCURVE",
"768 -76 OFFCURVE",
"739 -105 CURVE SMOOTH",
"688 -156 OFFCURVE",
"655 -215 OFFCURVE",
"655 -287 CURVE SMOOTH",
"655 -406 OFFCURVE",
"751 -475 OFFCURVE",
"857 -475 CURVE SMOOTH",
"946 -475 OFFCURVE",
"1021 -420 OFFCURVE",
"1097 -353 CURVE",
"1074 -313 LINE",
"1021 -338 OFFCURVE",
"963 -355 OFFCURVE",
"920 -355 CURVE SMOOTH",
"907 -355 OFFCURVE",
"895 -353 OFFCURVE",
"884 -349 CURVE SMOOTH",
"837 -331 OFFCURVE",
"802 -282 OFFCURVE",
"802 -236 CURVE SMOOTH",
"802 -161 OFFCURVE",
"906 -66 OFFCURVE",
"1014 14 CURVE SMOOTH",
"1141 109 OFFCURVE",
"1251 224 OFFCURVE",
"1251 472 CURVE SMOOTH",
"1251 1242 LINE",
"1400 1297 LINE",
"1421 1384 LINE",
"929 1384 LINE",
"908 1301 LINE",
"1108 1242 LINE",
"1108 477 LINE",
"1108 249 OFFCURVE",
"1009 103 OFFCURVE",
"811 103 CURVE SMOOTH",
"579 103 OFFCURVE",
"412 286 OFFCURVE",
"412 536 CURVE SMOOTH"
);
}
);
};
layerId = UUID0;
name = Regular;
paths = (
{
closed = 1;
nodes = (
"412 1235 LINE",
"603 1282 LINE",
"624 1384 LINE",
"65 1384 LINE",
"45 1302 LINE",
"219 1246 LINE",
"219 469 LINE",
"219 174 OFFCURVE",
"383 -35 OFFCURVE",
"730 -35 CURVE SMOOTH",
"765 -35 OFFCURVE",
"817 -32 OFFCURVE",
"853 -25 CURVE",
"816 -45 OFFCURVE",
"768 -76 OFFCURVE",
"739 -105 CURVE SMOOTH",
"688 -156 OFFCURVE",
"655 -215 OFFCURVE",
"655 -287 CURVE SMOOTH",
"655 -406 OFFCURVE",
"751 -475 OFFCURVE",
"857 -475 CURVE SMOOTH",
"946 -475 OFFCURVE",
"1021 -420 OFFCURVE",
"1097 -353 CURVE",
"1074 -313 LINE",
"1021 -338 OFFCURVE",
"963 -355 OFFCURVE",
"920 -355 CURVE SMOOTH",
"907 -355 OFFCURVE",
"895 -353 OFFCURVE",
"884 -349 CURVE SMOOTH",
"837 -331 OFFCURVE",
"802 -282 OFFCURVE",
"802 -236 CURVE SMOOTH",
"802 -161 OFFCURVE",
"906 -66 OFFCURVE",
"1014 14 CURVE SMOOTH",
"1141 109 OFFCURVE",
"1251 224 OFFCURVE",
"1251 472 CURVE SMOOTH",
"1251 1242 LINE",
"1400 1297 LINE",
"1421 1384 LINE",
"929 1384 LINE",
"908 1301 LINE",
"1108 1242 LINE",
"1108 477 LINE",
"1108 249 OFFCURVE",
"1009 103 OFFCURVE",
"811 103 CURVE SMOOTH",
"579 103 OFFCURVE",
"412 286 OFFCURVE",
"412 536 CURVE SMOOTH"
);
}
);
width = 1466;
}
);
leftKerningGroup = U;
leftMetricsKey = "=U";
rightKerningGroup = U;
rightMetricsKey = "=U";
unicode = 0172;
},
{
glyphname = V;
lastChange = "2015-03-23 17:17:51 +0000";
layers = (
{
background = {
paths = (
{
closed = 1;
nodes = (
"513 1221 LINE",
"672 1295 LINE",
"687 1384 LINE",
"-22 1384 LINE",
"-42 1293 LINE",
"105 1221 LINE",
"552 -35 LINE",
"936 0 LINE",
"1337 1221 LINE",
"1476 1293 LINE",
"1494 1384 LINE",
"973 1384 LINE",
"955 1293 LINE",
"1127 1221 LINE",
"848 202 LINE"
);
}
);
};
layerId = UUID1;
name = Bold;
paths = (
{
closed = 1;
nodes = (
"513 1221 LINE",
"672 1295 LINE",
"687 1384 LINE",
"-22 1384 LINE",
"-42 1293 LINE",
"105 1221 LINE",
"552 -35 LINE",
"936 0 LINE",
"1337 1221 LINE",
"1476 1293 LINE",
"1494 1384 LINE",
"973 1384 LINE",
"955 1293 LINE",
"1127 1221 LINE",
"848 202 LINE"
);
}
);
width = 1456;
},
{
background = {
paths = (
{
closed = 1;
nodes = (
"340 1250 LINE",
"506 1291 LINE",
"522 1384 LINE",
"-10 1384 LINE",
"-27 1288 LINE",
"108 1252 LINE",
"615 -35 LINE",
"762 0 LINE",
"1223 1252 LINE",
"1351 1289 LINE",
"1370 1384 LINE",
"914 1384 LINE",
"897 1290 LINE",
"1078 1256 LINE",
"731 202 LINE"
);
}
);
};
layerId = UUID0;
name = Regular;
paths = (
{
closed = 1;
nodes = (
"340 1250 LINE",
"506 1291 LINE",
"522 1384 LINE",
"-10 1384 LINE",
"-27 1288 LINE",
"108 1252 LINE",
"615 -35 LINE",
"762 0 LINE",
"1223 1252 LINE",
"1351 1289 LINE",
"1370 1384 LINE",
"914 1384 LINE",
"897 1290 LINE",
"1078 1256 LINE",
"731 202 LINE"
);
}
);
width = 1345;
}
);
leftKerningGroup = V;
rightKerningGroup = V;
unicode = 0056;
},
{
glyphname = W;
lastChange = "2015-03-23 17:17:51 +0000";
layers = (
{
anchors = (
{
name = top;
position = "{1222, 1384}";
}
);
background = {
anchors = (
{
name = top;
position = "{1222, 1384}";
}
);
paths = (
{
closed = 1;
nodes = (
"1425 -35 LINE",
"1813 0 LINE",
"2184 1221 LINE",
"2320 1290 LINE",
"2338 1384 LINE",
"1796 1384 LINE",
"1775 1291 LINE",
"1971 1221 LINE",
"1685 58 LINE",
"1768 60 LINE",
"1409 1221 LINE",
"1594 1291 LINE",
"1611 1384 LINE",
"891 1384 LINE",
"873 1296 LINE",
"1023 1221 LINE"
);
},
{
closed = 1;
nodes = (
"1074 1092 LINE",
"740 61 LINE",
"826 58 LINE",
"529 1221 LINE",
"681 1294 LINE",
"696 1384 LINE",
"0 1384 LINE",
"-17 1291 LINE",
"133 1221 LINE",
"491 -35 LINE",
"881 0 LINE",
"1161 822 LINE"
);
}
);
};
layerId = UUID1;
name = Bold;
paths = (
{
closed = 1;
nodes = (
"1425 -35 LINE",
"1813 0 LINE",
"2184 1221 LINE",
"2320 1290 LINE",
"2338 1384 LINE",
"1796 1384 LINE",
"1775 1291 LINE",
"1971 1221 LINE",
"1685 58 LINE",
"1768 60 LINE",
"1409 1221 LINE",
"1594 1291 LINE",
"1611 1384 LINE",
"891 1384 LINE",
"873 1296 LINE",
"1023 1221 LINE"
);
},
{
closed = 1;
nodes = (
"1074 1092 LINE",
"740 61 LINE",
"826 58 LINE",
"529 1221 LINE",
"681 1294 LINE",
"696 1384 LINE",
"0 1384 LINE",
"-17 1291 LINE",
"133 1221 LINE",
"491 -35 LINE",
"881 0 LINE",
"1161 822 LINE"
);
}
);
width = 2302;
},
{
anchors = (
{
name = top;
position = "{1022, 1384}";
}
);
background = {
anchors = (
{
name = top;
position = "{1022, 1384}";
}
);
paths = (
{
closed = 1;
nodes = (
"1297 -35 LINE",
"1438 0 LINE",
"1864 1252 LINE",
"1991 1289 LINE",
"2008 1384 LINE",
"1543 1384 LINE",
"1524 1289 LINE",
"1725 1255 LINE",
"1387 175 LINE",
"1424 175 LINE",
"1094 1248 LINE",
"1289 1290 LINE",
"1305 1384 LINE",
"764 1384 LINE",
"748 1293 LINE",
"887 1255 LINE"
);
},
{
closed = 1;
nodes = (
"948 1092 LINE",
"633 176 LINE",
"671 175 LINE",
"352 1250 LINE",
"510 1291 LINE",
"526 1384 LINE",
"9 1384 LINE",
"-9 1288 LINE",
"133 1251 LINE",
"543 -35 LINE",
"687 0 LINE",
"998 935 LINE"
);
}
);
};
layerId = UUID0;
name = Regular;
paths = (
{
closed = 1;
nodes = (
"1297 -35 LINE",
"1438 0 LINE",
"1864 1252 LINE",
"1991 1289 LINE",
"2008 1384 LINE",
"1543 1384 LINE",
"1524 1289 LINE",
"1725 1255 LINE",
"1387 175 LINE",
"1424 175 LINE",
"1094 1248 LINE",
"1289 1290 LINE",
"1305 1384 LINE",
"764 1384 LINE",
"748 1293 LINE",
"887 1255 LINE"
);
},
{
closed = 1;
nodes = (
"948 1092 LINE",
"633 176 LINE",
"671 175 LINE",
"352 1250 LINE",
"510 1291 LINE",
"526 1384 LINE",
"9 1384 LINE",
"-9 1288 LINE",
"133 1251 LINE",
"543 -35 LINE",
"687 0 LINE",
"998 935 LINE"
);
}
);
width = 1983;
}
);
leftKerningGroup = V;
rightKerningGroup = V;
unicode = 0057;
},
{
glyphname = X;
lastChange = "2015-03-23 17:17:51 +0000";
layers = (
{
background = {
paths = (
{
closed = 1;
nodes = (
"934 695 LINE",
"1303 1221 LINE",
"1461 1288 LINE",
"1480 1384 LINE",
"943 1384 LINE",
"927 1306 LINE",
"1067 1222 LINE",
"841 841 LINE"
);
},
{
closed = 1;
nodes = (
"560 682 LINE",
"182 161 LINE",
"25 92 LINE",
"9 0 LINE",
"544 0 LINE",
"563 80 LINE",
"421 160 LINE",
"653 537 LINE"
);
},
{
closed = 1;
nodes = (
"899 776 LINE",
"611 1222 LINE",
"745 1299 LINE",
"759 1384 LINE",
"35 1384 LINE",
"15 1287 LINE",
"176 1221 LINE",
"595 601 LINE",
"882 161 LINE",
"749 84 LINE",
"734 0 LINE",
"1466 0 LINE",
"1481 86 LINE",
"1322 157 LINE"
);
}
);
};
layerId = UUID1;
name = Bold;
paths = (
{
closed = 1;
nodes = (
"934 695 LINE",
"1303 1221 LINE",
"1461 1288 LINE",
"1480 1384 LINE",
"943 1384 LINE",
"927 1306 LINE",
"1067 1222 LINE",
"841 841 LINE"
);
},
{
closed = 1;
nodes = (
"560 682 LINE",
"182 161 LINE",
"25 92 LINE",
"9 0 LINE",
"544 0 LINE",
"563 80 LINE",
"421 160 LINE",
"653 537 LINE"
);
},
{
closed = 1;
nodes = (
"899 776 LINE",
"611 1222 LINE",
"745 1299 LINE",
"759 1384 LINE",
"35 1384 LINE",
"15 1287 LINE",
"176 1221 LINE",
"595 601 LINE",
"882 161 LINE",
"749 84 LINE",
"734 0 LINE",
"1466 0 LINE",
"1481 86 LINE",
"1322 157 LINE"
);
}
);
width = 1491;
},
{
background = {
paths = (
{
closed = 1;
nodes = (
"767 687 LINE",
"1163 1252 LINE",
"1299 1286 LINE",
"1318 1384 LINE",
"848 1384 LINE",
"831 1301 LINE",
"1003 1249 LINE",
"708 785 LINE"
);
},
{
closed = 1;
nodes = (
"583 688 LINE",
"181 136 LINE",
"43 93 LINE",
"27 0 LINE",
"496 0 LINE",
"515 83 LINE",
"342 135 LINE",
"641 593 LINE"
);
},
{
closed = 1;
nodes = (
"746 746 LINE",
"414 1248 LINE",
"563 1296 LINE",
"578 1384 LINE",
"50 1384 LINE",
"32 1284 LINE",
"172 1252 LINE",
"604 631 LINE",
"935 136 LINE",
"787 88 LINE",
"772 0 LINE",
"1305 0 LINE",
"1320 89 LINE",
"1178 132 LINE"
);
}
);
};
layerId = UUID0;
name = Regular;
paths = (
{
closed = 1;
nodes = (
"767 687 LINE",
"1163 1252 LINE",
"1299 1286 LINE",
"1318 1384 LINE",
"848 1384 LINE",
"831 1301 LINE",
"1003 1249 LINE",
"708 785 LINE"
);
},
{
closed = 1;
nodes = (
"583 688 LINE",
"181 136 LINE",
"43 93 LINE",
"27 0 LINE",
"496 0 LINE",
"515 83 LINE",
"342 135 LINE",
"641 593 LINE"
);
},
{
closed = 1;
nodes = (
"746 746 LINE",
"414 1248 LINE",
"563 1296 LINE",
"578 1384 LINE",
"50 1384 LINE",
"32 1284 LINE",
"172 1252 LINE",
"604 631 LINE",
"935 136 LINE",
"787 88 LINE",
"772 0 LINE",
"1305 0 LINE",
"1320 89 LINE",
"1178 132 LINE"
);
}
);
width = 1346;
}
);
leftKerningGroup = X;
rightKerningGroup = X;
unicode = 0058;
},
{
glyphname = Y;
lastChange = "2015-03-23 17:17:51 +0000";
layers = (
{
anchors = (
{
name = bottom;
position = "{674, 0}";
},
{
name = top;
position = "{690, 1384}";
}
);
background = {
anchors = (
{
name = top;
position = "{690, 1384}";
},
{
name = bottom;
position = "{674, 0}";
}
);
paths = (
{
closed = 1;
nodes = (
"302 0 LINE",
"1042 0 LINE",
"1059 81 LINE",
"854 159 LINE",
"854 560 LINE",
"1214 1221 LINE",
"1359 1290 LINE",
"1374 1384 LINE",
"844 1384 LINE",
"826 1304 LINE",
"1002 1221 LINE",
"920 1062 OFFCURVE",
"845 890 OFFCURVE",
"780 704 CURVE",
"490 1221 LINE",
"636 1297 LINE",
"653 1384 LINE",
"-23 1384 LINE",
"-41 1291 LINE",
"102 1221 LINE",
"494 558 LINE",
"494 159 LINE",
"318 82 LINE"
);
}
);
};
layerId = UUID1;
name = Bold;
paths = (
{
closed = 1;
nodes = (
"302 0 LINE",
"1042 0 LINE",
"1059 81 LINE",
"854 159 LINE",
"854 560 LINE",
"1214 1221 LINE",
"1359 1290 LINE",
"1374 1384 LINE",
"844 1384 LINE",
"826 1304 LINE",
"1002 1221 LINE",
"920 1062 OFFCURVE",
"845 890 OFFCURVE",
"780 704 CURVE",
"490 1221 LINE",
"636 1297 LINE",
"653 1384 LINE",
"-23 1384 LINE",
"-41 1291 LINE",
"102 1221 LINE",
"494 558 LINE",
"494 159 LINE",
"318 82 LINE"
);
}
);
width = 1339;
},
{
anchors = (
{
name = bottom;
position = "{606, 0}";
},
{
name = top;
position = "{610, 1384}";
}
);
background = {
anchors = (
{
name = top;
position = "{610, 1384}";
},
{
name = bottom;
position = "{606, 0}";
}
);
paths = (
{
closed = 1;
nodes = (
"323 0 LINE",
"885 0 LINE",
"901 83 LINE",
"702 139 LINE",
"702 560 LINE",
"1070 1252 LINE",
"1199 1289 LINE",
"1214 1384 LINE",
"755 1384 LINE",
"738 1301 LINE",
"926 1244 LINE",
"835 1052 OFFCURVE",
"712 820 OFFCURVE",
"652 667 CURVE",
"316 1247 LINE",
"478 1295 LINE",
"494 1384 LINE",
"-13 1384 LINE",
"-30 1290 LINE",
"101 1251 LINE",
"510 558 LINE",
"510 139 LINE",
"337 84 LINE"
);
}
);
};
layerId = UUID0;
name = Regular;
paths = (
{
closed = 1;
nodes = (
"323 0 LINE",
"885 0 LINE",
"901 83 LINE",
"702 139 LINE",
"702 560 LINE",
"1070 1252 LINE",
"1199 1289 LINE",
"1214 1384 LINE",
"755 1384 LINE",
"738 1301 LINE",
"926 1244 LINE",
"835 1052 OFFCURVE",
"712 820 OFFCURVE",
"652 667 CURVE",
"316 1247 LINE",
"478 1295 LINE",
"494 1384 LINE",
"-13 1384 LINE",
"-30 1290 LINE",
"101 1251 LINE",
"510 558 LINE",
"510 139 LINE",
"337 84 LINE"
);
}
);
width = 1199;
}
);
leftKerningGroup = Y;
rightKerningGroup = Y;
unicode = 0059;
},
{
glyphname = Z;
lastChange = "2015-03-23 17:17:51 +0000";
layers = (
{
anchors = (
{
name = bottom;
position = "{626, 0}";
},
{
name = top;
position = "{682, 1384}";
}
);
background = {
anchors = (
{
name = top;
position = "{682, 1384}";
},
{
name = bottom;
position = "{626, 0}";
}
);
paths = (
{
closed = 1;
nodes = (
"447 116 LINE",
"1253 1262 LINE",
"1214 1384 LINE",
"379 1384 LINE",
"129 1394 LINE",
"90 1035 LINE",
"235 1017 LINE",
"339 1232 LINE",
"845 1277 LINE",
"46 150 LINE",
"98 0 LINE",
"1186 0 LINE",
"1266 367 LINE",
"1135 385 LINE",
"1009 172 LINE"
);
}
);
};
layerId = UUID1;
name = Bold;
paths = (
{
closed = 1;
nodes = (
"447 116 LINE",
"1253 1262 LINE",
"1214 1384 LINE",
"379 1384 LINE",
"129 1394 LINE",
"90 1035 LINE",
"235 1017 LINE",
"339 1232 LINE",
"845 1277 LINE",
"46 150 LINE",
"98 0 LINE",
"1186 0 LINE",
"1266 367 LINE",
"1135 385 LINE",
"1009 172 LINE"
);
}
);
width = 1321;
},
{
anchors = (
{
name = bottom;
position = "{636, 0}";
},
{
name = top;
position = "{625, 1384}";
}
);
background = {
anchors = (
{
name = top;
position = "{625, 1384}";
},
{
name = bottom;
position = "{636, 0}";
}
);
paths = (
{
closed = 1;
nodes = (
"279 116 LINE",
"1153 1261 LINE",
"1111 1384 LINE",
"281 1384 LINE",
"153 1394 LINE",
"99 1035 LINE",
"198 1010 LINE",
"300 1232 LINE",
"936 1283 LINE",
"65 151 LINE",
"125 0 LINE",
"1079 0 LINE",
"1163 355 LINE",
"1071 377 LINE",
"946 160 LINE"
);
}
);
};
layerId = UUID0;
name = Regular;
paths = (
{
closed = 1;
nodes = (
"279 116 LINE",
"1153 1261 LINE",
"1111 1384 LINE",
"281 1384 LINE",
"153 1394 LINE",
"99 1035 LINE",
"198 1010 LINE",
"300 1232 LINE",
"936 1283 LINE",
"65 151 LINE",
"125 0 LINE",
"1079 0 LINE",
"1163 355 LINE",
"1071 377 LINE",
"946 160 LINE"
);
}
);
width = 1236;
}
);
leftKerningGroup = Z;
rightKerningGroup = Z;
unicode = 005A;
},
{
glyphname = a;
lastChange = "2015-03-23 17:17:52 +0000";
layers = (
{
anchors = (
{
name = bottom;
position = "{586, 0}";
},
{
name = ogonek;
position = "{989, 0}";
},
{
name = top;
position = "{541, 950}";
}
);
background = {
anchors = (
{
name = ogonek;
position = "{989, 0}";
},
{
name = bottom;
position = "{586, 0}";
},
{
name = top;
position = "{541, 950}";
}
);
paths = (
{
closed = 1;
nodes = (
"51 125 OFFCURVE",
"120 -25 OFFCURVE",
"352 -25 CURVE SMOOTH",
"524 -25 OFFCURVE",
"593 41 OFFCURVE",
"665 132 CURVE",
"743 95 OFFCURVE",
"793 39 OFFCURVE",
"835 -25 CURVE",
"964 -25 OFFCURVE",
"1058 -5 OFFCURVE",
"1141 35 CURVE",
"1156 93 LINE",
"1072 116 OFFCURVE",
"1012 147 OFFCURVE",
"982 202 CURVE",
"982 674 LINE SMOOTH",
"982 846 OFFCURVE",
"899 975 OFFCURVE",
"659 975 CURVE SMOOTH",
"582 975 OFFCURVE",
"394 968 OFFCURVE",
"248 923 CURVE SMOOTH",
"191 905 OFFCURVE",
"84 858 OFFCURVE",
"84 825 CURVE SMOOTH",
"84 757 OFFCURVE",
"245 621 OFFCURVE",
"290 621 CURVE SMOOTH",
"314 621 OFFCURVE",
"375 659 OFFCURVE",
"412 702 CURVE",
"439 868 LINE",
"451 872 OFFCURVE",
"467 875 OFFCURVE",
"483 875 CURVE SMOOTH",
"517 875 OFFCURVE",
"553 867 OFFCURVE",
"574 851 CURVE SMOOTH",
"632 805 OFFCURVE",
"638 671 OFFCURVE",
"638 585 CURVE SMOOTH",
"638 531 LINE",
"576 542 OFFCURVE",
"491 547 OFFCURVE",
"427 547 CURVE SMOOTH",
"345 547 OFFCURVE",
"269 538 OFFCURVE",
"204 509 CURVE SMOOTH",
"96 461 OFFCURVE",
"51 365 OFFCURVE",
"51 241 CURVE SMOOTH"
);
},
{
closed = 1;
nodes = (
"405 184 OFFCURVE",
"386 261 OFFCURVE",
"386 317 CURVE SMOOTH",
"386 335 OFFCURVE",
"388 363 OFFCURVE",
"398 380 CURVE SMOOTH",
"407 396 OFFCURVE",
"491 432 OFFCURVE",
"638 463 CURVE",
"638 165 LINE",
"594 151 OFFCURVE",
"505 135 OFFCURVE",
"454 135 CURVE SMOOTH",
"443 135 OFFCURVE",
"432 140 OFFCURVE",
"426 150 CURVE SMOOTH"
);
}
);
};
layerId = UUID1;
name = Bold;
paths = (
{
closed = 1;
nodes = (
"51 125 OFFCURVE",
"120 -25 OFFCURVE",
"352 -25 CURVE SMOOTH",
"524 -25 OFFCURVE",
"593 41 OFFCURVE",
"665 132 CURVE",
"743 95 OFFCURVE",
"793 39 OFFCURVE",
"835 -25 CURVE",
"964 -25 OFFCURVE",
"1058 -5 OFFCURVE",
"1141 35 CURVE",
"1156 93 LINE",
"1072 116 OFFCURVE",
"1012 147 OFFCURVE",
"982 202 CURVE",
"982 674 LINE SMOOTH",
"982 846 OFFCURVE",
"899 975 OFFCURVE",
"659 975 CURVE SMOOTH",
"582 975 OFFCURVE",
"394 968 OFFCURVE",
"248 923 CURVE SMOOTH",
"191 905 OFFCURVE",
"84 858 OFFCURVE",
"84 825 CURVE SMOOTH",
"84 757 OFFCURVE",
"245 621 OFFCURVE",
"290 621 CURVE SMOOTH",
"314 621 OFFCURVE",
"375 659 OFFCURVE",
"412 702 CURVE",
"439 868 LINE",
"451 872 OFFCURVE",
"467 875 OFFCURVE",
"483 875 CURVE SMOOTH",
"517 875 OFFCURVE",
"553 867 OFFCURVE",
"574 851 CURVE SMOOTH",
"632 805 OFFCURVE",
"638 671 OFFCURVE",
"638 585 CURVE SMOOTH",
"638 531 LINE",
"576 542 OFFCURVE",
"491 547 OFFCURVE",
"427 547 CURVE SMOOTH",
"345 547 OFFCURVE",
"269 538 OFFCURVE",
"204 509 CURVE SMOOTH",
"96 461 OFFCURVE",
"51 365 OFFCURVE",
"51 241 CURVE SMOOTH"
);
},
{
closed = 1;
nodes = (
"405 184 OFFCURVE",
"386 261 OFFCURVE",
"386 317 CURVE SMOOTH",
"386 335 OFFCURVE",
"388 363 OFFCURVE",
"398 380 CURVE SMOOTH",
"407 396 OFFCURVE",
"491 432 OFFCURVE",
"638 463 CURVE",
"638 165 LINE",
"594 151 OFFCURVE",
"505 135 OFFCURVE",
"454 135 CURVE SMOOTH",
"443 135 OFFCURVE",
"432 140 OFFCURVE",
"426 150 CURVE SMOOTH"
);
}
);
width = 1145;
},
{
anchors = (
{
name = bottom;
position = "{476, 0}";
},
{
name = ogonek;
position = "{824, 10}";
},
{
name = top;
position = "{458, 950}";
}
);
background = {
anchors = (
{
name = ogonek;
position = "{824, 10}";
},
{
name = bottom;
position = "{476, 0}";
},
{
name = top;
position = "{458, 950}";
}
);
paths = (
{
closed = 1;
nodes = (
"68 125 OFFCURVE",
"138 -25 OFFCURVE",
"326 -25 CURVE SMOOTH",
"437 -25 OFFCURVE",
"595 68 OFFCURVE",
"638 132 CURVE",
"680 81 OFFCURVE",
"703 33 OFFCURVE",
"723 -25 CURVE",
"793 -21 OFFCURVE",
"875 0 OFFCURVE",
"951 35 CURVE",
"963 93 LINE",
"892 109 OFFCURVE",
"838 142 OFFCURVE",
"790 192 CURVE",
"790 674 LINE",
"790 846 OFFCURVE",
"724 975 OFFCURVE",
"530 975 CURVE SMOOTH",
"473 975 OFFCURVE",
"294 938 OFFCURVE",
"187 879 CURVE SMOOTH",
"144 855 OFFCURVE",
"103 823 OFFCURVE",
"103 779 CURVE SMOOTH",
"103 720 OFFCURVE",
"168 671 OFFCURVE",
"220 671 CURVE SMOOTH",
"243 671 OFFCURVE",
"264 677 OFFCURVE",
"281 686 CURVE",
"315 868 LINE",
"334 872 OFFCURVE",
"358 875 OFFCURVE",
"382 875 CURVE SMOOTH",
"430 875 OFFCURVE",
"481 867 OFFCURVE",
"510 851 CURVE SMOOTH",
"601 802 OFFCURVE",
"611 665 OFFCURVE",
"611 575 CURVE SMOOTH",
"611 521 LINE",
"585 523 OFFCURVE",
"558 524 OFFCURVE",
"531 524 CURVE SMOOTH",
"442 524 OFFCURVE",
"302 511 OFFCURVE",
"218 475 CURVE SMOOTH",
"111 430 OFFCURVE",
"68 371 OFFCURVE",
"68 241 CURVE SMOOTH"
);
},
{
closed = 1;
nodes = (
"300 133 OFFCURVE",
"252 223 OFFCURVE",
"252 291 CURVE SMOOTH",
"252 316 OFFCURVE",
"255 341 OFFCURVE",
"271 357 CURVE SMOOTH",
"295 383 OFFCURVE",
"394 443 OFFCURVE",
"611 458 CURVE",
"611 165 LINE",
"558 138 OFFCURVE",
"453 106 OFFCURVE",
"390 106 CURVE SMOOTH",
"377 106 OFFCURVE",
"365 108 OFFCURVE",
"356 112 CURVE SMOOTH"
);
}
);
};
layerId = UUID0;
name = Regular;
paths = (
{
closed = 1;
nodes = (
"68 125 OFFCURVE",
"138 -25 OFFCURVE",
"326 -25 CURVE SMOOTH",
"437 -25 OFFCURVE",
"595 68 OFFCURVE",
"638 132 CURVE",
"680 81 OFFCURVE",
"703 33 OFFCURVE",
"723 -25 CURVE",
"793 -21 OFFCURVE",
"875 0 OFFCURVE",
"951 35 CURVE",
"963 93 LINE",
"892 109 OFFCURVE",
"838 142 OFFCURVE",
"790 192 CURVE",
"790 674 LINE",
"790 846 OFFCURVE",
"724 975 OFFCURVE",
"530 975 CURVE SMOOTH",
"473 975 OFFCURVE",
"294 938 OFFCURVE",
"187 879 CURVE SMOOTH",
"144 855 OFFCURVE",
"103 823 OFFCURVE",
"103 779 CURVE SMOOTH",
"103 720 OFFCURVE",
"168 671 OFFCURVE",
"220 671 CURVE SMOOTH",
"243 671 OFFCURVE",
"264 677 OFFCURVE",
"281 686 CURVE",
"315 868 LINE",
"334 872 OFFCURVE",
"358 875 OFFCURVE",
"382 875 CURVE SMOOTH",
"430 875 OFFCURVE",
"481 867 OFFCURVE",
"510 851 CURVE SMOOTH",
"601 802 OFFCURVE",
"611 665 OFFCURVE",
"611 575 CURVE SMOOTH",
"611 521 LINE",
"585 523 OFFCURVE",
"558 524 OFFCURVE",
"531 524 CURVE SMOOTH",
"442 524 OFFCURVE",
"302 511 OFFCURVE",
"218 475 CURVE SMOOTH",
"111 430 OFFCURVE",
"68 371 OFFCURVE",
"68 241 CURVE SMOOTH"
);
},
{
closed = 1;
nodes = (
"300 133 OFFCURVE",
"252 223 OFFCURVE",
"252 291 CURVE SMOOTH",
"252 316 OFFCURVE",
"255 341 OFFCURVE",
"271 357 CURVE SMOOTH",
"295 383 OFFCURVE",
"394 443 OFFCURVE",
"611 458 CURVE",
"611 165 LINE",
"558 138 OFFCURVE",
"453 106 OFFCURVE",
"390 106 CURVE SMOOTH",
"377 106 OFFCURVE",
"365 108 OFFCURVE",
"356 112 CURVE SMOOTH"
);
}
);
width = 971;
}
);
leftKerningGroup = a;
rightKerningGroup = n;
unicode = 0061;
},
{
glyphname = aogonek;
lastChange = "2015-03-23 17:17:51 +0000";
layers = (
{
background = {
paths = (
{
closed = 1;
nodes = (
"51 125 OFFCURVE",
"129 -25 OFFCURVE",
"331 -25 CURVE SMOOTH",
"533 -25 OFFCURVE",
"593 41 OFFCURVE",
"665 132 CURVE",
"720 112 OFFCURVE",
"772 55 OFFCURVE",
"801 20 CURVE",
"666 -32 OFFCURVE",
"502 -135 OFFCURVE",
"502 -277 CURVE SMOOTH",
"502 -440 OFFCURVE",
"635 -504 OFFCURVE",
"765 -504 CURVE SMOOTH",
"883 -504 OFFCURVE",
"993 -450 OFFCURVE",
"1075 -352 CURVE",
"1046 -307 LINE",
"984 -336 OFFCURVE",
"910 -355 OFFCURVE",
"870 -355 CURVE SMOOTH",
"858 -355 OFFCURVE",
"846 -352 OFFCURVE",
"836 -347 CURVE SMOOTH",
"795 -327 OFFCURVE",
"771 -273 OFFCURVE",
"771 -226 CURVE SMOOTH",
"771 -125 OFFCURVE",
"919 -22 OFFCURVE",
"1140 32 CURVE",
"1156 94 LINE",
"1076 114 OFFCURVE",
"1012 147 OFFCURVE",
"982 202 CURVE",
"982 674 LINE SMOOTH",
"982 846 OFFCURVE",
"899 975 OFFCURVE",
"659 975 CURVE SMOOTH",
"582 975 OFFCURVE",
"394 968 OFFCURVE",
"248 923 CURVE SMOOTH",
"191 905 OFFCURVE",
"84 858 OFFCURVE",
"84 825 CURVE SMOOTH",
"84 757 OFFCURVE",
"245 621 OFFCURVE",
"290 621 CURVE SMOOTH",
"314 621 OFFCURVE",
"375 659 OFFCURVE",
"412 702 CURVE",
"439 868 LINE",
"451 872 OFFCURVE",
"467 875 OFFCURVE",
"483 875 CURVE SMOOTH",
"517 875 OFFCURVE",
"553 867 OFFCURVE",
"574 851 CURVE SMOOTH",
"632 805 OFFCURVE",
"638 671 OFFCURVE",
"638 585 CURVE SMOOTH",
"638 531 LINE",
"576 542 OFFCURVE",
"491 547 OFFCURVE",
"418 547 CURVE SMOOTH",
"345 547 OFFCURVE",
"269 538 OFFCURVE",
"204 509 CURVE SMOOTH",
"96 461 OFFCURVE",
"51 365 OFFCURVE",
"51 241 CURVE SMOOTH"
);
},
{
closed = 1;
nodes = (
"405 184 OFFCURVE",
"386 249 OFFCURVE",
"386 301 CURVE SMOOTH",
"386 323 OFFCURVE",
"388 363 OFFCURVE",
"398 380 CURVE SMOOTH",
"407 396 OFFCURVE",
"491 432 OFFCURVE",
"638 463 CURVE",
"638 165 LINE",
"594 151 OFFCURVE",
"505 135 OFFCURVE",
"454 135 CURVE SMOOTH",
"443 135 OFFCURVE",
"432 140 OFFCURVE",
"426 150 CURVE SMOOTH"
);
}
);
};
layerId = UUID1;
name = Bold;
paths = (
{
closed = 1;
nodes = (
"51 125 OFFCURVE",
"129 -25 OFFCURVE",
"331 -25 CURVE SMOOTH",
"533 -25 OFFCURVE",
"593 41 OFFCURVE",
"665 132 CURVE",
"720 112 OFFCURVE",
"772 55 OFFCURVE",
"801 20 CURVE",
"666 -32 OFFCURVE",
"502 -135 OFFCURVE",
"502 -277 CURVE SMOOTH",
"502 -440 OFFCURVE",
"635 -504 OFFCURVE",
"765 -504 CURVE SMOOTH",
"883 -504 OFFCURVE",
"993 -450 OFFCURVE",
"1075 -352 CURVE",
"1046 -307 LINE",
"984 -336 OFFCURVE",
"910 -355 OFFCURVE",
"870 -355 CURVE SMOOTH",
"858 -355 OFFCURVE",
"846 -352 OFFCURVE",
"836 -347 CURVE SMOOTH",
"795 -327 OFFCURVE",
"771 -273 OFFCURVE",
"771 -226 CURVE SMOOTH",
"771 -125 OFFCURVE",
"919 -22 OFFCURVE",
"1140 32 CURVE",
"1156 94 LINE",
"1076 114 OFFCURVE",
"1012 147 OFFCURVE",
"982 202 CURVE",
"982 674 LINE SMOOTH",
"982 846 OFFCURVE",
"899 975 OFFCURVE",
"659 975 CURVE SMOOTH",
"582 975 OFFCURVE",
"394 968 OFFCURVE",
"248 923 CURVE SMOOTH",
"191 905 OFFCURVE",
"84 858 OFFCURVE",
"84 825 CURVE SMOOTH",
"84 757 OFFCURVE",
"245 621 OFFCURVE",
"290 621 CURVE SMOOTH",
"314 621 OFFCURVE",
"375 659 OFFCURVE",
"412 702 CURVE",
"439 868 LINE",
"451 872 OFFCURVE",
"467 875 OFFCURVE",
"483 875 CURVE SMOOTH",
"517 875 OFFCURVE",
"553 867 OFFCURVE",
"574 851 CURVE SMOOTH",
"632 805 OFFCURVE",
"638 671 OFFCURVE",
"638 585 CURVE SMOOTH",
"638 531 LINE",
"576 542 OFFCURVE",
"491 547 OFFCURVE",
"418 547 CURVE SMOOTH",
"345 547 OFFCURVE",
"269 538 OFFCURVE",
"204 509 CURVE SMOOTH",
"96 461 OFFCURVE",
"51 365 OFFCURVE",
"51 241 CURVE SMOOTH"
);
},
{
closed = 1;
nodes = (
"405 184 OFFCURVE",
"386 249 OFFCURVE",
"386 301 CURVE SMOOTH",
"386 323 OFFCURVE",
"388 363 OFFCURVE",
"398 380 CURVE SMOOTH",
"407 396 OFFCURVE",
"491 432 OFFCURVE",
"638 463 CURVE",
"638 165 LINE",
"594 151 OFFCURVE",
"505 135 OFFCURVE",
"454 135 CURVE SMOOTH",
"443 135 OFFCURVE",
"432 140 OFFCURVE",
"426 150 CURVE SMOOTH"
);
}
);
width = 1145;
},
{
background = {
paths = (
{
closed = 1;
nodes = (
"68 125 OFFCURVE",
"138 -25 OFFCURVE",
"326 -25 CURVE SMOOTH",
"437 -25 OFFCURVE",
"595 68 OFFCURVE",
"638 132 CURVE",
"660 112 OFFCURVE",
"693 43 OFFCURVE",
"708 5 CURVE",
"586 -49 OFFCURVE",
"450 -138 OFFCURVE",
"450 -288 CURVE SMOOTH",
"450 -407 OFFCURVE",
"547 -476 OFFCURVE",
"652 -476 CURVE SMOOTH",
"741 -476 OFFCURVE",
"817 -421 OFFCURVE",
"892 -355 CURVE",
"871 -315 LINE",
"820 -338 OFFCURVE",
"759 -356 OFFCURVE",
"716 -356 CURVE SMOOTH",
"697 -356 OFFCURVE",
"679 -351 OFFCURVE",
"663 -342 CURVE SMOOTH",
"624 -320 OFFCURVE",
"598 -277 OFFCURVE",
"598 -237 CURVE SMOOTH",
"598 -123 OFFCURVE",
"708 -39 OFFCURVE",
"949 32 CURVE",
"963 94 LINE",
"880 116 OFFCURVE",
"820 147 OFFCURVE",
"790 202 CURVE",
"790 674 LINE",
"790 846 OFFCURVE",
"724 975 OFFCURVE",
"530 975 CURVE SMOOTH",
"473 975 OFFCURVE",
"294 938 OFFCURVE",
"187 879 CURVE SMOOTH",
"144 855 OFFCURVE",
"103 823 OFFCURVE",
"103 779 CURVE SMOOTH",
"103 720 OFFCURVE",
"168 671 OFFCURVE",
"220 671 CURVE SMOOTH",
"243 671 OFFCURVE",
"264 677 OFFCURVE",
"281 686 CURVE",
"315 868 LINE",
"334 872 OFFCURVE",
"358 875 OFFCURVE",
"382 875 CURVE SMOOTH",
"430 875 OFFCURVE",
"481 867 OFFCURVE",
"510 851 CURVE SMOOTH",
"601 802 OFFCURVE",
"611 665 OFFCURVE",
"611 575 CURVE SMOOTH",
"611 521 LINE",
"585 523 OFFCURVE",
"558 524 OFFCURVE",
"531 524 CURVE SMOOTH",
"442 524 OFFCURVE",
"302 511 OFFCURVE",
"218 475 CURVE SMOOTH",
"111 430 OFFCURVE",
"68 371 OFFCURVE",
"68 241 CURVE SMOOTH"
);
},
{
closed = 1;
nodes = (
"300 133 OFFCURVE",
"252 223 OFFCURVE",
"252 291 CURVE SMOOTH",
"252 316 OFFCURVE",
"255 341 OFFCURVE",
"271 357 CURVE SMOOTH",
"295 383 OFFCURVE",
"394 443 OFFCURVE",
"611 458 CURVE",
"611 165 LINE",
"558 138 OFFCURVE",
"453 106 OFFCURVE",
"390 106 CURVE SMOOTH",
"377 106 OFFCURVE",
"365 108 OFFCURVE",
"356 112 CURVE SMOOTH"
);
}
);
};
layerId = UUID0;
name = Regular;
paths = (
{
closed = 1;
nodes = (
"68 125 OFFCURVE",
"138 -25 OFFCURVE",
"326 -25 CURVE SMOOTH",
"437 -25 OFFCURVE",
"595 68 OFFCURVE",
"638 132 CURVE",
"660 112 OFFCURVE",
"693 43 OFFCURVE",
"708 5 CURVE",
"586 -49 OFFCURVE",
"450 -138 OFFCURVE",
"450 -288 CURVE SMOOTH",
"450 -407 OFFCURVE",
"547 -476 OFFCURVE",
"652 -476 CURVE SMOOTH",
"741 -476 OFFCURVE",
"817 -421 OFFCURVE",
"892 -355 CURVE",
"871 -315 LINE",
"820 -338 OFFCURVE",
"759 -356 OFFCURVE",
"716 -356 CURVE SMOOTH",
"697 -356 OFFCURVE",
"679 -351 OFFCURVE",
"663 -342 CURVE SMOOTH",
"624 -320 OFFCURVE",
"598 -277 OFFCURVE",
"598 -237 CURVE SMOOTH",
"598 -123 OFFCURVE",
"708 -39 OFFCURVE",
"949 32 CURVE",
"963 94 LINE",
"880 116 OFFCURVE",
"820 147 OFFCURVE",
"790 202 CURVE",
"790 674 LINE",
"790 846 OFFCURVE",
"724 975 OFFCURVE",
"530 975 CURVE SMOOTH",
"473 975 OFFCURVE",
"294 938 OFFCURVE",
"187 879 CURVE SMOOTH",
"144 855 OFFCURVE",
"103 823 OFFCURVE",
"103 779 CURVE SMOOTH",
"103 720 OFFCURVE",
"168 671 OFFCURVE",
"220 671 CURVE SMOOTH",
"243 671 OFFCURVE",
"264 677 OFFCURVE",
"281 686 CURVE",
"315 868 LINE",
"334 872 OFFCURVE",
"358 875 OFFCURVE",
"382 875 CURVE SMOOTH",
"430 875 OFFCURVE",
"481 867 OFFCURVE",
"510 851 CURVE SMOOTH",
"601 802 OFFCURVE",
"611 665 OFFCURVE",
"611 575 CURVE SMOOTH",
"611 521 LINE",
"585 523 OFFCURVE",
"558 524 OFFCURVE",
"531 524 CURVE SMOOTH",
"442 524 OFFCURVE",
"302 511 OFFCURVE",
"218 475 CURVE SMOOTH",
"111 430 OFFCURVE",
"68 371 OFFCURVE",
"68 241 CURVE SMOOTH"
);
},
{
closed = 1;
nodes = (
"300 133 OFFCURVE",
"252 223 OFFCURVE",
"252 291 CURVE SMOOTH",
"252 316 OFFCURVE",
"255 341 OFFCURVE",
"271 357 CURVE SMOOTH",
"295 383 OFFCURVE",
"394 443 OFFCURVE",
"611 458 CURVE",
"611 165 LINE",
"558 138 OFFCURVE",
"453 106 OFFCURVE",
"390 106 CURVE SMOOTH",
"377 106 OFFCURVE",
"365 108 OFFCURVE",
"356 112 CURVE SMOOTH"
);
}
);
width = 972;
}
);
leftKerningGroup = a;
leftMetricsKey = "=a";
rightKerningGroup = n;
rightMetricsKey = "=a";
unicode = 0105;
},
{
glyphname = ae;
lastChange = "2015-03-23 17:17:51 +0000";
layers = (
{
anchors = (
{
name = top;
position = "{832, 950}";
}
);
background = {
anchors = (
{
name = top;
position = "{832, 950}";
}
);
paths = (
{
closed = 1;
nodes = (
"51 125 OFFCURVE",
"127 -25 OFFCURVE",
"321 -25 CURVE SMOOTH",
"495 -25 OFFCURVE",
"585 35 OFFCURVE",
"674 150 CURVE",
"759 36 OFFCURVE",
"916 -25 OFFCURVE",
"1070 -25 CURVE SMOOTH",
"1202 -25 OFFCURVE",
"1338 28 OFFCURVE",
"1410 152 CURVE",
"1394 183 LINE",
"1355 171 OFFCURVE",
"1219 142 OFFCURVE",
"1150 142 CURVE SMOOTH",
"1033 142 OFFCURVE",
"908 323 OFFCURVE",
"895 489 CURVE",
"1342 489 LINE SMOOTH",
"1390 489 OFFCURVE",
"1409 503 OFFCURVE",
"1423 525 CURVE SMOOTH",
"1451 570 OFFCURVE",
"1465 614 OFFCURVE",
"1465 657 CURVE SMOOTH",
"1465 822 OFFCURVE",
"1343 975 OFFCURVE",
"1122 975 CURVE SMOOTH",
"1020 975 OFFCURVE",
"929 954 OFFCURVE",
"851 918 CURVE",
"800 954 OFFCURVE",
"729 975 OFFCURVE",
"634 975 CURVE SMOOTH",
"559 975 OFFCURVE",
"375 968 OFFCURVE",
"233 923 CURVE SMOOTH",
"176 905 OFFCURVE",
"69 858 OFFCURVE",
"69 825 CURVE SMOOTH",
"69 757 OFFCURVE",
"230 621 OFFCURVE",
"275 621 CURVE SMOOTH",
"299 621 OFFCURVE",
"360 659 OFFCURVE",
"397 702 CURVE",
"424 868 LINE",
"436 872 OFFCURVE",
"452 875 OFFCURVE",
"468 875 CURVE SMOOTH",
"498 875 OFFCURVE",
"530 867 OFFCURVE",
"549 851 CURVE SMOOTH",
"606 802 OFFCURVE",
"613 665 OFFCURVE",
"613 575 CURVE SMOOTH",
"613 531 LINE",
"554 536 OFFCURVE",
"496 540 OFFCURVE",
"441 540 CURVE SMOOTH",
"356 540 OFFCURVE",
"274 524 OFFCURVE",
"212 500 CURVE SMOOTH",
"98 456 OFFCURVE",
"51 383 OFFCURVE",
"51 241 CURVE SMOOTH"
);
},
{
closed = 1;
nodes = (
"405 184 OFFCURVE",
"386 249 OFFCURVE",
"386 301 CURVE SMOOTH",
"386 324 OFFCURVE",
"386 348 OFFCURVE",
"398 370 CURVE SMOOTH",
"407 386 OFFCURVE",
"481 425 OFFCURVE",
"613 458 CURVE",
"613 182 LINE",
"578 149 OFFCURVE",
"502 135 OFFCURVE",
"454 135 CURVE SMOOTH",
"443 135 OFFCURVE",
"432 140 OFFCURVE",
"426 150 CURVE SMOOTH"
);
},
{
closed = 1;
nodes = (
"895 564 LINE",
"899 705 OFFCURVE",
"922 802 OFFCURVE",
"939 837 CURVE",
"951 857 OFFCURVE",
"975 859 OFFCURVE",
"991 859 CURVE SMOOTH",
"1075 859 OFFCURVE",
"1147 775 OFFCURVE",
"1147 612 CURVE"
);
}
);
};
layerId = UUID1;
name = Bold;
paths = (
{
closed = 1;
nodes = (
"51 125 OFFCURVE",
"127 -25 OFFCURVE",
"321 -25 CURVE SMOOTH",
"495 -25 OFFCURVE",
"585 35 OFFCURVE",
"674 150 CURVE",
"759 36 OFFCURVE",
"916 -25 OFFCURVE",
"1070 -25 CURVE SMOOTH",
"1202 -25 OFFCURVE",
"1338 28 OFFCURVE",
"1410 152 CURVE",
"1394 183 LINE",
"1355 171 OFFCURVE",
"1219 142 OFFCURVE",
"1150 142 CURVE SMOOTH",
"1033 142 OFFCURVE",
"908 323 OFFCURVE",
"895 489 CURVE",
"1342 489 LINE SMOOTH",
"1390 489 OFFCURVE",
"1409 503 OFFCURVE",
"1423 525 CURVE SMOOTH",
"1451 570 OFFCURVE",
"1465 614 OFFCURVE",
"1465 657 CURVE SMOOTH",
"1465 822 OFFCURVE",
"1343 975 OFFCURVE",
"1122 975 CURVE SMOOTH",
"1020 975 OFFCURVE",
"929 954 OFFCURVE",
"851 918 CURVE",
"800 954 OFFCURVE",
"729 975 OFFCURVE",
"634 975 CURVE SMOOTH",
"559 975 OFFCURVE",
"375 968 OFFCURVE",
"233 923 CURVE SMOOTH",
"176 905 OFFCURVE",
"69 858 OFFCURVE",
"69 825 CURVE SMOOTH",
"69 757 OFFCURVE",
"230 621 OFFCURVE",
"275 621 CURVE SMOOTH",
"299 621 OFFCURVE",
"360 659 OFFCURVE",
"397 702 CURVE",
"424 868 LINE",
"436 872 OFFCURVE",
"452 875 OFFCURVE",
"468 875 CURVE SMOOTH",
"498 875 OFFCURVE",
"530 867 OFFCURVE",
"549 851 CURVE SMOOTH",
"606 802 OFFCURVE",
"613 665 OFFCURVE",
"613 575 CURVE SMOOTH",
"613 531 LINE",
"554 536 OFFCURVE",
"496 540 OFFCURVE",
"441 540 CURVE SMOOTH",
"356 540 OFFCURVE",
"274 524 OFFCURVE",
"212 500 CURVE SMOOTH",
"98 456 OFFCURVE",
"51 383 OFFCURVE",
"51 241 CURVE SMOOTH"
);
},
{
closed = 1;
nodes = (
"405 184 OFFCURVE",
"386 249 OFFCURVE",
"386 301 CURVE SMOOTH",
"386 324 OFFCURVE",
"386 348 OFFCURVE",
"398 370 CURVE SMOOTH",
"407 386 OFFCURVE",
"481 425 OFFCURVE",
"613 458 CURVE",
"613 182 LINE",
"578 149 OFFCURVE",
"502 135 OFFCURVE",
"454 135 CURVE SMOOTH",
"443 135 OFFCURVE",
"432 140 OFFCURVE",
"426 150 CURVE SMOOTH"
);
},
{
closed = 1;
nodes = (
"895 564 LINE",
"899 705 OFFCURVE",
"922 802 OFFCURVE",
"939 837 CURVE",
"951 857 OFFCURVE",
"975 859 OFFCURVE",
"991 859 CURVE SMOOTH",
"1075 859 OFFCURVE",
"1147 775 OFFCURVE",
"1147 612 CURVE"
);
}
);
width = 1508;
},
{
anchors = (
{
name = top;
position = "{807, 950}";
}
);
background = {
anchors = (
{
name = top;
position = "{807, 950}";
}
);
paths = (
{
closed = 1;
nodes = (
"68 125 OFFCURVE",
"138 -25 OFFCURVE",
"325 -25 CURVE SMOOTH",
"467 -25 OFFCURVE",
"631 62 OFFCURVE",
"692 129 CURVE",
"778 19 OFFCURVE",
"887 -25 OFFCURVE",
"1012 -25 CURVE SMOOTH",
"1159 -25 OFFCURVE",
"1289 86 OFFCURVE",
"1351 157 CURVE",
"1326 195 LINE",
"1299 178 OFFCURVE",
"1185 119 OFFCURVE",
"1080 119 CURVE SMOOTH",
"906 119 OFFCURVE",
"785 296 OFFCURVE",
"785 489 CURVE",
"1294 489 LINE",
"1319 489 OFFCURVE",
"1329 501 OFFCURVE",
"1336 523 CURVE SMOOTH",
"1350 568 OFFCURVE",
"1358 614 OFFCURVE",
"1358 657 CURVE SMOOTH",
"1358 832 OFFCURVE",
"1251 975 OFFCURVE",
"1044 975 CURVE SMOOTH",
"925 975 OFFCURVE",
"832 929 OFFCURVE",
"762 853 CURVE",
"723 928 OFFCURVE",
"651 975 OFFCURVE",
"529 975 CURVE SMOOTH",
"470 975 OFFCURVE",
"297 939 OFFCURVE",
"186 879 CURVE SMOOTH",
"144 855 OFFCURVE",
"102 823 OFFCURVE",
"102 779 CURVE SMOOTH",
"102 720 OFFCURVE",
"167 671 OFFCURVE",
"220 671 CURVE SMOOTH",
"243 671 OFFCURVE",
"263 677 OFFCURVE",
"280 686 CURVE",
"315 868 LINE",
"334 872 OFFCURVE",
"357 875 OFFCURVE",
"382 875 CURVE SMOOTH",
"433 875 OFFCURVE",
"478 867 OFFCURVE",
"509 851 CURVE SMOOTH",
"607 802 OFFCURVE",
"620 665 OFFCURVE",
"620 575 CURVE SMOOTH",
"620 521 LINE",
"594 522 OFFCURVE",
"562 523 OFFCURVE",
"532 523 CURVE SMOOTH",
"441 523 OFFCURVE",
"304 510 OFFCURVE",
"218 475 CURVE SMOOTH",
"111 430 OFFCURVE",
"68 371 OFFCURVE",
"68 241 CURVE SMOOTH"
);
},
{
closed = 1;
nodes = (
"300 133 OFFCURVE",
"252 223 OFFCURVE",
"252 291 CURVE SMOOTH",
"252 316 OFFCURVE",
"255 340 OFFCURVE",
"271 357 CURVE SMOOTH",
"295 382 OFFCURVE",
"392 442 OFFCURVE",
"620 458 CURVE",
"620 166 LINE",
"563 137 OFFCURVE",
"461 106 OFFCURVE",
"390 106 CURVE SMOOTH",
"377 106 OFFCURVE",
"365 108 OFFCURVE",
"356 112 CURVE SMOOTH"
);
},
{
closed = 1;
nodes = (
"785 563 LINE",
"794 703 OFFCURVE",
"835 799 OFFCURVE",
"867 833 CURVE",
"889 857 OFFCURVE",
"935 859 OFFCURVE",
"964 859 CURVE SMOOTH",
"1096 859 OFFCURVE",
"1195 761 OFFCURVE",
"1195 598 CURVE"
);
}
);
};
layerId = UUID0;
name = Regular;
paths = (
{
closed = 1;
nodes = (
"68 125 OFFCURVE",
"138 -25 OFFCURVE",
"325 -25 CURVE SMOOTH",
"467 -25 OFFCURVE",
"631 62 OFFCURVE",
"692 129 CURVE",
"778 19 OFFCURVE",
"887 -25 OFFCURVE",
"1012 -25 CURVE SMOOTH",
"1159 -25 OFFCURVE",
"1289 86 OFFCURVE",
"1351 157 CURVE",
"1326 195 LINE",
"1299 178 OFFCURVE",
"1185 119 OFFCURVE",
"1080 119 CURVE SMOOTH",
"906 119 OFFCURVE",
"785 296 OFFCURVE",
"785 489 CURVE",
"1294 489 LINE",
"1319 489 OFFCURVE",
"1329 501 OFFCURVE",
"1336 523 CURVE SMOOTH",
"1350 568 OFFCURVE",
"1358 614 OFFCURVE",
"1358 657 CURVE SMOOTH",
"1358 832 OFFCURVE",
"1251 975 OFFCURVE",
"1044 975 CURVE SMOOTH",
"925 975 OFFCURVE",
"832 929 OFFCURVE",
"762 853 CURVE",
"723 928 OFFCURVE",
"651 975 OFFCURVE",
"529 975 CURVE SMOOTH",
"470 975 OFFCURVE",
"297 939 OFFCURVE",
"186 879 CURVE SMOOTH",
"144 855 OFFCURVE",
"102 823 OFFCURVE",
"102 779 CURVE SMOOTH",
"102 720 OFFCURVE",
"167 671 OFFCURVE",
"220 671 CURVE SMOOTH",
"243 671 OFFCURVE",
"263 677 OFFCURVE",
"280 686 CURVE",
"315 868 LINE",
"334 872 OFFCURVE",
"357 875 OFFCURVE",
"382 875 CURVE SMOOTH",
"433 875 OFFCURVE",
"478 867 OFFCURVE",
"509 851 CURVE SMOOTH",
"607 802 OFFCURVE",
"620 665 OFFCURVE",
"620 575 CURVE SMOOTH",
"620 521 LINE",
"594 522 OFFCURVE",
"562 523 OFFCURVE",
"532 523 CURVE SMOOTH",
"441 523 OFFCURVE",
"304 510 OFFCURVE",
"218 475 CURVE SMOOTH",
"111 430 OFFCURVE",
"68 371 OFFCURVE",
"68 241 CURVE SMOOTH"
);
},
{
closed = 1;
nodes = (
"300 133 OFFCURVE",
"252 223 OFFCURVE",
"252 291 CURVE SMOOTH",
"252 316 OFFCURVE",
"255 340 OFFCURVE",
"271 357 CURVE SMOOTH",
"295 382 OFFCURVE",
"392 442 OFFCURVE",
"620 458 CURVE",
"620 166 LINE",
"563 137 OFFCURVE",
"461 106 OFFCURVE",
"390 106 CURVE SMOOTH",
"377 106 OFFCURVE",
"365 108 OFFCURVE",
"356 112 CURVE SMOOTH"
);
},
{
closed = 1;
nodes = (
"785 563 LINE",
"794 703 OFFCURVE",
"835 799 OFFCURVE",
"867 833 CURVE",
"889 857 OFFCURVE",
"935 859 OFFCURVE",
"964 859 CURVE SMOOTH",
"1096 859 OFFCURVE",
"1195 761 OFFCURVE",
"1195 598 CURVE"
);
}
);
width = 1434;
}
);
leftKerningGroup = a;
leftMetricsKey = "=a";
rightKerningGroup = e;
rightMetricsKey = "=e";
unicode = 00E6;
},
{
glyphname = b;
lastChange = "2015-03-23 17:17:51 +0000";
layers = (
{
background = {
paths = (
{
closed = 1;
nodes = (
"533 18 OFFCURVE",
"614 -25 OFFCURVE",
"733 -25 CURVE SMOOTH",
"865 -25 OFFCURVE",
"959 35 OFFCURVE",
"1023 109 CURVE SMOOTH",
"1107 206 OFFCURVE",
"1149 353 OFFCURVE",
"1149 508 CURVE SMOOTH",
"1149 732 OFFCURVE",
"1054 975 OFFCURVE",
"815 975 CURVE SMOOTH",
"683 975 OFFCURVE",
"571 898 OFFCURVE",
"491 832 CURVE",
"491 1472 LINE",
"20 1414 LINE",
"9 1365 LINE",
"147 1273 LINE",
"147 191 LINE",
"62 30 LINE",
"103 -25 LINE",
"454 98 LINE"
);
},
{
closed = 1;
nodes = (
"491 758 LINE",
"524 772 OFFCURVE",
"614 784 OFFCURVE",
"653 784 CURVE SMOOTH",
"689 784 OFFCURVE",
"712 773 OFFCURVE",
"738 732 CURVE SMOOTH",
"798 638 OFFCURVE",
"811 515 OFFCURVE",
"811 404 CURVE SMOOTH",
"811 327 OFFCURVE",
"802 252 OFFCURVE",
"781 195 CURVE SMOOTH",
"763 147 OFFCURVE",
"731 143 OFFCURVE",
"685 143 CURVE SMOOTH",
"620 143 OFFCURVE",
"551 146 OFFCURVE",
"491 156 CURVE"
);
}
);
};
layerId = UUID1;
name = Bold;
paths = (
{
closed = 1;
nodes = (
"533 18 OFFCURVE",
"614 -25 OFFCURVE",
"733 -25 CURVE SMOOTH",
"865 -25 OFFCURVE",
"959 35 OFFCURVE",
"1023 109 CURVE SMOOTH",
"1107 206 OFFCURVE",
"1149 353 OFFCURVE",
"1149 508 CURVE SMOOTH",
"1149 732 OFFCURVE",
"1054 975 OFFCURVE",
"815 975 CURVE SMOOTH",
"683 975 OFFCURVE",
"571 898 OFFCURVE",
"491 832 CURVE",
"491 1472 LINE",
"20 1414 LINE",
"9 1365 LINE",
"147 1273 LINE",
"147 191 LINE",
"62 30 LINE",
"103 -25 LINE",
"454 98 LINE"
);
},
{
closed = 1;
nodes = (
"491 758 LINE",
"524 772 OFFCURVE",
"614 784 OFFCURVE",
"653 784 CURVE SMOOTH",
"689 784 OFFCURVE",
"712 773 OFFCURVE",
"738 732 CURVE SMOOTH",
"798 638 OFFCURVE",
"811 515 OFFCURVE",
"811 404 CURVE SMOOTH",
"811 327 OFFCURVE",
"802 252 OFFCURVE",
"781 195 CURVE SMOOTH",
"763 147 OFFCURVE",
"731 143 OFFCURVE",
"685 143 CURVE SMOOTH",
"620 143 OFFCURVE",
"551 146 OFFCURVE",
"491 156 CURVE"
);
}
);
width = 1214;
},
{
background = {
paths = (
{
closed = 1;
nodes = (
"403 6 OFFCURVE",
"477 -25 OFFCURVE",
"585 -25 CURVE SMOOTH",
"712 -25 OFFCURVE",
"802 45 OFFCURVE",
"868 121 CURVE SMOOTH",
"954 220 OFFCURVE",
"1004 357 OFFCURVE",
"1004 507 CURVE SMOOTH",
"1004 733 OFFCURVE",
"923 975 OFFCURVE",
"675 975 CURVE SMOOTH",
"569 975 OFFCURVE",
"431 895 OFFCURVE",
"347 827 CURVE",
"347 1472 LINE",
"24 1412 LINE",
"16 1365 LINE",
"169 1287 LINE",
"169 211 LINE",
"75 37 LINE",
"123 -25 LINE",
"326 104 LINE"
);
},
{
closed = 1;
nodes = (
"347 771 LINE",
"433 800 OFFCURVE",
"574 830 OFFCURVE",
"627 830 CURVE SMOOTH",
"651 830 OFFCURVE",
"674 823 OFFCURVE",
"689 812 CURVE SMOOTH",
"776 747 OFFCURVE",
"829 605 OFFCURVE",
"829 452 CURVE SMOOTH",
"829 339 OFFCURVE",
"797 158 OFFCURVE",
"745 135 CURVE SMOOTH",
"725 125 OFFCURVE",
"689 119 OFFCURVE",
"646 119 CURVE SMOOTH",
"552 119 OFFCURVE",
"424 147 OFFCURVE",
"347 240 CURVE"
);
}
);
};
layerId = UUID0;
name = Regular;
paths = (
{
closed = 1;
nodes = (
"403 6 OFFCURVE",
"477 -25 OFFCURVE",
"585 -25 CURVE SMOOTH",
"712 -25 OFFCURVE",
"802 45 OFFCURVE",
"868 121 CURVE SMOOTH",
"954 220 OFFCURVE",
"1004 357 OFFCURVE",
"1004 507 CURVE SMOOTH",
"1004 733 OFFCURVE",
"923 975 OFFCURVE",
"675 975 CURVE SMOOTH",
"569 975 OFFCURVE",
"431 895 OFFCURVE",
"347 827 CURVE",
"347 1472 LINE",
"24 1412 LINE",
"16 1365 LINE",
"169 1287 LINE",
"169 211 LINE",
"75 37 LINE",
"123 -25 LINE",
"326 104 LINE"
);
},
{
closed = 1;
nodes = (
"347 771 LINE",
"433 800 OFFCURVE",
"574 830 OFFCURVE",
"627 830 CURVE SMOOTH",
"651 830 OFFCURVE",
"674 823 OFFCURVE",
"689 812 CURVE SMOOTH",
"776 747 OFFCURVE",
"829 605 OFFCURVE",
"829 452 CURVE SMOOTH",
"829 339 OFFCURVE",
"797 158 OFFCURVE",
"745 135 CURVE SMOOTH",
"725 125 OFFCURVE",
"689 119 OFFCURVE",
"646 119 CURVE SMOOTH",
"552 119 OFFCURVE",
"424 147 OFFCURVE",
"347 240 CURVE"
);
}
);
width = 1087;
}
);
leftKerningGroup = h;
rightKerningGroup = o;
unicode = 0062;
},
{
glyphname = c;
lastChange = "2015-03-23 17:17:51 +0000";
layers = (
{
anchors = (
{
name = bottom;
position = "{546, 0}";
},
{
name = top;
position = "{517, 950}";
}
);
background = {
anchors = (
{
name = top;
position = "{517, 950}";
},
{
name = bottom;
position = "{546, 0}";
}
);
paths = (
{
closed = 1;
nodes = (
"607 702 LINE",
"637 663 OFFCURVE",
"697 621 OFFCURVE",
"732 621 CURVE SMOOTH",
"777 621 OFFCURVE",
"935 760 OFFCURVE",
"935 825 CURVE SMOOTH",
"935 849 OFFCURVE",
"877 900 OFFCURVE",
"817 928 CURVE SMOOTH",
"743 963 OFFCURVE",
"672 975 OFFCURVE",
"589 975 CURVE SMOOTH",
"301 975 OFFCURVE",
"51 772 OFFCURVE",
"51 470 CURVE SMOOTH",
"51 154 OFFCURVE",
"244 -25 OFFCURVE",
"552 -25 CURVE SMOOTH",
"740 -25 OFFCURVE",
"881 67 OFFCURVE",
"939 150 CURVE",
"923 180 LINE",
"895 175 OFFCURVE",
"725 152 OFFCURVE",
"645 152 CURVE SMOOTH",
"567 152 OFFCURVE",
"512 190 OFFCURVE",
"459 267 CURVE SMOOTH",
"407 342 OFFCURVE",
"385 419 OFFCURVE",
"385 530 CURVE SMOOTH",
"385 605 OFFCURVE",
"401 714 OFFCURVE",
"451 794 CURVE SMOOTH",
"479 840 OFFCURVE",
"517 876 OFFCURVE",
"568 892 CURVE"
);
}
);
};
layerId = UUID1;
name = Bold;
paths = (
{
closed = 1;
nodes = (
"607 702 LINE",
"637 663 OFFCURVE",
"697 621 OFFCURVE",
"732 621 CURVE SMOOTH",
"777 621 OFFCURVE",
"935 760 OFFCURVE",
"935 825 CURVE SMOOTH",
"935 849 OFFCURVE",
"877 900 OFFCURVE",
"817 928 CURVE SMOOTH",
"743 963 OFFCURVE",
"672 975 OFFCURVE",
"589 975 CURVE SMOOTH",
"301 975 OFFCURVE",
"51 772 OFFCURVE",
"51 470 CURVE SMOOTH",
"51 154 OFFCURVE",
"244 -25 OFFCURVE",
"552 -25 CURVE SMOOTH",
"740 -25 OFFCURVE",
"881 67 OFFCURVE",
"939 150 CURVE",
"923 180 LINE",
"895 175 OFFCURVE",
"725 152 OFFCURVE",
"645 152 CURVE SMOOTH",
"567 152 OFFCURVE",
"512 190 OFFCURVE",
"459 267 CURVE SMOOTH",
"407 342 OFFCURVE",
"385 419 OFFCURVE",
"385 530 CURVE SMOOTH",
"385 605 OFFCURVE",
"401 714 OFFCURVE",
"451 794 CURVE SMOOTH",
"479 840 OFFCURVE",
"517 876 OFFCURVE",
"568 892 CURVE"
);
}
);
width = 965;
},
{
anchors = (
{
name = bottom;
position = "{497, 0}";
},
{
name = top;
position = "{491, 950}";
}
);
background = {
anchors = (
{
name = top;
position = "{491, 950}";
},
{
name = bottom;
position = "{497, 0}";
}
);
paths = (
{
closed = 1;
nodes = (
"627 746 LINE",
"643 737 OFFCURVE",
"667 730 OFFCURVE",
"690 730 CURVE SMOOTH",
"743 730 OFFCURVE",
"808 793 OFFCURVE",
"808 854 CURVE SMOOTH",
"808 899 OFFCURVE",
"773 930 OFFCURVE",
"736 946 CURVE SMOOTH",
"696 962 OFFCURVE",
"643 971 OFFCURVE",
"578 971 CURVE SMOOTH",
"303 971 OFFCURVE",
"74 804 OFFCURVE",
"74 448 CURVE SMOOTH",
"74 189 OFFCURVE",
"214 -25 OFFCURVE",
"501 -25 CURVE SMOOTH",
"645 -25 OFFCURVE",
"772 81 OFFCURVE",
"829 151 CURVE",
"806 185 LINE",
"778 169 OFFCURVE",
"651 117 OFFCURVE",
"565 117 CURVE SMOOTH",
"468 117 OFFCURVE",
"389 173 OFFCURVE",
"343 241 CURVE SMOOTH",
"283 327 OFFCURVE",
"259 429 OFFCURVE",
"259 530 CURVE SMOOTH",
"259 624 OFFCURVE",
"286 719 OFFCURVE",
"358 794 CURVE SMOOTH",
"429 866 OFFCURVE",
"515 886 OFFCURVE",
"598 887 CURVE"
);
}
);
};
layerId = UUID0;
name = Regular;
paths = (
{
closed = 1;
nodes = (
"627 746 LINE",
"643 737 OFFCURVE",
"667 730 OFFCURVE",
"690 730 CURVE SMOOTH",
"743 730 OFFCURVE",
"808 793 OFFCURVE",
"808 854 CURVE SMOOTH",
"808 899 OFFCURVE",
"773 930 OFFCURVE",
"736 946 CURVE SMOOTH",
"696 962 OFFCURVE",
"643 971 OFFCURVE",
"578 971 CURVE SMOOTH",
"303 971 OFFCURVE",
"74 804 OFFCURVE",
"74 448 CURVE SMOOTH",
"74 189 OFFCURVE",
"214 -25 OFFCURVE",
"501 -25 CURVE SMOOTH",
"645 -25 OFFCURVE",
"772 81 OFFCURVE",
"829 151 CURVE",
"806 185 LINE",
"778 169 OFFCURVE",
"651 117 OFFCURVE",
"565 117 CURVE SMOOTH",
"468 117 OFFCURVE",
"389 173 OFFCURVE",
"343 241 CURVE SMOOTH",
"283 327 OFFCURVE",
"259 429 OFFCURVE",
"259 530 CURVE SMOOTH",
"259 624 OFFCURVE",
"286 719 OFFCURVE",
"358 794 CURVE SMOOTH",
"429 866 OFFCURVE",
"515 886 OFFCURVE",
"598 887 CURVE"
);
}
);
width = 873;
}
);
leftKerningGroup = o;
rightKerningGroup = c;
unicode = 0063;
},
{
glyphname = d;
lastChange = "2015-03-23 17:17:51 +0000";
layers = (
{
anchors = (
{
name = bottom;
position = "{628, 0}";
},
{
name = center;
position = "{628, 475}";
},
{
name = top;
position = "{628, 950}";
},
{
name = topright;
position = "{1079, 1472}";
}
);
background = {
anchors = (
{
name = center;
position = "{628, 475}";
},
{
name = top;
position = "{628, 950}";
},
{
name = topright;
position = "{1079, 1472}";
},
{
name = bottom;
position = "{628, 0}";
}
);
paths = (
{
closed = 1;
nodes = (
"723 166 OFFCURVE",
"638 152 OFFCURVE",
"594 152 CURVE SMOOTH",
"554 152 OFFCURVE",
"507 183 OFFCURVE",
"481 224 CURVE SMOOTH",
"421 318 OFFCURVE",
"410 420 OFFCURVE",
"410 531 CURVE SMOOTH",
"410 608 OFFCURVE",
"417 682 OFFCURVE",
"438 739 CURVE SMOOTH",
"457 789 OFFCURVE",
"495 796 OFFCURVE",
"551 796 CURVE SMOOTH",
"620 796 OFFCURVE",
"689 790 OFFCURVE",
"745 777 CURVE",
"744 857 LINE",
"663 927 OFFCURVE",
"585 975 OFFCURVE",
"491 975 CURVE SMOOTH",
"203 975 OFFCURVE",
"59 712 OFFCURVE",
"59 441 CURVE SMOOTH",
"59 106 OFFCURVE",
"252 -25 OFFCURVE",
"448 -25 CURVE SMOOTH",
"600 -25 OFFCURVE",
"708 54 OFFCURVE",
"787 142 CURVE",
"740 181 LINE"
);
},
{
closed = 1;
nodes = (
"735 155 LINE",
"833 112 OFFCURVE",
"887 64 OFFCURVE",
"953 -25 CURVE",
"1063 -25 OFFCURVE",
"1211 22 OFFCURVE",
"1238 33 CURVE",
"1253 94 LINE",
"1217 103 OFFCURVE",
"1112 131 OFFCURVE",
"1079 199 CURVE",
"1079 1472 LINE",
"606 1412 LINE",
"597 1366 LINE",
"735 1271 LINE"
);
}
);
};
layerId = UUID1;
name = Bold;
paths = (
{
closed = 1;
nodes = (
"723 166 OFFCURVE",
"638 152 OFFCURVE",
"594 152 CURVE SMOOTH",
"554 152 OFFCURVE",
"507 183 OFFCURVE",
"481 224 CURVE SMOOTH",
"421 318 OFFCURVE",
"410 420 OFFCURVE",
"410 531 CURVE SMOOTH",
"410 608 OFFCURVE",
"417 682 OFFCURVE",
"438 739 CURVE SMOOTH",
"457 789 OFFCURVE",
"495 796 OFFCURVE",
"551 796 CURVE SMOOTH",
"620 796 OFFCURVE",
"689 790 OFFCURVE",
"745 777 CURVE",
"744 857 LINE",
"663 927 OFFCURVE",
"585 975 OFFCURVE",
"491 975 CURVE SMOOTH",
"203 975 OFFCURVE",
"59 712 OFFCURVE",
"59 441 CURVE SMOOTH",
"59 106 OFFCURVE",
"252 -25 OFFCURVE",
"448 -25 CURVE SMOOTH",
"600 -25 OFFCURVE",
"708 54 OFFCURVE",
"787 142 CURVE",
"740 181 LINE"
);
},
{
closed = 1;
nodes = (
"735 155 LINE",
"833 112 OFFCURVE",
"887 64 OFFCURVE",
"953 -25 CURVE",
"1063 -25 OFFCURVE",
"1211 22 OFFCURVE",
"1238 33 CURVE",
"1253 94 LINE",
"1217 103 OFFCURVE",
"1112 131 OFFCURVE",
"1079 199 CURVE",
"1079 1472 LINE",
"606 1412 LINE",
"597 1366 LINE",
"735 1271 LINE"
);
}
);
width = 1256;
},
{
anchors = (
{
name = bottom;
position = "{552, 0}";
},
{
name = center;
position = "{552, 475}";
},
{
name = top;
position = "{552, 950}";
},
{
name = topright;
position = "{916, 1472}";
}
);
background = {
anchors = (
{
name = center;
position = "{552, 475}";
},
{
name = top;
position = "{552, 950}";
},
{
name = topright;
position = "{916, 1472}";
},
{
name = bottom;
position = "{552, 0}";
}
);
paths = (
{
closed = 1;
nodes = (
"664 137 OFFCURVE",
"578 117 OFFCURVE",
"496 117 CURVE SMOOTH",
"475 117 OFFCURVE",
"464 121 OFFCURVE",
"441 134 CURVE SMOOTH",
"358 179 OFFCURVE",
"248 328 OFFCURVE",
"248 538 CURVE SMOOTH",
"248 660 OFFCURVE",
"270 750 OFFCURVE",
"312 807 CURVE SMOOTH",
"339 844 OFFCURVE",
"390 849 OFFCURVE",
"431 849 CURVE SMOOTH",
"553 849 OFFCURVE",
"690 775 OFFCURVE",
"741 642 CURVE",
"750 893 LINE",
"684 950 OFFCURVE",
"594 975 OFFCURVE",
"514 975 CURVE SMOOTH",
"273 975 OFFCURVE",
"74 753 OFFCURVE",
"74 434 CURVE SMOOTH",
"74 100 OFFCURVE",
"281 -25 OFFCURVE",
"474 -25 CURVE SMOOTH",
"592 -25 OFFCURVE",
"709 41 OFFCURVE",
"769 135 CURVE",
"745 170 LINE"
);
},
{
closed = 1;
nodes = (
"737 155 LINE",
"783 121 OFFCURVE",
"832 35 OFFCURVE",
"849 -25 CURVE",
"900 -25 OFFCURVE",
"1034 12 OFFCURVE",
"1078 34 CURVE",
"1089 95 LINE",
"1040 103 OFFCURVE",
"949 144 OFFCURVE",
"916 192 CURVE",
"916 1472 LINE",
"591 1411 LINE",
"582 1365 LINE",
"737 1288 LINE"
);
}
);
};
layerId = UUID0;
name = Regular;
paths = (
{
closed = 1;
nodes = (
"664 137 OFFCURVE",
"578 117 OFFCURVE",
"496 117 CURVE SMOOTH",
"475 117 OFFCURVE",
"464 121 OFFCURVE",
"441 134 CURVE SMOOTH",
"358 179 OFFCURVE",
"248 328 OFFCURVE",
"248 538 CURVE SMOOTH",
"248 660 OFFCURVE",
"270 750 OFFCURVE",
"312 807 CURVE SMOOTH",
"339 844 OFFCURVE",
"390 849 OFFCURVE",
"431 849 CURVE SMOOTH",
"553 849 OFFCURVE",
"690 775 OFFCURVE",
"741 642 CURVE",
"750 893 LINE",
"684 950 OFFCURVE",
"594 975 OFFCURVE",
"514 975 CURVE SMOOTH",
"273 975 OFFCURVE",
"74 753 OFFCURVE",
"74 434 CURVE SMOOTH",
"74 100 OFFCURVE",
"281 -25 OFFCURVE",
"474 -25 CURVE SMOOTH",
"592 -25 OFFCURVE",
"709 41 OFFCURVE",
"769 135 CURVE",
"745 170 LINE"
);
},
{
closed = 1;
nodes = (
"737 155 LINE",
"783 121 OFFCURVE",
"832 35 OFFCURVE",
"849 -25 CURVE",
"900 -25 OFFCURVE",
"1034 12 OFFCURVE",
"1078 34 CURVE",
"1089 95 LINE",
"1040 103 OFFCURVE",
"949 144 OFFCURVE",
"916 192 CURVE",
"916 1472 LINE",
"591 1411 LINE",
"582 1365 LINE",
"737 1288 LINE"
);
}
);
width = 1104;
}
);
leftKerningGroup = o;
rightKerningGroup = l;
unicode = 0064;
},
{
glyphname = eth;
lastChange = "2015-03-23 17:17:51 +0000";
layers = (
{
background = {
paths = (
{
closed = 1;
nodes = (
"48 128 OFFCURVE",
"287 -26 OFFCURVE",
"584 -26 CURVE SMOOTH",
"928 -26 OFFCURVE",
"1109 262 OFFCURVE",
"1109 532 CURVE SMOOTH",
"1109 912 OFFCURVE",
"972 1149 OFFCURVE",
"801 1303 CURVE SMOOTH",
"674 1418 OFFCURVE",
"429 1500 OFFCURVE",
"297 1500 CURVE",
"97 1433 LINE",
"380 1336 OFFCURVE",
"615 1187 OFFCURVE",
"729 933 CURVE",
"673 954 OFFCURVE",
"591 959 OFFCURVE",
"534 959 CURVE SMOOTH",
"273 959 OFFCURVE",
"48 751 OFFCURVE",
"48 468 CURVE SMOOTH"
);
},
{
closed = 1;
nodes = (
"932 1392 LINE",
"859 1551 LINE",
"518 1341 LINE",
"233 1185 LINE",
"291 1022 LINE",
"634 1231 LINE"
);
},
{
closed = 1;
nodes = (
"460 126 OFFCURVE",
"388 364 OFFCURVE",
"388 554 CURVE SMOOTH",
"388 644 OFFCURVE",
"399 766 OFFCURVE",
"434 801 CURVE SMOOTH",
"446 814 OFFCURVE",
"472 823 OFFCURVE",
"509 823 CURVE SMOOTH",
"660 823 OFFCURVE",
"770 678 OFFCURVE",
"770 396 CURVE SMOOTH",
"770 329 OFFCURVE",
"758 182 OFFCURVE",
"725 146 CURVE SMOOTH",
"707 127 OFFCURVE",
"681 126 OFFCURVE",
"646 126 CURVE SMOOTH"
);
}
);
};
layerId = UUID1;
name = Bold;
paths = (
{
closed = 1;
nodes = (
"48 128 OFFCURVE",
"287 -26 OFFCURVE",
"584 -26 CURVE SMOOTH",
"928 -26 OFFCURVE",
"1109 262 OFFCURVE",
"1109 532 CURVE SMOOTH",
"1109 912 OFFCURVE",
"972 1149 OFFCURVE",
"801 1303 CURVE SMOOTH",
"674 1418 OFFCURVE",
"429 1500 OFFCURVE",
"297 1500 CURVE",
"97 1433 LINE",
"380 1336 OFFCURVE",
"615 1187 OFFCURVE",
"729 933 CURVE",
"673 954 OFFCURVE",
"591 959 OFFCURVE",
"534 959 CURVE SMOOTH",
"273 959 OFFCURVE",
"48 751 OFFCURVE",
"48 468 CURVE SMOOTH"
);
},
{
closed = 1;
nodes = (
"932 1392 LINE",
"859 1551 LINE",
"518 1341 LINE",
"233 1185 LINE",
"291 1022 LINE",
"634 1231 LINE"
);
},
{
closed = 1;
nodes = (
"460 126 OFFCURVE",
"388 364 OFFCURVE",
"388 554 CURVE SMOOTH",
"388 644 OFFCURVE",
"399 766 OFFCURVE",
"434 801 CURVE SMOOTH",
"446 814 OFFCURVE",
"472 823 OFFCURVE",
"509 823 CURVE SMOOTH",
"660 823 OFFCURVE",
"770 678 OFFCURVE",
"770 396 CURVE SMOOTH",
"770 329 OFFCURVE",
"758 182 OFFCURVE",
"725 146 CURVE SMOOTH",
"707 127 OFFCURVE",
"681 126 OFFCURVE",
"646 126 CURVE SMOOTH"
);
}
);
width = 1182;
},
{
background = {
paths = (
{
closed = 1;
nodes = (
"83 117 OFFCURVE",
"276 -24 OFFCURVE",
"517 -24 CURVE SMOOTH",
"815 -24 OFFCURVE",
"963 271 OFFCURVE",
"963 541 CURVE SMOOTH",
"963 918 OFFCURVE",
"825 1160 OFFCURVE",
"653 1312 CURVE SMOOTH",
"524 1426 OFFCURVE",
"284 1500 OFFCURVE",
"169 1500 CURVE",
"111 1428 LINE",
"411 1331 OFFCURVE",
"678 1164 OFFCURVE",
"773 850 CURVE",
"714 916 OFFCURVE",
"641 969 OFFCURVE",
"504 969 CURVE SMOOTH",
"194 969 OFFCURVE",
"83 681 OFFCURVE",
"83 437 CURVE SMOOTH"
);
},
{
closed = 1;
nodes = (
"866 1375 LINE",
"803 1496 LINE",
"504 1302 LINE",
"244 1164 LINE",
"308 1043 LINE",
"608 1236 LINE"
);
},
{
closed = 1;
nodes = (
"339 103 OFFCURVE",
"244 306 OFFCURVE",
"244 551 CURVE SMOOTH",
"244 647 OFFCURVE",
"267 776 OFFCURVE",
"326 817 CURVE SMOOTH",
"354 836 OFFCURVE",
"398 851 OFFCURVE",
"467 851 CURVE SMOOTH",
"672 851 OFFCURVE",
"783 661 OFFCURVE",
"783 432 CURVE SMOOTH",
"783 326 OFFCURVE",
"757 191 OFFCURVE",
"700 139 CURVE SMOOTH",
"667 110 OFFCURVE",
"603 103 OFFCURVE",
"556 103 CURVE SMOOTH"
);
}
);
};
layerId = UUID0;
name = Regular;
paths = (
{
closed = 1;
nodes = (
"83 117 OFFCURVE",
"276 -24 OFFCURVE",
"517 -24 CURVE SMOOTH",
"815 -24 OFFCURVE",
"963 271 OFFCURVE",
"963 541 CURVE SMOOTH",
"963 918 OFFCURVE",
"825 1160 OFFCURVE",
"653 1312 CURVE SMOOTH",
"524 1426 OFFCURVE",
"284 1500 OFFCURVE",
"169 1500 CURVE",
"111 1428 LINE",
"411 1331 OFFCURVE",
"678 1164 OFFCURVE",
"773 850 CURVE",
"714 916 OFFCURVE",
"641 969 OFFCURVE",
"504 969 CURVE SMOOTH",
"194 969 OFFCURVE",
"83 681 OFFCURVE",
"83 437 CURVE SMOOTH"
);
},
{
closed = 1;
nodes = (
"866 1375 LINE",
"803 1496 LINE",
"504 1302 LINE",
"244 1164 LINE",
"308 1043 LINE",
"608 1236 LINE"
);
},
{
closed = 1;
nodes = (
"339 103 OFFCURVE",
"244 306 OFFCURVE",
"244 551 CURVE SMOOTH",
"244 647 OFFCURVE",
"267 776 OFFCURVE",
"326 817 CURVE SMOOTH",
"354 836 OFFCURVE",
"398 851 OFFCURVE",
"467 851 CURVE SMOOTH",
"672 851 OFFCURVE",
"783 661 OFFCURVE",
"783 432 CURVE SMOOTH",
"783 326 OFFCURVE",
"757 191 OFFCURVE",
"700 139 CURVE SMOOTH",
"667 110 OFFCURVE",
"603 103 OFFCURVE",
"556 103 CURVE SMOOTH"
);
}
);
width = 1070;
}
);
leftKerningGroup = eth;
rightKerningGroup = eth;
unicode = 00F0;
},
{
glyphname = dcroat;
lastChange = "2015-03-23 17:17:51 +0000";
layers = (
{
background = {
components = (
{
name = d;
transform = "{1, 0, 0, 1, -10, 0}";
}
);
paths = (
{
closed = 1;
nodes = (
"1227 1062 LINE",
"1259 1219 LINE",
"901 1210 LINE",
"527 1220 LINE",
"490 1062 LINE",
"903 1067 LINE"
);
}
);
};
components = (
{
name = d;
transform = "{1, 0, 0, 1, -10, 0}";
}
);
layerId = UUID1;
name = Bold;
paths = (
{
closed = 1;
nodes = (
"1227 1062 LINE",
"1259 1219 LINE",
"901 1210 LINE",
"527 1220 LINE",
"490 1062 LINE",
"903 1067 LINE"
);
}
);
width = 1243;
},
{
background = {
components = (
{
name = d;
}
);
paths = (
{
closed = 1;
nodes = (
"1066 1100 LINE",
"1087 1206 LINE",
"842 1200 LINE",
"524 1206 LINE",
"498 1092 LINE",
"842 1095 LINE"
);
}
);
};
components = (
{
name = d;
}
);
layerId = UUID0;
name = Regular;
paths = (
{
closed = 1;
nodes = (
"1066 1100 LINE",
"1087 1206 LINE",
"842 1200 LINE",
"524 1206 LINE",
"498 1092 LINE",
"842 1095 LINE"
);
}
);
width = 1104;
}
);
leftKerningGroup = o;
rightKerningGroup = l;
unicode = 0111;
},
{
glyphname = e;
lastChange = "2015-03-23 17:17:51 +0000";
layers = (
{
anchors = (
{
name = bottom;
position = "{545, 0}";
},
{
name = ogonek;
position = "{941, 10}";
},
{
name = top;
position = "{545, 950}";
}
);
background = {
anchors = (
{
name = ogonek;
position = "{941, 10}";
},
{
name = bottom;
position = "{545, 0}";
},
{
name = top;
position = "{545, 950}";
}
);
paths = (
{
closed = 1;
nodes = (
"386 675 OFFCURVE",
"405 762 OFFCURVE",
"436 810 CURVE SMOOTH",
"447 828 OFFCURVE",
"468 829 OFFCURVE",
"487 829 CURVE SMOOTH",
"600 829 OFFCURVE",
"700 745 OFFCURVE",
"720 582 CURVE",
"265 516 LINE",
"265 444 LINE",
"911 444 LINE SMOOTH",
"950 444 OFFCURVE",
"969 457 OFFCURVE",
"980 479 CURVE SMOOTH",
"1001 522 OFFCURVE",
"1008 568 OFFCURVE",
"1008 622 CURVE SMOOTH",
"1008 821 OFFCURVE",
"849 975 OFFCURVE",
"593 975 CURVE SMOOTH",
"257 975 OFFCURVE",
"51 728 OFFCURVE",
"51 464 CURVE SMOOTH",
"51 121 OFFCURVE",
"304 -25 OFFCURVE",
"538 -25 CURVE SMOOTH",
"699 -25 OFFCURVE",
"857 33 OFFCURVE",
"948 150 CURVE",
"933 183 LINE",
"901 177 OFFCURVE",
"725 153 OFFCURVE",
"638 153 CURVE SMOOTH",
"504 153 OFFCURVE",
"386 345 OFFCURVE",
"386 519 CURVE SMOOTH"
);
}
);
};
layerId = UUID1;
name = Bold;
paths = (
{
closed = 1;
nodes = (
"386 675 OFFCURVE",
"405 762 OFFCURVE",
"436 810 CURVE SMOOTH",
"447 828 OFFCURVE",
"468 829 OFFCURVE",
"487 829 CURVE SMOOTH",
"600 829 OFFCURVE",
"700 745 OFFCURVE",
"720 582 CURVE",
"265 516 LINE",
"265 444 LINE",
"911 444 LINE SMOOTH",
"950 444 OFFCURVE",
"969 457 OFFCURVE",
"980 479 CURVE SMOOTH",
"1001 522 OFFCURVE",
"1008 568 OFFCURVE",
"1008 622 CURVE SMOOTH",
"1008 821 OFFCURVE",
"849 975 OFFCURVE",
"593 975 CURVE SMOOTH",
"257 975 OFFCURVE",
"51 728 OFFCURVE",
"51 464 CURVE SMOOTH",
"51 121 OFFCURVE",
"304 -25 OFFCURVE",
"538 -25 CURVE SMOOTH",
"699 -25 OFFCURVE",
"857 33 OFFCURVE",
"948 150 CURVE",
"933 183 LINE",
"901 177 OFFCURVE",
"725 153 OFFCURVE",
"638 153 CURVE SMOOTH",
"504 153 OFFCURVE",
"386 345 OFFCURVE",
"386 519 CURVE SMOOTH"
);
}
);
width = 1051;
},
{
anchors = (
{
name = bottom;
position = "{461, 0}";
},
{
name = ogonek;
position = "{829, 10}";
},
{
name = top;
position = "{481, 950}";
}
);
background = {
anchors = (
{
name = ogonek;
position = "{829, 10}";
},
{
name = bottom;
position = "{461, 0}";
},
{
name = top;
position = "{481, 950}";
}
);
paths = (
{
closed = 1;
nodes = (
"244 690 OFFCURVE",
"295 798 OFFCURVE",
"328 833 CURVE SMOOTH",
"351 856 OFFCURVE",
"398 858 OFFCURVE",
"430 858 CURVE SMOOTH",
"565 858 OFFCURVE",
"677 769 OFFCURVE",
"678 597 CURVE",
"187 559 LINE",
"187 488 LINE",
"782 488 LINE",
"807 488 OFFCURVE",
"816 500 OFFCURVE",
"823 522 CURVE SMOOTH",
"837 567 OFFCURVE",
"844 613 OFFCURVE",
"844 656 CURVE SMOOTH",
"844 832 OFFCURVE",
"730 975 OFFCURVE",
"527 975 CURVE SMOOTH",
"256 975 OFFCURVE",
"74 744 OFFCURVE",
"74 453 CURVE SMOOTH",
"74 106 OFFCURVE",
"266 -25 OFFCURVE",
"483 -25 CURVE SMOOTH",
"630 -25 OFFCURVE",
"778 85 OFFCURVE",
"837 156 CURVE",
"813 191 LINE",
"781 173 OFFCURVE",
"646 119 OFFCURVE",
"547 119 CURVE SMOOTH",
"363 119 OFFCURVE",
"244 323 OFFCURVE",
"244 523 CURVE SMOOTH"
);
}
);
};
layerId = UUID0;
name = Regular;
paths = (
{
closed = 1;
nodes = (
"244 690 OFFCURVE",
"295 798 OFFCURVE",
"328 833 CURVE SMOOTH",
"351 856 OFFCURVE",
"398 858 OFFCURVE",
"430 858 CURVE SMOOTH",
"565 858 OFFCURVE",
"677 769 OFFCURVE",
"678 597 CURVE",
"187 559 LINE",
"187 488 LINE",
"782 488 LINE",
"807 488 OFFCURVE",
"816 500 OFFCURVE",
"823 522 CURVE SMOOTH",
"837 567 OFFCURVE",
"844 613 OFFCURVE",
"844 656 CURVE SMOOTH",
"844 832 OFFCURVE",
"730 975 OFFCURVE",
"527 975 CURVE SMOOTH",
"256 975 OFFCURVE",
"74 744 OFFCURVE",
"74 453 CURVE SMOOTH",
"74 106 OFFCURVE",
"266 -25 OFFCURVE",
"483 -25 CURVE SMOOTH",
"630 -25 OFFCURVE",
"778 85 OFFCURVE",
"837 156 CURVE",
"813 191 LINE",
"781 173 OFFCURVE",
"646 119 OFFCURVE",
"547 119 CURVE SMOOTH",
"363 119 OFFCURVE",
"244 323 OFFCURVE",
"244 523 CURVE SMOOTH"
);
}
);
width = 921;
}
);
leftKerningGroup = o;
rightKerningGroup = e;
unicode = 0065;
},
{
glyphname = eogonek;
lastChange = "2015-03-23 17:17:51 +0000";
layers = (
{
background = {
paths = (
{
closed = 1;
nodes = (
"911 444 LINE",
"950 444 OFFCURVE",
"969 457 OFFCURVE",
"980 479 CURVE SMOOTH",
"1001 522 OFFCURVE",
"1008 568 OFFCURVE",
"1008 622 CURVE SMOOTH",
"1008 821 OFFCURVE",
"849 975 OFFCURVE",
"593 975 CURVE SMOOTH",
"257 975 OFFCURVE",
"51 726 OFFCURVE",
"51 459 CURVE SMOOTH",
"51 197 OFFCURVE",
"207 48 OFFCURVE",
"389 -4 CURVE SMOOTH",
"413 -11 OFFCURVE",
"439 -15 OFFCURVE",
"463 -19 CURVE",
"412 -50 OFFCURVE",
"363 -89 OFFCURVE",
"327 -135 CURVE SMOOTH",
"292 -176 OFFCURVE",
"269 -224 OFFCURVE",
"269 -277 CURVE SMOOTH",
"269 -440 OFFCURVE",
"402 -504 OFFCURVE",
"532 -504 CURVE SMOOTH",
"650 -504 OFFCURVE",
"760 -450 OFFCURVE",
"843 -351 CURVE",
"813 -306 LINE",
"749 -335 OFFCURVE",
"677 -355 OFFCURVE",
"637 -355 CURVE SMOOTH",
"625 -355 OFFCURVE",
"613 -352 OFFCURVE",
"603 -347 CURVE SMOOTH",
"562 -327 OFFCURVE",
"538 -273 OFFCURVE",
"538 -226 CURVE SMOOTH",
"538 -135 OFFCURVE",
"616 -57 OFFCURVE",
"710 -9 CURVE SMOOTH",
"779 26 OFFCURVE",
"867 50 OFFCURVE",
"949 152 CURVE",
"933 183 LINE",
"909 178 OFFCURVE",
"729 153 OFFCURVE",
"639 153 CURVE SMOOTH",
"518 153 OFFCURVE",
"415 297 OFFCURVE",
"391 444 CURVE"
);
},
{
closed = 1;
nodes = (
"386 533 LINE",
"388 679 OFFCURVE",
"406 762 OFFCURVE",
"436 810 CURVE SMOOTH",
"447 828 OFFCURVE",
"468 829 OFFCURVE",
"487 829 CURVE SMOOTH",
"600 829 OFFCURVE",
"700 745 OFFCURVE",
"720 582 CURVE"
);
}
);
};
layerId = UUID1;
name = Bold;
paths = (
{
closed = 1;
nodes = (
"911 444 LINE",
"950 444 OFFCURVE",
"969 457 OFFCURVE",
"980 479 CURVE SMOOTH",
"1001 522 OFFCURVE",
"1008 568 OFFCURVE",
"1008 622 CURVE SMOOTH",
"1008 821 OFFCURVE",
"849 975 OFFCURVE",
"593 975 CURVE SMOOTH",
"257 975 OFFCURVE",
"51 726 OFFCURVE",
"51 459 CURVE SMOOTH",
"51 197 OFFCURVE",
"207 48 OFFCURVE",
"389 -4 CURVE SMOOTH",
"413 -11 OFFCURVE",
"439 -15 OFFCURVE",
"463 -19 CURVE",
"412 -50 OFFCURVE",
"363 -89 OFFCURVE",
"327 -135 CURVE SMOOTH",
"292 -176 OFFCURVE",
"269 -224 OFFCURVE",
"269 -277 CURVE SMOOTH",
"269 -440 OFFCURVE",
"402 -504 OFFCURVE",
"532 -504 CURVE SMOOTH",
"650 -504 OFFCURVE",
"760 -450 OFFCURVE",
"843 -351 CURVE",
"813 -306 LINE",
"749 -335 OFFCURVE",
"677 -355 OFFCURVE",
"637 -355 CURVE SMOOTH",
"625 -355 OFFCURVE",
"613 -352 OFFCURVE",
"603 -347 CURVE SMOOTH",
"562 -327 OFFCURVE",
"538 -273 OFFCURVE",
"538 -226 CURVE SMOOTH",
"538 -135 OFFCURVE",
"616 -57 OFFCURVE",
"710 -9 CURVE SMOOTH",
"779 26 OFFCURVE",
"867 50 OFFCURVE",
"949 152 CURVE",
"933 183 LINE",
"909 178 OFFCURVE",
"729 153 OFFCURVE",
"639 153 CURVE SMOOTH",
"518 153 OFFCURVE",
"415 297 OFFCURVE",
"391 444 CURVE"
);
},
{
closed = 1;
nodes = (
"386 533 LINE",
"388 679 OFFCURVE",
"406 762 OFFCURVE",
"436 810 CURVE SMOOTH",
"447 828 OFFCURVE",
"468 829 OFFCURVE",
"487 829 CURVE SMOOTH",
"600 829 OFFCURVE",
"700 745 OFFCURVE",
"720 582 CURVE"
);
}
);
width = 1051;
},
{
background = {
paths = (
{
closed = 1;
nodes = (
"783 488 LINE",
"808 488 OFFCURVE",
"817 500 OFFCURVE",
"824 522 CURVE SMOOTH",
"838 567 OFFCURVE",
"845 613 OFFCURVE",
"845 656 CURVE SMOOTH",
"845 832 OFFCURVE",
"731 975 OFFCURVE",
"528 975 CURVE SMOOTH",
"257 975 OFFCURVE",
"75 744 OFFCURVE",
"75 453 CURVE SMOOTH",
"75 109 OFFCURVE",
"262 -22 OFFCURVE",
"478 -25 CURVE SMOOTH",
"488 -25 OFFCURVE",
"498 -24 OFFCURVE",
"508 -23 CURVE",
"475 -48 OFFCURVE",
"438 -77 OFFCURVE",
"408 -106 CURVE SMOOTH",
"357 -157 OFFCURVE",
"325 -215 OFFCURVE",
"325 -287 CURVE SMOOTH",
"325 -406 OFFCURVE",
"422 -476 OFFCURVE",
"527 -476 CURVE SMOOTH",
"616 -476 OFFCURVE",
"693 -421 OFFCURVE",
"767 -354 CURVE",
"744 -316 LINE",
"684 -340 OFFCURVE",
"633 -356 OFFCURVE",
"591 -356 CURVE SMOOTH",
"578 -356 OFFCURVE",
"565 -353 OFFCURVE",
"553 -349 CURVE SMOOTH",
"506 -331 OFFCURVE",
"472 -281 OFFCURVE",
"472 -236 CURVE SMOOTH",
"472 -182 OFFCURVE",
"529 -106 OFFCURVE",
"661 8 CURVE SMOOTH",
"715 54 OFFCURVE",
"777 89 OFFCURVE",
"838 156 CURVE",
"814 189 LINE",
"793 179 OFFCURVE",
"663 119 OFFCURVE",
"548 119 CURVE SMOOTH",
"365 119 OFFCURVE",
"258 314 OFFCURVE",
"247 488 CURVE"
);
},
{
closed = 1;
nodes = (
"246 563 LINE",
"254 702 OFFCURVE",
"296 798 OFFCURVE",
"329 833 CURVE SMOOTH",
"352 856 OFFCURVE",
"399 858 OFFCURVE",
"431 858 CURVE SMOOTH",
"566 858 OFFCURVE",
"678 769 OFFCURVE",
"679 597 CURVE"
);
}
);
};
layerId = UUID0;
name = Regular;
paths = (
{
closed = 1;
nodes = (
"783 488 LINE",
"808 488 OFFCURVE",
"817 500 OFFCURVE",
"824 522 CURVE SMOOTH",
"838 567 OFFCURVE",
"845 613 OFFCURVE",
"845 656 CURVE SMOOTH",
"845 832 OFFCURVE",
"731 975 OFFCURVE",
"528 975 CURVE SMOOTH",
"257 975 OFFCURVE",
"75 744 OFFCURVE",
"75 453 CURVE SMOOTH",
"75 109 OFFCURVE",
"262 -22 OFFCURVE",
"478 -25 CURVE SMOOTH",
"488 -25 OFFCURVE",
"498 -24 OFFCURVE",
"508 -23 CURVE",
"475 -48 OFFCURVE",
"438 -77 OFFCURVE",
"408 -106 CURVE SMOOTH",
"357 -157 OFFCURVE",
"325 -215 OFFCURVE",
"325 -287 CURVE SMOOTH",
"325 -406 OFFCURVE",
"422 -476 OFFCURVE",
"527 -476 CURVE SMOOTH",
"616 -476 OFFCURVE",
"693 -421 OFFCURVE",
"767 -354 CURVE",
"744 -316 LINE",
"684 -340 OFFCURVE",
"633 -356 OFFCURVE",
"591 -356 CURVE SMOOTH",
"578 -356 OFFCURVE",
"565 -353 OFFCURVE",
"553 -349 CURVE SMOOTH",
"506 -331 OFFCURVE",
"472 -281 OFFCURVE",
"472 -236 CURVE SMOOTH",
"472 -182 OFFCURVE",
"529 -106 OFFCURVE",
"661 8 CURVE SMOOTH",
"715 54 OFFCURVE",
"777 89 OFFCURVE",
"838 156 CURVE",
"814 189 LINE",
"793 179 OFFCURVE",
"663 119 OFFCURVE",
"548 119 CURVE SMOOTH",
"365 119 OFFCURVE",
"258 314 OFFCURVE",
"247 488 CURVE"
);
},
{
closed = 1;
nodes = (
"246 563 LINE",
"254 702 OFFCURVE",
"296 798 OFFCURVE",
"329 833 CURVE SMOOTH",
"352 856 OFFCURVE",
"399 858 OFFCURVE",
"431 858 CURVE SMOOTH",
"566 858 OFFCURVE",
"678 769 OFFCURVE",
"679 597 CURVE"
);
}
);
width = 922;
}
);
leftKerningGroup = o;
leftMetricsKey = "=e";
rightKerningGroup = e;
rightMetricsKey = "=e";
unicode = 0119;
},
{
glyphname = f;
lastChange = "2015-03-23 17:17:52 +0000";
layers = (
{
anchors = (
{
name = top;
position = "{620, 1416}";
}
);
background = {
anchors = (
{
name = top;
position = "{620, 1416}";
}
);
paths = (
{
closed = 1;
nodes = (
"54 0 LINE",
"797 0 LINE",
"812 65 LINE",
"544 140 LINE",
"544 784 LINE",
"847 873 LINE",
"860 950 LINE",
"544 950 LINE",
"544 1179 OFFCURVE",
"574 1339 OFFCURVE",
"704 1389 CURVE",
"743 1199 LINE",
"769 1169 OFFCURVE",
"829 1118 OFFCURVE",
"868 1118 CURVE SMOOTH",
"921 1118 OFFCURVE",
"1071 1263 OFFCURVE",
"1071 1320 CURVE SMOOTH",
"1071 1347 OFFCURVE",
"1019 1395 OFFCURVE",
"964 1422 CURVE SMOOTH",
"893 1457 OFFCURVE",
"825 1472 OFFCURVE",
"699 1472 CURVE SMOOTH",
"362 1472 OFFCURVE",
"200 1313 OFFCURVE",
"200 950 CURVE",
"68 950 LINE",
"49 862 LINE",
"200 782 LINE",
"200 150 LINE",
"69 73 LINE"
);
}
);
};
layerId = UUID1;
name = Bold;
paths = (
{
closed = 1;
nodes = (
"54 0 LINE",
"797 0 LINE",
"812 65 LINE",
"544 140 LINE",
"544 784 LINE",
"847 873 LINE",
"860 950 LINE",
"544 950 LINE",
"544 1179 OFFCURVE",
"574 1339 OFFCURVE",
"704 1389 CURVE",
"743 1199 LINE",
"769 1169 OFFCURVE",
"829 1118 OFFCURVE",
"868 1118 CURVE SMOOTH",
"921 1118 OFFCURVE",
"1071 1263 OFFCURVE",
"1071 1320 CURVE SMOOTH",
"1071 1347 OFFCURVE",
"1019 1395 OFFCURVE",
"964 1422 CURVE SMOOTH",
"893 1457 OFFCURVE",
"825 1472 OFFCURVE",
"699 1472 CURVE SMOOTH",
"362 1472 OFFCURVE",
"200 1313 OFFCURVE",
"200 950 CURVE",
"68 950 LINE",
"49 862 LINE",
"200 782 LINE",
"200 150 LINE",
"69 73 LINE"
);
}
);
width = 855;
},
{
anchors = (
{
name = top;
position = "{530, 1414}";
}
);
background = {
anchors = (
{
name = top;
position = "{530, 1414}";
}
);
paths = (
{
closed = 1;
nodes = (
"59 0 LINE",
"637 0 LINE",
"654 79 LINE",
"400 126 LINE",
"400 813 LINE",
"698 869 LINE",
"712 950 LINE",
"400 950 LINE",
"400 1168 OFFCURVE",
"421 1381 OFFCURVE",
"630 1411 CURVE",
"662 1248 LINE",
"678 1240 OFFCURVE",
"703 1231 OFFCURVE",
"726 1231 CURVE SMOOTH",
"779 1231 OFFCURVE",
"844 1295 OFFCURVE",
"844 1356 CURVE SMOOTH",
"844 1399 OFFCURVE",
"811 1429 OFFCURVE",
"778 1444 CURVE SMOOTH",
"738 1463 OFFCURVE",
"683 1472 OFFCURVE",
"613 1472 CURVE SMOOTH",
"327 1472 OFFCURVE",
"222 1313 OFFCURVE",
"222 950 CURVE",
"74 950 LINE",
"57 862 LINE",
"222 811 LINE",
"222 136 LINE",
"76 87 LINE"
);
}
);
};
layerId = UUID0;
name = Regular;
paths = (
{
closed = 1;
nodes = (
"59 0 LINE",
"637 0 LINE",
"654 79 LINE",
"400 126 LINE",
"400 813 LINE",
"698 869 LINE",
"712 950 LINE",
"400 950 LINE",
"400 1168 OFFCURVE",
"421 1381 OFFCURVE",
"630 1411 CURVE",
"662 1248 LINE",
"678 1240 OFFCURVE",
"703 1231 OFFCURVE",
"726 1231 CURVE SMOOTH",
"779 1231 OFFCURVE",
"844 1295 OFFCURVE",
"844 1356 CURVE SMOOTH",
"844 1399 OFFCURVE",
"811 1429 OFFCURVE",
"778 1444 CURVE SMOOTH",
"738 1463 OFFCURVE",
"683 1472 OFFCURVE",
"613 1472 CURVE SMOOTH",
"327 1472 OFFCURVE",
"222 1313 OFFCURVE",
"222 950 CURVE",
"74 950 LINE",
"57 862 LINE",
"222 811 LINE",
"222 136 LINE",
"76 87 LINE"
);
}
);
width = 724;
}
);
leftKerningGroup = f;
rightKerningGroup = f;
unicode = 0066;
},
{
glyphname = g;
lastChange = "2015-03-23 17:17:51 +0000";
layers = (
{
anchors = (
{
name = top;
position = "{565, 950}";
}
);
background = {
anchors = (
{
name = top;
position = "{565, 950}";
}
);
paths = (
{
closed = 1;
nodes = (
"244 975 OFFCURVE",
"93 794 OFFCURVE",
"93 582 CURVE SMOOTH",
"93 382 OFFCURVE",
"259 267 OFFCURVE",
"550 267 CURVE SMOOTH",
"802 267 OFFCURVE",
"1024 401 OFFCURVE",
"1024 651 CURVE SMOOTH",
"1024 879 OFFCURVE",
"788 975 OFFCURVE",
"592 975 CURVE SMOOTH"
);
},
{
closed = 1;
nodes = (
"483 389 OFFCURVE",
"418 535 OFFCURVE",
"418 701 CURVE SMOOTH",
"418 748 OFFCURVE",
"428 809 OFFCURVE",
"448 835 CURVE SMOOTH",
"461 852 OFFCURVE",
"492 854 OFFCURVE",
"514 854 CURVE SMOOTH",
"652 854 OFFCURVE",
"711 723 OFFCURVE",
"711 606 CURVE SMOOTH",
"711 482 OFFCURVE",
"698 423 OFFCURVE",
"682 407 CURVE SMOOTH",
"670 395 OFFCURVE",
"650 389 OFFCURVE",
"618 389 CURVE SMOOTH"
);
},
{
closed = 1;
nodes = (
"1183 948 LINE",
"1163 986 LINE",
"1039 986 OFFCURVE",
"927 955 OFFCURVE",
"835 904 CURVE",
"835 904 OFFCURVE",
"989 739 OFFCURVE",
"989 739 CURVE"
);
},
{
closed = 1;
nodes = (
"930 -500 OFFCURVE",
"1127 -304 OFFCURVE",
"1127 -67 CURVE SMOOTH",
"1127 46 OFFCURVE",
"1090 144 OFFCURVE",
"846 144 CURVE SMOOTH",
"492 144 OFFCURVE",
"433 146 OFFCURVE",
"399 158 CURVE SMOOTH",
"385 163 OFFCURVE",
"372 175 OFFCURVE",
"372 190 CURVE SMOOTH",
"372 217 OFFCURVE",
"385 254 OFFCURVE",
"396 285 CURVE",
"312 305 LINE",
"209 284 OFFCURVE",
"63 225 OFFCURVE",
"63 103 CURVE SMOOTH",
"63 -14 OFFCURVE",
"148 -60 OFFCURVE",
"241 -83 CURVE SMOOTH",
"367 -114 OFFCURVE",
"600 -114 OFFCURVE",
"757 -114 CURVE SMOOTH",
"826 -114 OFFCURVE",
"831 -136 OFFCURVE",
"831 -174 CURVE SMOOTH",
"831 -256 OFFCURVE",
"792 -328 OFFCURVE",
"781 -337 CURVE SMOOTH",
"746 -363 OFFCURVE",
"669 -370 OFFCURVE",
"613 -370 CURVE SMOOTH",
"476 -370 OFFCURVE",
"308 -333 OFFCURVE",
"270 -281 CURVE SMOOTH",
"263 -272 OFFCURVE",
"262 -259 OFFCURVE",
"262 -245 CURVE SMOOTH",
"262 -202 OFFCURVE",
"281 -128 OFFCURVE",
"304 -80 CURVE",
"215 -65 LINE",
"106 -97 OFFCURVE",
"-1 -163 OFFCURVE",
"-1 -283 CURVE SMOOTH",
"-1 -346 OFFCURVE",
"32 -391 OFFCURVE",
"83 -423 CURVE SMOOTH",
"184 -487 OFFCURVE",
"357 -500 OFFCURVE",
"491 -500 CURVE SMOOTH"
);
}
);
};
layerId = UUID1;
name = Bold;
paths = (
{
closed = 1;
nodes = (
"244 975 OFFCURVE",
"93 794 OFFCURVE",
"93 582 CURVE SMOOTH",
"93 382 OFFCURVE",
"259 267 OFFCURVE",
"550 267 CURVE SMOOTH",
"802 267 OFFCURVE",
"1024 401 OFFCURVE",
"1024 651 CURVE SMOOTH",
"1024 879 OFFCURVE",
"788 975 OFFCURVE",
"592 975 CURVE SMOOTH"
);
},
{
closed = 1;
nodes = (
"483 389 OFFCURVE",
"418 535 OFFCURVE",
"418 701 CURVE SMOOTH",
"418 748 OFFCURVE",
"428 809 OFFCURVE",
"448 835 CURVE SMOOTH",
"461 852 OFFCURVE",
"492 854 OFFCURVE",
"514 854 CURVE SMOOTH",
"652 854 OFFCURVE",
"711 723 OFFCURVE",
"711 606 CURVE SMOOTH",
"711 482 OFFCURVE",
"698 423 OFFCURVE",
"682 407 CURVE SMOOTH",
"670 395 OFFCURVE",
"650 389 OFFCURVE",
"618 389 CURVE SMOOTH"
);
},
{
closed = 1;
nodes = (
"1183 948 LINE",
"1163 986 LINE",
"1039 986 OFFCURVE",
"927 955 OFFCURVE",
"835 904 CURVE",
"835 904 OFFCURVE",
"989 739 OFFCURVE",
"989 739 CURVE"
);
},
{
closed = 1;
nodes = (
"930 -500 OFFCURVE",
"1127 -304 OFFCURVE",
"1127 -67 CURVE SMOOTH",
"1127 46 OFFCURVE",
"1090 144 OFFCURVE",
"846 144 CURVE SMOOTH",
"492 144 OFFCURVE",
"433 146 OFFCURVE",
"399 158 CURVE SMOOTH",
"385 163 OFFCURVE",
"372 175 OFFCURVE",
"372 190 CURVE SMOOTH",
"372 217 OFFCURVE",
"385 254 OFFCURVE",
"396 285 CURVE",
"312 305 LINE",
"209 284 OFFCURVE",
"63 225 OFFCURVE",
"63 103 CURVE SMOOTH",
"63 -14 OFFCURVE",
"148 -60 OFFCURVE",
"241 -83 CURVE SMOOTH",
"367 -114 OFFCURVE",
"600 -114 OFFCURVE",
"757 -114 CURVE SMOOTH",
"826 -114 OFFCURVE",
"831 -136 OFFCURVE",
"831 -174 CURVE SMOOTH",
"831 -256 OFFCURVE",
"792 -328 OFFCURVE",
"781 -337 CURVE SMOOTH",
"746 -363 OFFCURVE",
"669 -370 OFFCURVE",
"613 -370 CURVE SMOOTH",
"476 -370 OFFCURVE",
"308 -333 OFFCURVE",
"270 -281 CURVE SMOOTH",
"263 -272 OFFCURVE",
"262 -259 OFFCURVE",
"262 -245 CURVE SMOOTH",
"262 -202 OFFCURVE",
"281 -128 OFFCURVE",
"304 -80 CURVE",
"215 -65 LINE",
"106 -97 OFFCURVE",
"-1 -163 OFFCURVE",
"-1 -283 CURVE SMOOTH",
"-1 -346 OFFCURVE",
"32 -391 OFFCURVE",
"83 -423 CURVE SMOOTH",
"184 -487 OFFCURVE",
"357 -500 OFFCURVE",
"491 -500 CURVE SMOOTH"
);
}
);
width = 1169;
},
{
anchors = (
{
name = top;
position = "{493, 950}";
}
);
background = {
anchors = (
{
name = top;
position = "{493, 950}";
}
);
paths = (
{
closed = 1;
nodes = (
"229 975 OFFCURVE",
"112 796 OFFCURVE",
"112 587 CURVE SMOOTH",
"112 358 OFFCURVE",
"305 279 OFFCURVE",
"462 279 CURVE SMOOTH",
"723 279 OFFCURVE",
"857 440 OFFCURVE",
"857 656 CURVE SMOOTH",
"857 849 OFFCURVE",
"713 975 OFFCURVE",
"516 975 CURVE SMOOTH"
);
},
{
closed = 1;
nodes = (
"386 398 OFFCURVE",
"273 545 OFFCURVE",
"273 686 CURVE SMOOTH",
"273 744 OFFCURVE",
"288 792 OFFCURVE",
"311 827 CURVE SMOOTH",
"326 850 OFFCURVE",
"387 864 OFFCURVE",
"436 864 CURVE SMOOTH",
"610 864 OFFCURVE",
"697 755 OFFCURVE",
"697 597 CURVE SMOOTH",
"697 540 OFFCURVE",
"685 462 OFFCURVE",
"658 435 CURVE SMOOTH",
"634 411 OFFCURVE",
"594 398 OFFCURVE",
"547 398 CURVE SMOOTH"
);
},
{
closed = 1;
nodes = (
"999 932 LINE",
"980 975 LINE",
"929 975 OFFCURVE",
"801 956 OFFCURVE",
"703 901 CURVE",
"703 901 OFFCURVE",
"810 775 OFFCURVE",
"810 775 CURVE"
);
},
{
closed = 1;
nodes = (
"749 -500 OFFCURVE",
"961 -286 OFFCURVE",
"961 -84 CURVE SMOOTH",
"961 63 OFFCURVE",
"850 114 OFFCURVE",
"666 114 CURVE SMOOTH",
"392 114 OFFCURVE",
"313 117 OFFCURVE",
"274 131 CURVE SMOOTH",
"257 137 OFFCURVE",
"242 153 OFFCURVE",
"242 171 CURVE SMOOTH",
"242 212 OFFCURVE",
"307 299 OFFCURVE",
"325 322 CURVE",
"287 336 LINE",
"217 309 OFFCURVE",
"89 239 OFFCURVE",
"89 133 CURVE SMOOTH",
"89 70 OFFCURVE",
"145 -11 OFFCURVE",
"252 -29 CURVE SMOOTH",
"328 -42 OFFCURVE",
"472 -43 OFFCURVE",
"691 -43 CURVE SMOOTH",
"805 -43 OFFCURVE",
"813 -96 OFFCURVE",
"813 -158 CURVE SMOOTH",
"813 -226 OFFCURVE",
"783 -273 OFFCURVE",
"758 -293 CURVE SMOOTH",
"700 -339 OFFCURVE",
"565 -346 OFFCURVE",
"486 -346 CURVE SMOOTH",
"332 -346 OFFCURVE",
"229 -304 OFFCURVE",
"197 -259 CURVE SMOOTH",
"190 -250 OFFCURVE",
"188 -238 OFFCURVE",
"188 -224 CURVE SMOOTH",
"188 -161 OFFCURVE",
"243 -62 OFFCURVE",
"269 -20 CURVE",
"233 -3 LINE",
"146 -73 OFFCURVE",
"31 -167 OFFCURVE",
"31 -271 CURVE SMOOTH",
"31 -323 OFFCURVE",
"43 -375 OFFCURVE",
"90 -416 CURVE SMOOTH",
"146 -465 OFFCURVE",
"281 -500 OFFCURVE",
"388 -500 CURVE SMOOTH"
);
}
);
};
layerId = UUID0;
name = Regular;
paths = (
{
closed = 1;
nodes = (
"229 975 OFFCURVE",
"112 796 OFFCURVE",
"112 587 CURVE SMOOTH",
"112 358 OFFCURVE",
"305 279 OFFCURVE",
"462 279 CURVE SMOOTH",
"723 279 OFFCURVE",
"857 440 OFFCURVE",
"857 656 CURVE SMOOTH",
"857 849 OFFCURVE",
"713 975 OFFCURVE",
"516 975 CURVE SMOOTH"
);
},
{
closed = 1;
nodes = (
"386 398 OFFCURVE",
"273 545 OFFCURVE",
"273 686 CURVE SMOOTH",
"273 744 OFFCURVE",
"288 792 OFFCURVE",
"311 827 CURVE SMOOTH",
"326 850 OFFCURVE",
"387 864 OFFCURVE",
"436 864 CURVE SMOOTH",
"610 864 OFFCURVE",
"697 755 OFFCURVE",
"697 597 CURVE SMOOTH",
"697 540 OFFCURVE",
"685 462 OFFCURVE",
"658 435 CURVE SMOOTH",
"634 411 OFFCURVE",
"594 398 OFFCURVE",
"547 398 CURVE SMOOTH"
);
},
{
closed = 1;
nodes = (
"999 932 LINE",
"980 975 LINE",
"929 975 OFFCURVE",
"801 956 OFFCURVE",
"703 901 CURVE",
"703 901 OFFCURVE",
"810 775 OFFCURVE",
"810 775 CURVE"
);
},
{
closed = 1;
nodes = (
"749 -500 OFFCURVE",
"961 -286 OFFCURVE",
"961 -84 CURVE SMOOTH",
"961 63 OFFCURVE",
"850 114 OFFCURVE",
"666 114 CURVE SMOOTH",
"392 114 OFFCURVE",
"313 117 OFFCURVE",
"274 131 CURVE SMOOTH",
"257 137 OFFCURVE",
"242 153 OFFCURVE",
"242 171 CURVE SMOOTH",
"242 212 OFFCURVE",
"307 299 OFFCURVE",
"325 322 CURVE",
"287 336 LINE",
"217 309 OFFCURVE",
"89 239 OFFCURVE",
"89 133 CURVE SMOOTH",
"89 70 OFFCURVE",
"145 -11 OFFCURVE",
"252 -29 CURVE SMOOTH",
"328 -42 OFFCURVE",
"472 -43 OFFCURVE",
"691 -43 CURVE SMOOTH",
"805 -43 OFFCURVE",
"813 -96 OFFCURVE",
"813 -158 CURVE SMOOTH",
"813 -226 OFFCURVE",
"783 -273 OFFCURVE",
"758 -293 CURVE SMOOTH",
"700 -339 OFFCURVE",
"565 -346 OFFCURVE",
"486 -346 CURVE SMOOTH",
"332 -346 OFFCURVE",
"229 -304 OFFCURVE",
"197 -259 CURVE SMOOTH",
"190 -250 OFFCURVE",
"188 -238 OFFCURVE",
"188 -224 CURVE SMOOTH",
"188 -161 OFFCURVE",
"243 -62 OFFCURVE",
"269 -20 CURVE",
"233 -3 LINE",
"146 -73 OFFCURVE",
"31 -167 OFFCURVE",
"31 -271 CURVE SMOOTH",
"31 -323 OFFCURVE",
"43 -375 OFFCURVE",
"90 -416 CURVE SMOOTH",
"146 -465 OFFCURVE",
"281 -500 OFFCURVE",
"388 -500 CURVE SMOOTH"
);
}
);
width = 1005;
}
);
leftKerningGroup = g;
rightKerningGroup = g;
unicode = 0067;
},
{
glyphname = h;
lastChange = "2015-03-23 17:17:51 +0000";
layers = (
{
anchors = (
{
name = bottom;
position = "{676, 0}";
},
{
name = center;
position = "{667, 475}";
},
{
name = top;
position = "{320, 1384}";
}
);
background = {
anchors = (
{
name = center;
position = "{667, 475}";
},
{
name = bottom;
position = "{676, 0}";
},
{
name = top;
position = "{320, 1384}";
}
);
paths = (
{
closed = 1;
nodes = (
"512 748 LINE",
"562 766 OFFCURVE",
"685 777 OFFCURVE",
"758 777 CURVE SMOOTH",
"776 777 OFFCURVE",
"785 774 OFFCURVE",
"794 764 CURVE SMOOTH",
"813 743 OFFCURVE",
"831 672 OFFCURVE",
"831 553 CURVE SMOOTH",
"831 150 LINE",
"753 67 LINE",
"740 0 LINE",
"1311 0 LINE",
"1327 62 LINE",
"1175 140 LINE",
"1175 621 LINE SMOOTH",
"1175 912 OFFCURVE",
"1014 975 OFFCURVE",
"867 975 CURVE SMOOTH",
"746 975 OFFCURVE",
"637 925 OFFCURVE",
"489 807 CURVE"
);
},
{
closed = 1;
nodes = (
"171 150 LINE",
"39 72 LINE",
"26 0 LINE",
"625 0 LINE",
"639 59 LINE",
"515 140 LINE",
"515 1472 LINE",
"42 1412 LINE",
"33 1365 LINE",
"171 1271 LINE"
);
}
);
};
layerId = UUID1;
name = Bold;
paths = (
{
closed = 1;
nodes = (
"512 748 LINE",
"562 766 OFFCURVE",
"685 777 OFFCURVE",
"758 777 CURVE SMOOTH",
"776 777 OFFCURVE",
"785 774 OFFCURVE",
"794 764 CURVE SMOOTH",
"813 743 OFFCURVE",
"831 672 OFFCURVE",
"831 553 CURVE SMOOTH",
"831 150 LINE",
"753 67 LINE",
"740 0 LINE",
"1311 0 LINE",
"1327 62 LINE",
"1175 140 LINE",
"1175 621 LINE SMOOTH",
"1175 912 OFFCURVE",
"1014 975 OFFCURVE",
"867 975 CURVE SMOOTH",
"746 975 OFFCURVE",
"637 925 OFFCURVE",
"489 807 CURVE"
);
},
{
closed = 1;
nodes = (
"171 150 LINE",
"39 72 LINE",
"26 0 LINE",
"625 0 LINE",
"639 59 LINE",
"515 140 LINE",
"515 1472 LINE",
"42 1412 LINE",
"33 1365 LINE",
"171 1271 LINE"
);
}
);
width = 1340;
},
{
anchors = (
{
name = bottom;
position = "{600, 0}";
},
{
name = center;
position = "{590, 475}";
},
{
name = top;
position = "{252, 1384}";
}
);
background = {
anchors = (
{
name = center;
position = "{590, 475}";
},
{
name = bottom;
position = "{600, 0}";
},
{
name = top;
position = "{252, 1384}";
}
);
paths = (
{
closed = 1;
nodes = (
"371 755 LINE",
"459 785 OFFCURVE",
"630 827 OFFCURVE",
"686 827 CURVE SMOOTH",
"700 827 OFFCURVE",
"711 823 OFFCURVE",
"725 814 CURVE",
"768 782 OFFCURVE",
"820 701 OFFCURVE",
"820 550 CURVE SMOOTH",
"820 131 LINE",
"715 87 LINE",
"698 0 LINE",
"1150 0 LINE",
"1167 82 LINE",
"999 126 LINE",
"999 618 LINE",
"999 893 OFFCURVE",
"866 973 OFFCURVE",
"748 973 CURVE SMOOTH",
"635 973 OFFCURVE",
"471 886 OFFCURVE",
"362 800 CURVE"
);
},
{
closed = 1;
nodes = (
"198 126 LINE",
"56 83 LINE",
"39 0 LINE",
"525 0 LINE",
"543 82 LINE",
"377 126 LINE",
"377 1472 LINE",
"53 1412 LINE",
"44 1365 LINE",
"198 1287 LINE"
);
}
);
};
layerId = UUID0;
name = Regular;
paths = (
{
closed = 1;
nodes = (
"371 755 LINE",
"459 785 OFFCURVE",
"630 827 OFFCURVE",
"686 827 CURVE SMOOTH",
"700 827 OFFCURVE",
"711 823 OFFCURVE",
"725 814 CURVE",
"768 782 OFFCURVE",
"820 701 OFFCURVE",
"820 550 CURVE SMOOTH",
"820 131 LINE",
"715 87 LINE",
"698 0 LINE",
"1150 0 LINE",
"1167 82 LINE",
"999 126 LINE",
"999 618 LINE",
"999 893 OFFCURVE",
"866 973 OFFCURVE",
"748 973 CURVE SMOOTH",
"635 973 OFFCURVE",
"471 886 OFFCURVE",
"362 800 CURVE"
);
},
{
closed = 1;
nodes = (
"198 126 LINE",
"56 83 LINE",
"39 0 LINE",
"525 0 LINE",
"543 82 LINE",
"377 126 LINE",
"377 1472 LINE",
"53 1412 LINE",
"44 1365 LINE",
"198 1287 LINE"
);
}
);
width = 1180;
}
);
leftKerningGroup = h;
rightKerningGroup = n;
unicode = 0068;
},
{
glyphname = i;
lastChange = "2015-03-23 17:17:51 +0000";
layers = (
{
anchors = (
{
name = bottom;
position = "{360, 0}";
}
);
background = {
anchors = (
{
name = bottom;
position = "{360, 0}";
}
);
paths = (
{
closed = 1;
nodes = (
"405 1075 OFFCURVE",
"555 1217 OFFCURVE",
"555 1279 CURVE SMOOTH",
"555 1330 OFFCURVE",
"419 1483 OFFCURVE",
"355 1483 CURVE SMOOTH",
"295 1483 OFFCURVE",
"147 1338 OFFCURVE",
"147 1281 CURVE SMOOTH",
"147 1226 OFFCURVE",
"287 1075 OFFCURVE",
"348 1075 CURVE SMOOTH"
);
},
{
closed = 1;
nodes = (
"42 0 LINE",
"651 0 LINE",
"665 59 LINE",
"532 140 LINE",
"532 965 LINE",
"59 909 LINE",
"51 860 LINE",
"188 767 LINE",
"188 150 LINE",
"57 73 LINE"
);
}
);
};
layerId = UUID1;
name = Bold;
paths = (
{
closed = 1;
nodes = (
"405 1075 OFFCURVE",
"555 1217 OFFCURVE",
"555 1279 CURVE SMOOTH",
"555 1330 OFFCURVE",
"419 1483 OFFCURVE",
"355 1483 CURVE SMOOTH",
"295 1483 OFFCURVE",
"147 1338 OFFCURVE",
"147 1281 CURVE SMOOTH",
"147 1226 OFFCURVE",
"287 1075 OFFCURVE",
"348 1075 CURVE SMOOTH"
);
},
{
closed = 1;
nodes = (
"42 0 LINE",
"651 0 LINE",
"665 59 LINE",
"532 140 LINE",
"532 965 LINE",
"59 909 LINE",
"51 860 LINE",
"188 767 LINE",
"188 150 LINE",
"57 73 LINE"
);
}
);
width = 698;
},
{
anchors = (
{
name = bottom;
position = "{310, 0}";
}
);
background = {
anchors = (
{
name = bottom;
position = "{310, 0}";
}
);
paths = (
{
closed = 1;
nodes = (
"407 1196 OFFCURVE",
"428 1327 OFFCURVE",
"404 1356 CURVE SMOOTH",
"383 1382 OFFCURVE",
"259 1404 OFFCURVE",
"223 1379 CURVE SMOOTH",
"195 1359 OFFCURVE",
"176 1228 OFFCURVE",
"201 1197 CURVE SMOOTH",
"226 1165 OFFCURVE",
"356 1156 OFFCURVE",
"380 1175 CURVE SMOOTH"
);
},
{
closed = 1;
nodes = (
"54 0 LINE",
"541 0 LINE",
"559 82 LINE",
"394 126 LINE",
"394 965 LINE",
"70 900 LINE",
"61 853 LINE",
"215 776 LINE",
"215 126 LINE",
"69 84 LINE"
);
}
);
};
layerId = UUID0;
name = Regular;
paths = (
{
closed = 1;
nodes = (
"407 1196 OFFCURVE",
"428 1327 OFFCURVE",
"404 1356 CURVE SMOOTH",
"383 1382 OFFCURVE",
"259 1404 OFFCURVE",
"223 1379 CURVE SMOOTH",
"195 1359 OFFCURVE",
"176 1228 OFFCURVE",
"201 1197 CURVE SMOOTH",
"226 1165 OFFCURVE",
"356 1156 OFFCURVE",
"380 1175 CURVE SMOOTH"
);
},
{
closed = 1;
nodes = (
"54 0 LINE",
"541 0 LINE",
"559 82 LINE",
"394 126 LINE",
"394 965 LINE",
"70 900 LINE",
"61 853 LINE",
"215 776 LINE",
"215 126 LINE",
"69 84 LINE"
);
}
);
width = 590;
}
);
leftKerningGroup = i;
rightKerningGroup = i;
unicode = 0069;
},
{
glyphname = dotlessi;
lastChange = "2015-03-23 17:17:51 +0000";
layers = (
{
anchors = (
{
name = bottom;
position = "{355, 0}";
},
{
name = ogonek;
position = "{493, 0}";
},
{
name = top;
position = "{340, 950}";
}
);
background = {
anchors = (
{
name = ogonek;
position = "{493, 0}";
},
{
name = bottom;
position = "{355, 0}";
},
{
name = top;
position = "{340, 950}";
}
);
paths = (
{
closed = 1;
nodes = (
"42 0 LINE",
"651 0 LINE",
"665 59 LINE",
"532 140 LINE",
"532 960 LINE",
"59 909 LINE",
"51 860 LINE",
"188 767 LINE",
"188 150 LINE",
"57 73 LINE"
);
}
);
};
layerId = UUID1;
name = Bold;
paths = (
{
closed = 1;
nodes = (
"42 0 LINE",
"651 0 LINE",
"665 59 LINE",
"532 140 LINE",
"532 960 LINE",
"59 909 LINE",
"51 860 LINE",
"188 767 LINE",
"188 150 LINE",
"57 73 LINE"
);
}
);
width = 698;
},
{
anchors = (
{
name = bottom;
position = "{315, 0}";
},
{
name = ogonek;
position = "{415, 0}";
},
{
name = top;
position = "{285, 950}";
}
);
background = {
anchors = (
{
name = ogonek;
position = "{415, 0}";
},
{
name = bottom;
position = "{315, 0}";
},
{
name = top;
position = "{285, 950}";
}
);
paths = (
{
closed = 1;
nodes = (
"54 0 LINE",
"541 0 LINE",
"559 82 LINE",
"394 126 LINE",
"394 965 LINE",
"70 900 LINE",
"61 853 LINE",
"215 776 LINE",
"215 126 LINE",
"69 84 LINE"
);
}
);
};
layerId = UUID0;
name = Regular;
paths = (
{
closed = 1;
nodes = (
"54 0 LINE",
"541 0 LINE",
"559 82 LINE",
"394 126 LINE",
"394 965 LINE",
"70 900 LINE",
"61 853 LINE",
"215 776 LINE",
"215 126 LINE",
"69 84 LINE"
);
}
);
width = 590;
}
);
leftKerningGroup = i;
leftMetricsKey = "=i";
rightKerningGroup = i;
rightMetricsKey = "=i";
unicode = 0131;
},
{
glyphname = iogonek;
lastChange = "2015-03-23 17:17:51 +0000";
layers = (
{
background = {
paths = (
{
closed = 1;
nodes = (
"96 -448 OFFCURVE",
"243 -504 OFFCURVE",
"359 -504 CURVE SMOOTH",
"477 -504 OFFCURVE",
"587 -450 OFFCURVE",
"669 -353 CURVE",
"640 -307 LINE",
"583 -335 OFFCURVE",
"504 -355 OFFCURVE",
"464 -355 CURVE SMOOTH",
"452 -355 OFFCURVE",
"440 -352 OFFCURVE",
"430 -347 CURVE SMOOTH",
"389 -327 OFFCURVE",
"365 -273 OFFCURVE",
"365 -226 CURVE SMOOTH",
"365 -159 OFFCURVE",
"460 -111 OFFCURVE",
"652 2 CURVE",
"665 60 LINE",
"532 140 LINE",
"532 965 LINE",
"59 909 LINE",
"51 860 LINE",
"188 769 LINE",
"188 150 LINE",
"58 72 LINE",
"42 0 LINE",
"422 0 LINE",
"275 -45 OFFCURVE",
"96 -140 OFFCURVE",
"96 -279 CURVE SMOOTH"
);
},
{
closed = 1;
nodes = (
"401 1075 OFFCURVE",
"551 1217 OFFCURVE",
"551 1279 CURVE SMOOTH",
"551 1330 OFFCURVE",
"415 1483 OFFCURVE",
"351 1483 CURVE SMOOTH",
"291 1483 OFFCURVE",
"143 1338 OFFCURVE",
"143 1281 CURVE SMOOTH",
"143 1226 OFFCURVE",
"283 1075 OFFCURVE",
"344 1075 CURVE SMOOTH"
);
}
);
};
layerId = UUID1;
name = Bold;
paths = (
{
closed = 1;
nodes = (
"96 -448 OFFCURVE",
"243 -504 OFFCURVE",
"359 -504 CURVE SMOOTH",
"477 -504 OFFCURVE",
"587 -450 OFFCURVE",
"669 -353 CURVE",
"640 -307 LINE",
"583 -335 OFFCURVE",
"504 -355 OFFCURVE",
"464 -355 CURVE SMOOTH",
"452 -355 OFFCURVE",
"440 -352 OFFCURVE",
"430 -347 CURVE SMOOTH",
"389 -327 OFFCURVE",
"365 -273 OFFCURVE",
"365 -226 CURVE SMOOTH",
"365 -159 OFFCURVE",
"460 -111 OFFCURVE",
"652 2 CURVE",
"665 60 LINE",
"532 140 LINE",
"532 965 LINE",
"59 909 LINE",
"51 860 LINE",
"188 769 LINE",
"188 150 LINE",
"58 72 LINE",
"42 0 LINE",
"422 0 LINE",
"275 -45 OFFCURVE",
"96 -140 OFFCURVE",
"96 -279 CURVE SMOOTH"
);
},
{
closed = 1;
nodes = (
"401 1075 OFFCURVE",
"551 1217 OFFCURVE",
"551 1279 CURVE SMOOTH",
"551 1330 OFFCURVE",
"415 1483 OFFCURVE",
"351 1483 CURVE SMOOTH",
"291 1483 OFFCURVE",
"143 1338 OFFCURVE",
"143 1281 CURVE SMOOTH",
"143 1226 OFFCURVE",
"283 1075 OFFCURVE",
"344 1075 CURVE SMOOTH"
);
}
);
width = 703;
},
{
background = {
paths = (
{
closed = 1;
nodes = (
"141 -408 OFFCURVE",
"236 -476 OFFCURVE",
"337 -476 CURVE SMOOTH",
"426 -476 OFFCURVE",
"488 -425 OFFCURVE",
"552 -354 CURVE",
"529 -316 LINE",
"460 -348 OFFCURVE",
"427 -356 OFFCURVE",
"401 -356 CURVE SMOOTH",
"389 -356 OFFCURVE",
"377 -354 OFFCURVE",
"366 -350 CURVE SMOOTH",
"321 -332 OFFCURVE",
"288 -283 OFFCURVE",
"288 -237 CURVE SMOOTH",
"288 -188 OFFCURVE",
"350 -114 OFFCURVE",
"538 0 CURVE",
"560 81 LINE",
"394 126 LINE",
"394 965 LINE",
"70 900 LINE",
"61 853 LINE",
"215 777 LINE",
"215 126 LINE",
"68 85 LINE",
"54 0 LINE",
"416 0 LINE",
"289 -78 OFFCURVE",
"141 -145 OFFCURVE",
"141 -288 CURVE SMOOTH"
);
},
{
closed = 1;
nodes = (
"407 1196 OFFCURVE",
"428 1327 OFFCURVE",
"404 1356 CURVE SMOOTH",
"383 1382 OFFCURVE",
"259 1404 OFFCURVE",
"223 1379 CURVE SMOOTH",
"195 1359 OFFCURVE",
"176 1228 OFFCURVE",
"201 1197 CURVE SMOOTH",
"226 1165 OFFCURVE",
"356 1156 OFFCURVE",
"380 1175 CURVE SMOOTH"
);
}
);
};
layerId = UUID0;
name = Regular;
paths = (
{
closed = 1;
nodes = (
"141 -408 OFFCURVE",
"236 -476 OFFCURVE",
"337 -476 CURVE SMOOTH",
"426 -476 OFFCURVE",
"488 -425 OFFCURVE",
"552 -354 CURVE",
"529 -316 LINE",
"460 -348 OFFCURVE",
"427 -356 OFFCURVE",
"401 -356 CURVE SMOOTH",
"389 -356 OFFCURVE",
"377 -354 OFFCURVE",
"366 -350 CURVE SMOOTH",
"321 -332 OFFCURVE",
"288 -283 OFFCURVE",
"288 -237 CURVE SMOOTH",
"288 -188 OFFCURVE",
"350 -114 OFFCURVE",
"538 0 CURVE",
"560 81 LINE",
"394 126 LINE",
"394 965 LINE",
"70 900 LINE",
"61 853 LINE",
"215 777 LINE",
"215 126 LINE",
"68 85 LINE",
"54 0 LINE",
"416 0 LINE",
"289 -78 OFFCURVE",
"141 -145 OFFCURVE",
"141 -288 CURVE SMOOTH"
);
},
{
closed = 1;
nodes = (
"407 1196 OFFCURVE",
"428 1327 OFFCURVE",
"404 1356 CURVE SMOOTH",
"383 1382 OFFCURVE",
"259 1404 OFFCURVE",
"223 1379 CURVE SMOOTH",
"195 1359 OFFCURVE",
"176 1228 OFFCURVE",
"201 1197 CURVE SMOOTH",
"226 1165 OFFCURVE",
"356 1156 OFFCURVE",
"380 1175 CURVE SMOOTH"
);
}
);
width = 590;
}
);
leftKerningGroup = i;
leftMetricsKey = "=i";
rightKerningGroup = i;
rightMetricsKey = "=i";
unicode = 012F;
},
{
glyphname = j;
lastChange = "2015-03-23 17:17:51 +0000";
layers = (
{
background = {
paths = (
{
closed = 1;
nodes = (
"162 0 LINE SMOOTH",
"162 -239 OFFCURVE",
"154 -332 OFFCURVE",
"60 -439 CURVE",
"18 -227 LINE",
"-8 -197 OFFCURVE",
"-66 -146 OFFCURVE",
"-104 -146 CURVE SMOOTH",
"-158 -146 OFFCURVE",
"-310 -293 OFFCURVE",
"-310 -347 CURVE SMOOTH",
"-310 -412 OFFCURVE",
"-131 -500 OFFCURVE",
"5 -500 CURVE SMOOTH",
"422 -500 OFFCURVE",
"506 -235 OFFCURVE",
"506 28 CURVE SMOOTH",
"506 965 LINE",
"32 910 LINE",
"25 859 LINE",
"162 766 LINE"
);
},
{
closed = 1;
nodes = (
"370 1075 OFFCURVE",
"525 1209 OFFCURVE",
"525 1279 CURVE SMOOTH",
"525 1328 OFFCURVE",
"388 1484 OFFCURVE",
"324 1483 CURVE SMOOTH",
"259 1482 OFFCURVE",
"117 1338 OFFCURVE",
"117 1281 CURVE SMOOTH",
"117 1225 OFFCURVE",
"257 1075 OFFCURVE",
"318 1075 CURVE SMOOTH"
);
}
);
};
layerId = UUID1;
name = Bold;
paths = (
{
closed = 1;
nodes = (
"162 0 LINE SMOOTH",
"162 -239 OFFCURVE",
"154 -332 OFFCURVE",
"60 -439 CURVE",
"18 -227 LINE",
"-8 -197 OFFCURVE",
"-66 -146 OFFCURVE",
"-104 -146 CURVE SMOOTH",
"-158 -146 OFFCURVE",
"-310 -293 OFFCURVE",
"-310 -347 CURVE SMOOTH",
"-310 -412 OFFCURVE",
"-131 -500 OFFCURVE",
"5 -500 CURVE SMOOTH",
"422 -500 OFFCURVE",
"506 -235 OFFCURVE",
"506 28 CURVE SMOOTH",
"506 965 LINE",
"32 910 LINE",
"25 859 LINE",
"162 766 LINE"
);
},
{
closed = 1;
nodes = (
"370 1075 OFFCURVE",
"525 1209 OFFCURVE",
"525 1279 CURVE SMOOTH",
"525 1328 OFFCURVE",
"388 1484 OFFCURVE",
"324 1483 CURVE SMOOTH",
"259 1482 OFFCURVE",
"117 1338 OFFCURVE",
"117 1281 CURVE SMOOTH",
"117 1225 OFFCURVE",
"257 1075 OFFCURVE",
"318 1075 CURVE SMOOTH"
);
}
);
width = 640;
},
{
background = {
paths = (
{
closed = 1;
nodes = (
"191 0 LINE",
"191 -239 OFFCURVE",
"183 -332 OFFCURVE",
"89 -439 CURVE",
"44 -263 LINE",
"19 -252 OFFCURVE",
"-1 -249 OFFCURVE",
"-19 -249 CURVE SMOOTH",
"-68 -249 OFFCURVE",
"-141 -321 OFFCURVE",
"-141 -382 CURVE SMOOTH",
"-141 -467 OFFCURVE",
"-30 -500 OFFCURVE",
"54 -500 CURVE SMOOTH",
"331 -500 OFFCURVE",
"370 -212 OFFCURVE",
"370 28 CURVE SMOOTH",
"370 965 LINE",
"45 899 LINE",
"37 854 LINE",
"191 776 LINE"
);
},
{
closed = 1;
nodes = (
"374 1196 OFFCURVE",
"395 1327 OFFCURVE",
"371 1356 CURVE SMOOTH",
"350 1382 OFFCURVE",
"226 1404 OFFCURVE",
"190 1379 CURVE SMOOTH",
"162 1359 OFFCURVE",
"143 1228 OFFCURVE",
"168 1197 CURVE SMOOTH",
"193 1165 OFFCURVE",
"323 1156 OFFCURVE",
"347 1175 CURVE SMOOTH"
);
}
);
};
layerId = UUID0;
name = Regular;
paths = (
{
closed = 1;
nodes = (
"191 0 LINE",
"191 -239 OFFCURVE",
"183 -332 OFFCURVE",
"89 -439 CURVE",
"44 -263 LINE",
"19 -252 OFFCURVE",
"-1 -249 OFFCURVE",
"-19 -249 CURVE SMOOTH",
"-68 -249 OFFCURVE",
"-141 -321 OFFCURVE",
"-141 -382 CURVE SMOOTH",
"-141 -467 OFFCURVE",
"-30 -500 OFFCURVE",
"54 -500 CURVE SMOOTH",
"331 -500 OFFCURVE",
"370 -212 OFFCURVE",
"370 28 CURVE SMOOTH",
"370 965 LINE",
"45 899 LINE",
"37 854 LINE",
"191 776 LINE"
);
},
{
closed = 1;
nodes = (
"374 1196 OFFCURVE",
"395 1327 OFFCURVE",
"371 1356 CURVE SMOOTH",
"350 1382 OFFCURVE",
"226 1404 OFFCURVE",
"190 1379 CURVE SMOOTH",
"162 1359 OFFCURVE",
"143 1228 OFFCURVE",
"168 1197 CURVE SMOOTH",
"193 1165 OFFCURVE",
"323 1156 OFFCURVE",
"347 1175 CURVE SMOOTH"
);
}
);
width = 519;
}
);
leftKerningGroup = j;
rightKerningGroup = j;
unicode = 006A;
},
{
glyphname = k;
lastChange = "2015-03-23 17:17:51 +0000";
layers = (
{
anchors = (
{
name = bottom;
position = "{714, 0}";
}
);
background = {
anchors = (
{
name = bottom;
position = "{714, 0}";
}
);
paths = (
{
closed = 1;
nodes = (
"171 150 LINE",
"39 72 LINE",
"26 0 LINE",
"633 0 LINE",
"647 59 LINE",
"515 140 LINE",
"515 1472 LINE",
"42 1412 LINE",
"33 1365 LINE",
"171 1271 LINE"
);
},
{
closed = 1;
nodes = (
"1082 819 LINE",
"1224 875 LINE",
"1240 950 LINE",
"743 950 LINE",
"729 889 LINE",
"830 824 LINE",
"557 550 LINE",
"821 65 LINE",
"809 0 LINE",
"1297 0 LINE",
"1314 61 LINE",
"1190 126 LINE",
"884 625 LINE"
);
}
);
};
layerId = UUID1;
name = Bold;
paths = (
{
closed = 1;
nodes = (
"171 150 LINE",
"39 72 LINE",
"26 0 LINE",
"633 0 LINE",
"647 59 LINE",
"515 140 LINE",
"515 1472 LINE",
"42 1412 LINE",
"33 1365 LINE",
"171 1271 LINE"
);
},
{
closed = 1;
nodes = (
"1082 819 LINE",
"1224 875 LINE",
"1240 950 LINE",
"743 950 LINE",
"729 889 LINE",
"830 824 LINE",
"557 550 LINE",
"821 65 LINE",
"809 0 LINE",
"1297 0 LINE",
"1314 61 LINE",
"1190 126 LINE",
"884 625 LINE"
);
}
);
width = 1305;
},
{
anchors = (
{
name = bottom;
position = "{571, 0}";
}
);
background = {
anchors = (
{
name = bottom;
position = "{571, 0}";
}
);
paths = (
{
closed = 1;
nodes = (
"194 126 LINE",
"56 83 LINE",
"39 0 LINE",
"525 0 LINE",
"543 82 LINE",
"373 126 LINE",
"373 1472 LINE",
"49 1412 LINE",
"40 1365 LINE",
"194 1287 LINE"
);
},
{
closed = 1;
nodes = (
"906 836 LINE",
"1040 872 LINE",
"1056 950 LINE",
"638 950 LINE",
"624 874 LINE",
"752 844 LINE",
"413 550 LINE",
"781 66 LINE",
"768 0 LINE",
"1124 0 LINE",
"1140 76 LINE",
"986 123 LINE",
"605 587 LINE"
);
}
);
};
layerId = UUID0;
name = Regular;
paths = (
{
closed = 1;
nodes = (
"194 126 LINE",
"56 83 LINE",
"39 0 LINE",
"525 0 LINE",
"543 82 LINE",
"373 126 LINE",
"373 1472 LINE",
"49 1412 LINE",
"40 1365 LINE",
"194 1287 LINE"
);
},
{
closed = 1;
nodes = (
"906 836 LINE",
"1040 872 LINE",
"1056 950 LINE",
"638 950 LINE",
"624 874 LINE",
"752 844 LINE",
"413 550 LINE",
"781 66 LINE",
"768 0 LINE",
"1124 0 LINE",
"1140 76 LINE",
"986 123 LINE",
"605 587 LINE"
);
}
);
width = 1142;
}
);
leftKerningGroup = h;
rightKerningGroup = k;
unicode = 006B;
},
{
glyphname = l;
lastChange = "2015-03-23 17:17:51 +0000";
layers = (
{
anchors = (
{
name = bottom;
position = "{353, 0}";
},
{
name = top;
position = "{324, 1404}";
},
{
name = topright;
position = "{516, 1447}";
}
);
background = {
anchors = (
{
name = top;
position = "{324, 1404}";
},
{
name = bottom;
position = "{353, 0}";
},
{
name = topright;
position = "{516, 1447}";
}
);
paths = (
{
closed = 1;
nodes = (
"171 150 LINE",
"39 72 LINE",
"26 0 LINE",
"633 0 LINE",
"647 59 LINE",
"515 140 LINE",
"515 1472 LINE",
"42 1412 LINE",
"33 1365 LINE",
"171 1271 LINE"
);
}
);
};
layerId = UUID1;
name = Bold;
paths = (
{
closed = 1;
nodes = (
"171 150 LINE",
"39 72 LINE",
"26 0 LINE",
"633 0 LINE",
"647 59 LINE",
"515 140 LINE",
"515 1472 LINE",
"42 1412 LINE",
"33 1365 LINE",
"171 1271 LINE"
);
}
);
width = 681;
},
{
anchors = (
{
name = bottom;
position = "{302, 0}";
},
{
name = top;
position = "{267, 1384}";
},
{
name = topright;
position = "{372, 1447}";
}
);
background = {
anchors = (
{
name = top;
position = "{267, 1384}";
},
{
name = bottom;
position = "{302, 0}";
},
{
name = topright;
position = "{372, 1447}";
}
);
paths = (
{
closed = 1;
nodes = (
"194 126 LINE",
"56 83 LINE",
"39 0 LINE",
"525 0 LINE",
"543 82 LINE",
"373 126 LINE",
"373 1472 LINE",
"49 1412 LINE",
"40 1365 LINE",
"194 1287 LINE"
);
}
);
};
layerId = UUID0;
name = Regular;
paths = (
{
closed = 1;
nodes = (
"194 126 LINE",
"56 83 LINE",
"39 0 LINE",
"525 0 LINE",
"543 82 LINE",
"373 126 LINE",
"373 1472 LINE",
"49 1412 LINE",
"40 1365 LINE",
"194 1287 LINE"
);
}
);
width = 572;
}
);
leftKerningGroup = h;
rightKerningGroup = l;
unicode = 006C;
},
{
glyphname = lslash;
lastChange = "2015-03-23 17:17:52 +0000";
layers = (
{
background = {
components = (
{
name = l;
}
);
paths = (
{
closed = 1;
nodes = (
"722 1072 LINE",
"-54 684 LINE",
"-11 519 LINE",
"772 907 LINE"
);
}
);
};
components = (
{
name = l;
}
);
layerId = UUID1;
name = Bold;
paths = (
{
closed = 1;
nodes = (
"722 1072 LINE",
"-54 684 LINE",
"-11 519 LINE",
"772 907 LINE"
);
}
);
width = 673;
},
{
background = {
components = (
{
name = l;
transform = "{1, 0, 0, 1, 1, 0}";
}
);
paths = (
{
closed = 1;
nodes = (
"558 996 LINE",
"-8 726 LINE",
"16 629 LINE",
"582 892 LINE"
);
}
);
};
components = (
{
name = l;
transform = "{1, 0, 0, 1, 1, 0}";
}
);
layerId = UUID0;
name = Regular;
paths = (
{
closed = 1;
nodes = (
"558 996 LINE",
"-8 726 LINE",
"16 629 LINE",
"582 892 LINE"
);
}
);
width = 572;
}
);
leftKerningGroup = lslash;
rightKerningGroup = lslash;
unicode = 0142;
},
{
glyphname = m;
lastChange = "2015-03-23 17:17:51 +0000";
layers = (
{
anchors = (
{
name = bottom;
position = "{1005, 0}";
},
{
name = top;
position = "{978, 950}";
}
);
background = {
anchors = (
{
name = top;
position = "{978, 950}";
},
{
name = bottom;
position = "{1005, 0}";
}
);
paths = (
{
closed = 1;
nodes = (
"188 150 LINE",
"57 71 LINE",
"43 0 LINE",
"644 0 LINE",
"658 59 LINE",
"532 140 LINE",
"532 140 OFFCURVE",
"532 680 OFFCURVE",
"532 687 CURVE SMOOTH",
"532 710 OFFCURVE",
"530 731 OFFCURVE",
"524 749 CURVE",
"599 773 OFFCURVE",
"728 777 OFFCURVE",
"771 777 CURVE SMOOTH",
"781 777 OFFCURVE",
"790 774 OFFCURVE",
"794 765 CURVE SMOOTH",
"809 731 OFFCURVE",
"832 670 OFFCURVE",
"832 499 CURVE SMOOTH",
"832 150 LINE",
"752 65 LINE",
"742 0 LINE",
"1281 0 LINE",
"1296 60 LINE",
"1176 140 LINE",
"1176 476 LINE SMOOTH",
"1176 632 OFFCURVE",
"1173 694 OFFCURVE",
"1160 745 CURVE",
"1227 773 OFFCURVE",
"1369 777 OFFCURVE",
"1395 777 CURVE SMOOTH",
"1423 777 OFFCURVE",
"1432 772 OFFCURVE",
"1442 751 CURVE SMOOTH",
"1452 730 OFFCURVE",
"1471 677 OFFCURVE",
"1471 507 CURVE SMOOTH",
"1471 150 LINE",
"1393 67 LINE",
"1380 0 LINE",
"1951 0 LINE",
"1965 61 LINE",
"1815 140 LINE",
"1815 609 LINE SMOOTH",
"1815 882 OFFCURVE",
"1692 976 OFFCURVE",
"1492 976 CURVE SMOOTH",
"1405 976 OFFCURVE",
"1274 926 OFFCURVE",
"1138 813 CURVE",
"1084 944 OFFCURVE",
"963 976 OFFCURVE",
"884 976 CURVE SMOOTH",
"752 976 OFFCURVE",
"632 912 OFFCURVE",
"501 807 CURVE",
"437 960 LINE",
"59 909 LINE",
"51 860 LINE",
"188 767 LINE"
);
}
);
};
layerId = UUID1;
name = Bold;
paths = (
{
closed = 1;
nodes = (
"188 150 LINE",
"57 71 LINE",
"43 0 LINE",
"644 0 LINE",
"658 59 LINE",
"532 140 LINE",
"532 140 OFFCURVE",
"532 680 OFFCURVE",
"532 687 CURVE SMOOTH",
"532 710 OFFCURVE",
"530 731 OFFCURVE",
"524 749 CURVE",
"599 773 OFFCURVE",
"728 777 OFFCURVE",
"771 777 CURVE SMOOTH",
"781 777 OFFCURVE",
"790 774 OFFCURVE",
"794 765 CURVE SMOOTH",
"809 731 OFFCURVE",
"832 670 OFFCURVE",
"832 499 CURVE SMOOTH",
"832 150 LINE",
"752 65 LINE",
"742 0 LINE",
"1281 0 LINE",
"1296 60 LINE",
"1176 140 LINE",
"1176 476 LINE SMOOTH",
"1176 632 OFFCURVE",
"1173 694 OFFCURVE",
"1160 745 CURVE",
"1227 773 OFFCURVE",
"1369 777 OFFCURVE",
"1395 777 CURVE SMOOTH",
"1423 777 OFFCURVE",
"1432 772 OFFCURVE",
"1442 751 CURVE SMOOTH",
"1452 730 OFFCURVE",
"1471 677 OFFCURVE",
"1471 507 CURVE SMOOTH",
"1471 150 LINE",
"1393 67 LINE",
"1380 0 LINE",
"1951 0 LINE",
"1965 61 LINE",
"1815 140 LINE",
"1815 609 LINE SMOOTH",
"1815 882 OFFCURVE",
"1692 976 OFFCURVE",
"1492 976 CURVE SMOOTH",
"1405 976 OFFCURVE",
"1274 926 OFFCURVE",
"1138 813 CURVE",
"1084 944 OFFCURVE",
"963 976 OFFCURVE",
"884 976 CURVE SMOOTH",
"752 976 OFFCURVE",
"632 912 OFFCURVE",
"501 807 CURVE",
"437 960 LINE",
"59 909 LINE",
"51 860 LINE",
"188 767 LINE"
);
}
);
width = 1978;
},
{
anchors = (
{
name = bottom;
position = "{918, 0}";
},
{
name = top;
position = "{901, 950}";
}
);
background = {
anchors = (
{
name = top;
position = "{901, 950}";
},
{
name = bottom;
position = "{918, 0}";
}
);
paths = (
{
closed = 1;
nodes = (
"216 136 LINE",
"73 87 LINE",
"57 0 LINE",
"547 0 LINE",
"562 82 LINE",
"395 126 LINE",
"395 126 OFFCURVE",
"396 680 OFFCURVE",
"396 687 CURVE SMOOTH",
"396 714 OFFCURVE",
"394 737 OFFCURVE",
"391 758 CURVE",
"504 794 OFFCURVE",
"636 827 OFFCURVE",
"689 827 CURVE SMOOTH",
"698 827 OFFCURVE",
"706 825 OFFCURVE",
"716 820 CURVE SMOOTH",
"771 790 OFFCURVE",
"819 701 OFFCURVE",
"819 501 CURVE SMOOTH",
"819 131 LINE",
"714 87 LINE",
"697 0 LINE",
"1149 0 LINE",
"1167 82 LINE",
"998 126 LINE",
"998 478 LINE",
"998 576 OFFCURVE",
"998 703 OFFCURVE",
"983 759 CURVE",
"1100 799 OFFCURVE",
"1255 827 OFFCURVE",
"1292 827 CURVE SMOOTH",
"1302 827 OFFCURVE",
"1311 824 OFFCURVE",
"1324 816 CURVE SMOOTH",
"1378 784 OFFCURVE",
"1421 686 OFFCURVE",
"1421 479 CURVE SMOOTH",
"1421 131 LINE",
"1315 88 LINE",
"1298 0 LINE",
"1750 0 LINE",
"1768 84 LINE",
"1600 126 LINE",
"1600 483 LINE",
"1600 853 OFFCURVE",
"1528 973 OFFCURVE",
"1350 973 CURVE SMOOTH",
"1244 973 OFFCURVE",
"1080 891 OFFCURVE",
"972 800 CURVE",
"926 930 OFFCURVE",
"836 973 OFFCURVE",
"749 973 CURVE SMOOTH",
"640 973 OFFCURVE",
"490 892 OFFCURVE",
"382 801 CURVE",
"345 960 LINE",
"71 900 LINE",
"62 853 LINE",
"216 775 LINE"
);
}
);
};
layerId = UUID0;
name = Regular;
paths = (
{
closed = 1;
nodes = (
"216 136 LINE",
"73 87 LINE",
"57 0 LINE",
"547 0 LINE",
"562 82 LINE",
"395 126 LINE",
"395 126 OFFCURVE",
"396 680 OFFCURVE",
"396 687 CURVE SMOOTH",
"396 714 OFFCURVE",
"394 737 OFFCURVE",
"391 758 CURVE",
"504 794 OFFCURVE",
"636 827 OFFCURVE",
"689 827 CURVE SMOOTH",
"698 827 OFFCURVE",
"706 825 OFFCURVE",
"716 820 CURVE SMOOTH",
"771 790 OFFCURVE",
"819 701 OFFCURVE",
"819 501 CURVE SMOOTH",
"819 131 LINE",
"714 87 LINE",
"697 0 LINE",
"1149 0 LINE",
"1167 82 LINE",
"998 126 LINE",
"998 478 LINE",
"998 576 OFFCURVE",
"998 703 OFFCURVE",
"983 759 CURVE",
"1100 799 OFFCURVE",
"1255 827 OFFCURVE",
"1292 827 CURVE SMOOTH",
"1302 827 OFFCURVE",
"1311 824 OFFCURVE",
"1324 816 CURVE SMOOTH",
"1378 784 OFFCURVE",
"1421 686 OFFCURVE",
"1421 479 CURVE SMOOTH",
"1421 131 LINE",
"1315 88 LINE",
"1298 0 LINE",
"1750 0 LINE",
"1768 84 LINE",
"1600 126 LINE",
"1600 483 LINE",
"1600 853 OFFCURVE",
"1528 973 OFFCURVE",
"1350 973 CURVE SMOOTH",
"1244 973 OFFCURVE",
"1080 891 OFFCURVE",
"972 800 CURVE",
"926 930 OFFCURVE",
"836 973 OFFCURVE",
"749 973 CURVE SMOOTH",
"640 973 OFFCURVE",
"490 892 OFFCURVE",
"382 801 CURVE",
"345 960 LINE",
"71 900 LINE",
"62 853 LINE",
"216 775 LINE"
);
}
);
width = 1781;
}
);
leftKerningGroup = n;
rightKerningGroup = n;
unicode = 006D;
},
{
glyphname = n;
lastChange = "2015-03-23 17:17:51 +0000";
layers = (
{
anchors = (
{
name = bottom;
position = "{720, 0}";
},
{
name = top;
position = "{720, 950}";
}
);
background = {
anchors = (
{
name = top;
position = "{720, 950}";
},
{
name = bottom;
position = "{720, 0}";
}
);
paths = (
{
closed = 1;
nodes = (
"188 150 LINE",
"57 72 LINE",
"43 0 LINE",
"644 0 LINE",
"657 59 LINE",
"533 140 LINE",
"532 698 LINE",
"532 728 OFFCURVE",
"524 748 OFFCURVE",
"524 748 CURVE",
"574 766 OFFCURVE",
"697 777 OFFCURVE",
"770 777 CURVE SMOOTH",
"788 777 OFFCURVE",
"797 774 OFFCURVE",
"806 764 CURVE SMOOTH",
"825 743 OFFCURVE",
"843 672 OFFCURVE",
"843 553 CURVE SMOOTH",
"843 150 LINE",
"765 67 LINE",
"752 0 LINE",
"1323 0 LINE",
"1339 62 LINE",
"1187 140 LINE",
"1187 621 LINE SMOOTH",
"1187 912 OFFCURVE",
"1026 975 OFFCURVE",
"879 975 CURVE SMOOTH",
"758 975 OFFCURVE",
"649 925 OFFCURVE",
"501 807 CURVE",
"437 965 LINE",
"59 909 LINE",
"51 860 LINE",
"188 767 LINE"
);
}
);
};
layerId = UUID1;
name = Bold;
paths = (
{
closed = 1;
nodes = (
"188 150 LINE",
"57 72 LINE",
"43 0 LINE",
"644 0 LINE",
"657 59 LINE",
"533 140 LINE",
"532 698 LINE",
"532 728 OFFCURVE",
"524 748 OFFCURVE",
"524 748 CURVE",
"574 766 OFFCURVE",
"697 777 OFFCURVE",
"770 777 CURVE SMOOTH",
"788 777 OFFCURVE",
"797 774 OFFCURVE",
"806 764 CURVE SMOOTH",
"825 743 OFFCURVE",
"843 672 OFFCURVE",
"843 553 CURVE SMOOTH",
"843 150 LINE",
"765 67 LINE",
"752 0 LINE",
"1323 0 LINE",
"1339 62 LINE",
"1187 140 LINE",
"1187 621 LINE SMOOTH",
"1187 912 OFFCURVE",
"1026 975 OFFCURVE",
"879 975 CURVE SMOOTH",
"758 975 OFFCURVE",
"649 925 OFFCURVE",
"501 807 CURVE",
"437 965 LINE",
"59 909 LINE",
"51 860 LINE",
"188 767 LINE"
);
}
);
width = 1350;
},
{
anchors = (
{
name = bottom;
position = "{600, 0}";
},
{
name = top;
position = "{600, 950}";
}
);
background = {
anchors = (
{
name = top;
position = "{600, 950}";
},
{
name = bottom;
position = "{600, 0}";
}
);
paths = (
{
closed = 1;
nodes = (
"216 136 LINE",
"74 88 LINE",
"57 0 LINE",
"546 0 LINE",
"564 81 LINE",
"395 126 LINE",
"395 698 LINE",
"395 717 OFFCURVE",
"390 755 OFFCURVE",
"390 755 CURVE",
"478 785 OFFCURVE",
"649 827 OFFCURVE",
"705 827 CURVE SMOOTH",
"719 827 OFFCURVE",
"730 823 OFFCURVE",
"744 814 CURVE",
"787 782 OFFCURVE",
"839 701 OFFCURVE",
"839 550 CURVE SMOOTH",
"839 131 LINE",
"734 87 LINE",
"717 0 LINE",
"1169 0 LINE",
"1186 82 LINE",
"1018 126 LINE",
"1018 618 LINE",
"1018 893 OFFCURVE",
"885 973 OFFCURVE",
"767 973 CURVE SMOOTH",
"654 973 OFFCURVE",
"490 886 OFFCURVE",
"381 800 CURVE",
"345 965 LINE",
"71 900 LINE",
"62 853 LINE",
"216 775 LINE"
);
}
);
};
layerId = UUID0;
name = Regular;
paths = (
{
closed = 1;
nodes = (
"216 136 LINE",
"74 88 LINE",
"57 0 LINE",
"546 0 LINE",
"564 81 LINE",
"395 126 LINE",
"395 698 LINE",
"395 717 OFFCURVE",
"390 755 OFFCURVE",
"390 755 CURVE",
"478 785 OFFCURVE",
"649 827 OFFCURVE",
"705 827 CURVE SMOOTH",
"719 827 OFFCURVE",
"730 823 OFFCURVE",
"744 814 CURVE",
"787 782 OFFCURVE",
"839 701 OFFCURVE",
"839 550 CURVE SMOOTH",
"839 131 LINE",
"734 87 LINE",
"717 0 LINE",
"1169 0 LINE",
"1186 82 LINE",
"1018 126 LINE",
"1018 618 LINE",
"1018 893 OFFCURVE",
"885 973 OFFCURVE",
"767 973 CURVE SMOOTH",
"654 973 OFFCURVE",
"490 886 OFFCURVE",
"381 800 CURVE",
"345 965 LINE",
"71 900 LINE",
"62 853 LINE",
"216 775 LINE"
);
}
);
width = 1200;
}
);
leftKerningGroup = n;
rightKerningGroup = n;
unicode = 006E;
},
